<?xml version="1.0" standalone="no"?>
<!DOCTYPE svg PUBLIC "-//W3C//DTD SVG 1.1//EN" "http://www.w3.org/Graphics/SVG/1.1/DTD/svg11.dtd" >
<svg>
<metadata>
Created by FontForge 20090622 at Sun Mar 19 15:17:03 2017
 By deploy user
Copyright &#194;&#169; 2011-2012 Durotype, www.durotype.com. All rights reserved.
</metadata>
<defs>
<font id="Flexo-Demi" horiz-adv-x="1970" >
  <font-face 
    font-family="Flexo Light"
    font-weight="600"
    font-stretch="normal"
    units-per-em="3333"
    panose-1="0 0 0 0 0 0 0 0 0 0"
    ascent="2633"
    descent="-700"
    x-height="1781"
    cap-height="2330"
    bbox="-547 -821 4121 3201"
    underline-thickness="167"
    underline-position="-230"
    unicode-range="U+0020-U+FB04"
  />
<missing-glyph horiz-adv-x="2123" 
d="M1893 0h-1663v2400h1663v-2400zM962 1200l-565 874v-1748zM1627 171l-565 875l-566 -875h1131zM1627 2228h-1131l566 -874zM1727 2074l-565 -874l565 -874v1748z" />
    <glyph glyph-name="f_f" unicode="ff" horiz-adv-x="2332" 
d="M2255 1499h-377v-1499h-380v1499h-742v-1499h-380v1499h-301v282h301v171q0 262 139.5 401.5t415.5 139.5q121 0 234 -17l-28 -265h-131q-118 0 -184 -62.5t-66 -186.5v-181h742v171q0 262 139.5 401.5t415.5 139.5q121 0 234 -17l-28 -265h-131q-118 0 -184 -62.5
t-66 -186.5v-181h377v-282z" />
    <glyph glyph-name="fi" unicode="fi" horiz-adv-x="2105" 
d="M376 1781v171q0 262 139.5 401.5t415.5 139.5q121 0 234 -17l-28 -265h-131q-118 0 -184 -62.5t-66 -186.5v-181h1107v-1781h-382v1499h-725v-1499h-380v1499h-301v282h301zM1671 2493q132 0 181.5 -50t49.5 -181q0 -132 -48.5 -181.5t-182.5 -49.5q-133 0 -181.5 49.5
t-48.5 181.5q0 131 49.5 181t180.5 50z" />
    <glyph glyph-name="fl" unicode="fl" horiz-adv-x="2082" 
d="M75 1499v282h301v171q0 262 139.5 401.5t415.5 139.5q439 0 901 -24v-1991q0 -123 30 -215.5t100 -184.5l-331 -157q-91 103 -135.5 231.5t-44.5 308.5v1750h-445q-118 0 -184 -62.5t-66 -186.5v-181h377v-282h-377v-1499h-380v1499h-301z" />
    <glyph glyph-name="f_f_i" unicode="ffi" horiz-adv-x="3227" 
d="M376 1781v171q0 262 139.5 401.5t415.5 139.5q121 0 234 -17l-28 -265h-131q-118 0 -184 -62.5t-66 -186.5v-181h742v171q0 262 139.5 401.5t415.5 139.5q121 0 234 -17l-28 -265h-131q-118 0 -184 -62.5t-66 -186.5v-181h1107v-1781h-382v1499h-725v-1499h-380v1499
h-742v-1499h-380v1499h-301v282h301zM2563 2262q0 131 49.5 181t180.5 50q132 0 181.5 -50t49.5 -181q0 -132 -48.5 -181.5t-182.5 -49.5q-133 0 -181.5 49.5t-48.5 181.5z" />
    <glyph glyph-name="f_f_l" unicode="ffl" horiz-adv-x="3204" 
d="M376 1781v171q0 262 139.5 401.5t415.5 139.5q121 0 234 -17l-28 -265h-131q-118 0 -184 -62.5t-66 -186.5v-181h742v171q0 262 139.5 401.5t415.5 139.5q439 0 901 -24v-1991q0 -123 30 -215.5t100 -184.5l-331 -157q-91 103 -135.5 231.5t-44.5 308.5v1750h-445
q-118 0 -184 -62.5t-66 -186.5v-181h377v-282h-377v-1499h-380v1499h-742v-1499h-380v1499h-301v282h301z" />
    <glyph glyph-name="f_b" unicode="fb" horiz-adv-x="3144" 
d="M75 1499v282h301v171q0 262 139.5 401.5t415.5 139.5q439 0 901 -24v-713q198 49 389 49q167 0 290 -29.5t218 -94.5t153 -172t87.5 -259t29.5 -359q0 -262 -46.5 -437.5t-150.5 -282t-256 -151t-378 -44.5q-189 0 -374 38t-326 118q-15 162 -15 327v1752h-447
q-118 0 -184 -62.5t-66 -186.5v-181h377v-282h-377v-1499h-380v1499h-301zM2168 268q70 0 127.5 11t100.5 29t77 49t57 62.5t39 77.5t25 86.5t14 97.5t6.5 102t1.5 108q0 227 -21 325q-36 168 -162 236q-108 59 -301 59q-153 0 -300 -50v-894q0 -140 11 -239
q55 -29 145 -44.5t180 -15.5z" />
    <glyph glyph-name="f_f_b" unicode="ffb" horiz-adv-x="4266" 
d="M75 1781h301v171q0 262 139.5 401.5t415.5 139.5q121 0 234 -17l-28 -265h-131q-118 0 -184 -62.5t-66 -186.5v-181h742v171q0 262 139.5 401.5t415.5 139.5q439 0 901 -24v-713q198 49 389 49q167 0 290 -29.5t218 -94.5t153 -172t87.5 -259t29.5 -359
q0 -262 -46.5 -437.5t-150.5 -282t-256 -151t-378 -44.5q-189 0 -374 38t-326 118q-15 162 -15 327v1752h-447q-118 0 -184 -62.5t-66 -186.5v-181h377v-282h-377v-1499h-380v1499h-742v-1499h-380v1499h-301v282zM2954 567q0 -140 11 -239q55 -29 145 -44.5t180 -15.5
q70 0 127.5 11t100.5 29t77 49t57 62.5t39 77.5t25 86.5t14 97.5t6.5 102t1.5 108q0 227 -21 325q-36 168 -162 236q-108 59 -301 59q-153 0 -300 -50v-894z" />
    <glyph glyph-name="f_f_h" unicode="ffh" horiz-adv-x="4282" 
d="M756 1781h742v171q0 262 139.5 401.5t415.5 139.5q439 0 901 -24v-731q212 67 440 67q132 0 236.5 -18t176.5 -48t124.5 -79t82.5 -101t47 -124.5t22.5 -138.5t5.5 -154v-1142h-380v1097q0 77 -5.5 129.5t-21.5 101t-45 78.5t-75.5 53t-113 32.5t-158.5 9.5
q-180 0 -336 -70v-1431h-380v2211h-446q-118 0 -184 -62.5t-66 -186.5v-181h377v-282h-377v-1499h-380v1499h-742v-1499h-380v1499h-301v282h301v171q0 262 139.5 401.5t415.5 139.5q121 0 234 -17l-28 -265h-131q-118 0 -184 -62.5t-66 -186.5v-181z" />
    <glyph glyph-name="f_f_j" unicode="ffj" horiz-adv-x="3300" 
d="M376 1781v171q0 262 139.5 401.5t415.5 139.5q121 0 234 -17l-28 -265h-131q-118 0 -184 -62.5t-66 -186.5v-181h742v171q0 262 139.5 401.5t415.5 139.5q121 0 234 -17l-28 -265h-131q-118 0 -184 -62.5t-66 -186.5v-181h1175v-1777q0 -367 -162 -525.5t-526 -158.5
q-50 0 -90 4l30 281q60 6 99.5 13t86 21t76 36.5t55.5 56.5t38 85t12 117v1565h-794v-1499h-380v1499h-742v-1499h-380v1499h-301v282h301zM2862 2493q132 0 181.5 -50t49.5 -181q0 -132 -48.5 -181.5t-182.5 -49.5q-133 0 -181.5 49.5t-48.5 181.5q0 131 49.5 181t180.5 50
z" />
    <glyph glyph-name="f_f_k" unicode="ffk" horiz-adv-x="4129" 
d="M2954 993l671 788h432l-734 -830l774 -951h-461l-682 876v-876h-378v2211h-448q-118 0 -184 -62.5t-66 -186.5v-181h377v-282h-377v-1499h-380v1499h-742v-1499h-380v1499h-301v282h301v171q0 262 139.5 401.5t415.5 139.5q121 0 234 -17l-28 -265h-131
q-118 0 -184 -62.5t-66 -186.5v-181h742v171q0 262 139.5 401.5t415.5 139.5q439 0 901 -24v-1476z" />
    <glyph glyph-name="f_h" unicode="fh" horiz-adv-x="3160" 
d="M1832 1431v-1431h-380v2211h-446q-118 0 -184 -62.5t-66 -186.5v-181h377v-282h-377v-1499h-380v1499h-301v282h301v171q0 262 139.5 401.5t415.5 139.5q439 0 901 -24v-731q212 67 440 67q132 0 236.5 -18t176.5 -48t124.5 -79t82.5 -101t47 -124.5t22.5 -138.5
t5.5 -154v-1142h-380v1097q0 77 -5.5 129.5t-21.5 101t-45 78.5t-75.5 53t-113 32.5t-158.5 9.5q-180 0 -336 -70z" />
    <glyph glyph-name="f_j" unicode="fj" horiz-adv-x="2178" 
d="M756 1962v-181h1175v-1777q0 -367 -162 -525.5t-526 -158.5q-50 0 -90 4l30 281q60 6 99.5 13t86 21t76 36.5t55.5 56.5t38 85t12 117v1565h-794v-1499h-380v1499h-301v282h301v171q0 262 139.5 401.5t415.5 139.5q121 0 234 -17l-28 -265h-131q-118 0 -184 -62.5
t-66 -186.5zM1740 2031q-133 0 -181.5 49.5t-48.5 181.5q0 131 49.5 181t180.5 50q132 0 181.5 -50t49.5 -181q0 -132 -48.5 -181.5t-182.5 -49.5z" />
    <glyph glyph-name="f_k" unicode="fk" horiz-adv-x="3007" 
d="M1832 876v-876h-378v2211h-448q-118 0 -184 -62.5t-66 -186.5v-181h377v-282h-377v-1499h-380v1499h-301v282h301v171q0 262 139.5 401.5t415.5 139.5q439 0 901 -24v-1476l671 788h432l-734 -830l774 -951h-461z" />
    <glyph glyph-name=".notdef" horiz-adv-x="2123" 
d="M1893 0h-1663v2400h1663v-2400zM962 1200l-565 874v-1748zM1627 171l-565 875l-566 -875h1131zM1627 2228h-1131l566 -874zM1727 2074l-565 -874l565 -874v1748z" />
    <glyph glyph-name=".null" horiz-adv-x="0" 
 />
    <glyph glyph-name="nonmarkingreturn" horiz-adv-x="1111" 
 />
    <glyph glyph-name="space" unicode=" " horiz-adv-x="875" 
 />
    <glyph glyph-name="exclam" unicode="!" horiz-adv-x="931" 
d="M696 207q0 -132 -48.5 -181.5t-182.5 -49.5q-133 0 -181.5 49.5t-48.5 181.5q0 131 49.5 181t180.5 50q132 0 181.5 -50t49.5 -181zM627 679h-324l-65 1651h454z" />
    <glyph glyph-name="quotedbl" unicode="&#x22;" horiz-adv-x="1293" 
d="M511 1572h-282l-31 897h342zM1066 1572h-282l-30 897h341z" />
    <glyph glyph-name="numbersign" unicode="#" horiz-adv-x="1927" 
d="M626 0h-282l98 672h-321v277h362l62 435h-337v277h376l97 669h281l-96 -669h364l98 669h281l-97 -669h293v-277h-332l-62 -435h301v-277h-342l-98 -672h-282l98 672h-365zM827 1384l-62 -435h365l62 435h-365z" />
    <glyph glyph-name="dollar" unicode="$" horiz-adv-x="1689" 
d="M156 352q340 -48 583 -48q82 0 143.5 7.5t118 29t91.5 57t56 93.5t21 137q0 50 -11 91.5t-30 72.5t-47.5 56.5t-60.5 44t-72 34.5t-78 28l-84 26l-31 9q-74 23 -129.5 42t-115 43t-102.5 48t-87 55t-74 65t-57 77t-42.5 92.5t-24.5 110t-9 130.5q0 301 150 446.5
t453 175.5v312h274v-305q282 -8 544 -62l-35 -303q-302 44 -482 44q-40 0 -68 -0.5t-73 -3t-77 -7.5t-73 -14.5t-70 -22.5t-59.5 -33.5t-48.5 -46t-30 -61t-12 -77.5q0 -165 101 -244q67 -52 231 -98q24 -7 76 -21l44 -12q129 -35 223 -74t171.5 -94.5t124.5 -126.5
t72.5 -167t25.5 -219q0 -302 -151.5 -457.5t-451.5 -192.5v-316h-274v304q-303 4 -581 63z" />
    <glyph glyph-name="percent" unicode="%" horiz-adv-x="2839" 
d="M139 1651q0 147 12.5 251t45.5 192t90 139.5t147 80t216 28.5q90 0 161.5 -14.5t125 -41t92 -70.5t64 -97.5t40.5 -128t21 -155t6 -184.5t-6 -184.5t-21 -154.5t-40.5 -127.5t-64 -97.5t-92 -70.5t-125 -41t-161.5 -14.5q-126 0 -216 28.5t-147 80t-90 139.5t-45.5 191.5
t-12.5 250.5zM883 1651q0 64 -1 103t-4 91.5t-9.5 83.5t-17.5 67.5t-28 57.5t-41 40t-57 27t-75 8q-143 0 -193 -111q-37 -81 -40 -285v-82q0 -57 0.5 -92t3 -83t6.5 -76.5t12.5 -64.5t20 -57t29 -43.5t40.5 -34t53.5 -19t67.5 -7.5q42 0 75 8t57 27t41 39.5t28 57.5
t17.5 68t9.5 83t4 91t1 103zM1676 679q0 122 8.5 212.5t29.5 171.5t58 135.5t93.5 94.5t136 58.5t184.5 18.5q126 0 215.5 -28.5t147 -80.5t90 -140t45 -191.5t12.5 -250.5q0 -104 -6 -184.5t-21 -155t-40.5 -128t-64 -97.5t-92 -70.5t-124.5 -41t-162 -14.5
q-90 0 -161.5 14.5t-125 41t-92 70.5t-64 97.5t-40.5 128t-21 155t-6 184.5zM2419 679q0 221 -20 306q-30 129 -127 160q-37 12 -86 12q-42 0 -75 -8t-57 -27t-41 -40t-28 -57.5t-17.5 -67.5t-9.5 -83.5t-4 -91.5t-1 -103t1 -103t4 -91t9.5 -83t17.5 -68t28 -57.5t41 -39.5
t57 -27t75 -8q37 0 67.5 7.5t53.5 19t40.5 34t29 43.5t20 57t12.5 64.5t6.5 76.5t3 83t0.5 92zM1964 2378h274l-1368 -2426h-273z" />
    <glyph glyph-name="ampersand" unicode="&#x26;" horiz-adv-x="2254" 
d="M1720 0l-156 182q-119 -113 -275 -159.5t-376 -46.5q-394 0 -585.5 166.5t-191.5 504.5q0 117 33 213.5t97.5 171.5t149.5 132t200 107l-73.5 91.5t-61 88t-56 104.5t-32 110.5t-14.5 136.5q0 148 48 257t135 172t198 93t248 30q123 0 228 -28.5t191.5 -88t136 -162.5
t49.5 -241q0 -417 -501 -630l444 -493q66 141 83 393l356 -15q-20 -203 -67.5 -357.5t-135.5 -298.5l389 -433h-461zM924 1418q54 27 94 50.5t88 60t78.5 74t51.5 89t21 107.5q0 145 -68.5 207t-191.5 62q-117 0 -189.5 -66.5t-72.5 -208.5q0 -47 11 -91.5t25.5 -78
t43 -73.5t50 -65zM1350 430l-542 616q-62 -39 -100.5 -67t-78.5 -67t-61.5 -79t-35 -94t-13.5 -121q0 -73 26 -133.5t68.5 -100.5t99.5 -67.5t116.5 -39.5t121.5 -12q236 0 399 165z" />
    <glyph glyph-name="quotesingle" unicode="'" horiz-adv-x="737" 
d="M198 2469h341l-29 -897h-282z" />
    <glyph glyph-name="parenleft" unicode="(" horiz-adv-x="1034" 
d="M924 -400l-212 -175q-128 110 -225 248t-158.5 282t-100.5 310.5t-54 325.5t-15 336t15 336t54 326t100.5 311t158.5 282t225 248l212 -176q-379 -379 -379 -1327t379 -1327z" />
    <glyph glyph-name="parenright" unicode=")" horiz-adv-x="1034" 
d="M322 -575l-212 175q379 379 379 1327t-379 1327l212 176q128 -110 225 -248t158.5 -282t100.5 -311t54 -326t15 -336t-15 -336t-54 -325.5t-100.5 -310.5t-158.5 -282t-225 -248z" />
    <glyph glyph-name="asterisk" unicode="*" horiz-adv-x="1513" 
d="M985 1631l210 -366l-231 -128l-208 357l-207 -357l-234 131l210 363h-418v263h417l-210 364l235 133l207 -362l208 362l233 -133l-213 -364h422v-263h-421z" />
    <glyph glyph-name="plus" unicode="+" horiz-adv-x="1925" 
d="M1136 1152h654v-343h-654v-658h-350v658h-651v343h651v654h350v-654z" />
    <glyph glyph-name="comma" unicode="," horiz-adv-x="849" 
d="M291 399h432l-315 -836h-320z" />
    <glyph glyph-name="hyphen" unicode="-" horiz-adv-x="1292" 
d="M1078 726h-864v319h864v-319z" />
    <glyph glyph-name="period" unicode="." horiz-adv-x="845" 
d="M192 207q0 131 49.5 181t180.5 50q132 0 181.5 -50t49.5 -181q0 -132 -48.5 -181.5t-182.5 -49.5q-133 0 -181.5 49.5t-48.5 181.5z" />
    <glyph glyph-name="slash" unicode="/" horiz-adv-x="1478" 
d="M422 -268h-334l945 2680h335z" />
    <glyph glyph-name="zero" unicode="0" horiz-adv-x="2072" 
d="M1870 1130q0 -134 -6 -243.5t-19.5 -214t-36.5 -186t-57.5 -155.5t-81.5 -128.5t-108.5 -99t-139 -71.5t-173.5 -41.5t-211 -14.5q-129 0 -234.5 17.5t-188 54.5t-145.5 88.5t-108.5 126.5t-76 161t-48.5 199.5t-25.5 234t-7.5 272.5t7.5 272.5t25.5 234t48.5 199.5
t76 161t108.5 126.5t145.5 88.5t188 54.5t234.5 17.5q115 0 211 -14.5t173.5 -41.5t139 -71.5t108.5 -99t81.5 -128.5t57.5 -155.5t36.5 -186t19.5 -214t6 -243.5zM600 1130q0 -327 22 -466q36 -222 157 -308q95 -68 258 -68q241 0 340 155q77 121 92 392q5 100 5 295
q0 327 -22 465q-36 224 -157 310q-95 68 -258 68q-241 0 -340 -155q-77 -121 -92 -393q-5 -100 -5 -295z" />
    <glyph glyph-name="one" unicode="1" horiz-adv-x="1230" 
d="M655 2260h316v-2260h-391v1869q-241 -63 -518 -97l-17 308q330 50 610 180z" />
    <glyph glyph-name="two" unicode="2" horiz-adv-x="1888" 
d="M1709 0h-1554q71 395 121 556q72 233 199 368q130 137 383 244q98 42 166.5 78t126 79t91.5 90.5t52 106.5t18 132q0 77 -19 129t-58 87.5t-110 54.5t-163 27t-230 8q-212 0 -505 -46l-36 297q391 73 723 73q143 0 257.5 -15.5t217.5 -55t172 -102t109 -161t40 -227.5
q0 -302 -164 -504.5t-494 -334.5q-107 -43 -180 -86t-120.5 -86.5t-77 -103t-45 -119.5t-27.5 -152h1107v-337z" />
    <glyph glyph-name="three" unicode="3" horiz-adv-x="1868" 
d="M840 2284q98 0 181 -6t169 -23t153.5 -44t128.5 -70.5t101 -102t63.5 -140.5t23.5 -182q0 -370 -327 -526q174 -67 268.5 -188t94.5 -318q0 -161 -39.5 -282.5t-110.5 -202t-180.5 -131t-240.5 -71.5t-298 -21q-303 0 -680 71l42 302q378 -48 555 -48q117 0 198 8.5
t150 31.5t108.5 64t61.5 105.5t22 156.5q0 153 -67.5 235t-203.5 99q-187 23 -463 23h-48v287q264 6 511 42q131 19 188 98t57 215q0 58 -12 103.5t-31.5 76.5t-53.5 53.5t-68.5 35t-86 19.5t-97 9t-109.5 2q-227 0 -591 -48l-39 296q370 71 670 71z" />
    <glyph glyph-name="four" unicode="4" horiz-adv-x="1973" 
d="M1179 0v523h-823q-150 0 -210.5 55t-60.5 156q0 131 154 329l795 1024q86 110 161 153.5t167 43.5q89 0 146 -61.5t57 -177.5v-1223h287v-299h-287v-523h-386zM1180 1757l-704 -935h704v935z" />
    <glyph glyph-name="five" unicode="5" horiz-adv-x="1885" 
d="M165 49l41 302q337 -49 560 -49q106 0 177 5.5t136.5 22.5t104 47.5t68 80.5t41 121t11.5 170q0 67 -20 120t-53 89.5t-84 63t-102.5 41.5t-119.5 23.5t-124.5 11t-128.5 2.5q-236 0 -455 -11l81 1171h1361v-335h-1024l-36 -527q87 5 155 5q100 0 181 -3.5t166 -13.5
t152 -27t132.5 -44.5t114.5 -65.5t91 -90t68.5 -117.5t41.5 -150t15 -185.5q0 -384 -211.5 -557t-633.5 -173q-360 0 -706 73z" />
    <glyph glyph-name="six" unicode="6" horiz-adv-x="2017" 
d="M1054 1426q160 0 280 -18.5t224 -66.5t170.5 -127t103.5 -203.5t37 -293.5q0 -175 -41 -305t-112.5 -213t-182.5 -133.5t-237 -70t-290 -19.5q-140 0 -253.5 22t-198 62.5t-147.5 103.5t-103.5 138.5t-66 174t-35.5 203.5t-10 234q0 202 11.5 358.5t40 295t73.5 238.5
t116 183t163 136.5t218.5 90.5t279 52.5t347.5 15.5q67 0 250 -4l32 -309q-48 -2 -129 -4t-143 -3t-145.5 -6.5t-148 -15t-139.5 -29t-130.5 -47t-109.5 -71.5t-88 -99.5t-55.5 -133t-22.5 -171.5q247 35 442 35zM582 869q0 -70 3.5 -125.5t14.5 -118t29 -109.5t49.5 -91.5
t74.5 -73t105 -45.5t139 -17q140 0 231 22t147.5 75t79.5 133t23 203q0 124 -31.5 206t-97 126t-149.5 61t-206 17q-165 0 -404 -36q-8 -82 -8 -227z" />
    <glyph glyph-name="seven" unicode="7" horiz-adv-x="1726" 
d="M1253 1926h-1154v334h1337q112 0 173.5 -49t61.5 -133q0 -60 -33 -133l-879 -1945h-451z" />
    <glyph glyph-name="eight" unicode="8" horiz-adv-x="2024" 
d="M209 1727q0 95 24.5 173.5t66 135.5t102.5 100.5t129.5 71t151 45t162 24.5t168.5 7q125 0 232.5 -14t216.5 -52t185 -98t124 -160.5t48 -232.5q0 -81 -7.5 -140t-28 -118t-57.5 -106t-96 -94t-144 -92q123 -68 199.5 -139t120.5 -176t44 -244q0 -154 -44 -269
t-117.5 -185.5t-184 -113.5t-227 -58.5t-264.5 -15.5q-153 0 -276 19t-230 65t-179 118.5t-112.5 184t-40.5 256.5q0 137 43 238t119 171t204 143q-177 94 -254.5 221.5t-77.5 334.5zM559 628q0 -84 23 -146.5t62 -100.5t98.5 -61t123.5 -31.5t147 -8.5q81 0 144 8.5
t123 31.5t99 61t62.5 100.5t23.5 146.5q0 80 -13.5 134.5t-47 99.5t-96.5 74t-156.5 49.5t-232.5 33.5q-176 -33 -268 -127.5t-92 -263.5zM580 1672q0 -63 11.5 -108.5t44.5 -89.5t91 -72.5t154 -49t230 -27.5q182 43 262 118.5t80 228.5q0 80 -23 138.5t-60.5 92.5
t-97 53.5t-119 26t-140.5 6.5q-65 0 -115 -4.5t-102 -16t-89 -34t-67 -56.5t-45 -86t-15 -120z" />
    <glyph glyph-name="nine" unicode="9" horiz-adv-x="2018" 
d="M962 834q-160 0 -280 18.5t-224 66.5t-170.5 127t-103.5 203.5t-37 293.5q0 175 41 305t112.5 213t182.5 133.5t237 70t290 19.5q140 0 253.5 -22t198 -62.5t147.5 -103.5t103.5 -138.5t66 -174t35.5 -203.5t10 -234q0 -202 -11.5 -358.5t-40 -295t-73.5 -238.5
t-116 -183t-163 -136.5t-218.5 -90.5t-279 -52.5t-347.5 -15.5q-67 0 -250 4l-32 309q48 2 129 4t143 3t145.5 6.5t148 15t139.5 29t130.5 47t109.5 71.5t88 99.5t55.5 133t22.5 171.5q-247 -35 -442 -35zM1434 1391q0 70 -3.5 125.5t-14.5 118t-29 109.5t-49.5 91.5
t-74.5 73t-105 45.5t-139 17q-140 0 -231 -22t-147.5 -75t-79.5 -133t-23 -203q0 -124 31.5 -206t97 -126t149.5 -61t206 -17q165 0 404 36q8 82 8 227z" />
    <glyph glyph-name="colon" unicode=":" horiz-adv-x="940" 
d="M240 207q0 131 49.5 181t180.5 50q132 0 181.5 -50t49.5 -181q0 -132 -48.5 -181.5t-182.5 -49.5q-133 0 -181.5 49.5t-48.5 181.5zM240 1411q0 131 49.5 181t180.5 50q132 0 181.5 -50t49.5 -181q0 -132 -48.5 -181.5t-182.5 -49.5q-133 0 -181.5 49.5t-48.5 181.5z" />
    <glyph glyph-name="semicolon" unicode=";" horiz-adv-x="926" 
d="M780 1411q0 -132 -48.5 -181.5t-182.5 -49.5q-133 0 -181.5 49.5t-48.5 181.5q0 131 49.5 181t180.5 50q132 0 181.5 -50t49.5 -181zM443 -437h-320l203 836h432z" />
    <glyph glyph-name="less" unicode="&#x3c;" horiz-adv-x="2040" 
d="M1810 466v-362l-1681 716v317l1681 716v-362l-1223 -512z" />
    <glyph glyph-name="equal" unicode="=" horiz-adv-x="2110" 
d="M1882 451h-1655v343h1655v-343zM1882 1163h-1655v343h1655v-343z" />
    <glyph glyph-name="greater" unicode="&#x3e;" horiz-adv-x="2040" 
d="M1911 820l-1681 -716v362l1223 513l-1223 512v362l1681 -716v-317z" />
    <glyph glyph-name="question" unicode="?" horiz-adv-x="1736" 
d="M884 884l-8 -205h-328l-8 215q-3 57 -3 82q0 90 23 153t61.5 96t89 52.5t106 29l111 19t106 29.5t89 54t61.5 98.5t23 156.5q0 107 -21.5 173t-80 108t-151.5 57.5t-245 15.5q-289 0 -542 -49l-67 312q324 73 666 73q119 0 210 -6.5t184 -25t160 -50t127.5 -83.5
t97.5 -124t58.5 -172.5t21.5 -227.5q0 -362 -208 -502q-87 -59 -254 -99q-135 -32 -171 -46q-92 -36 -105 -110q-3 -11 -3 -24zM712 -24q-133 0 -181.5 49.5t-48.5 181.5q0 131 49.5 181t180.5 50q132 0 181.5 -50t49.5 -181q0 -132 -48.5 -181.5t-182.5 -49.5z" />
    <glyph glyph-name="at" unicode="@" horiz-adv-x="2994" 
d="M2783 1343q58 -200 58 -452q0 -313 -87 -541t-259.5 -370.5t-417 -210t-572.5 -67.5q-329 0 -574 67.5t-417 210t-258.5 370t-86.5 541.5q0 258 59 456.5t170.5 336.5t280.5 227t380.5 129t479.5 40q111 0 204 -17t177 -57.5t142.5 -103.5t92.5 -160.5t34 -222.5v-700
q0 -165 -15 -327q-113 -71 -300 -113.5t-396 -42.5q-354 0 -512.5 137t-158.5 418q0 238 114 375t365 183q143 26 531 47q0 161 -63.5 221.5t-231.5 60.5q-190 0 -336.5 -26.5t-268.5 -89t-201 -163.5t-122 -253t-43 -355q0 -200 42 -351t119.5 -252.5t196.5 -165t264 -91
t332 -27.5t332 27.5t264.5 91t196.5 165t119 252.5t42 351q0 195 -40 346zM1817 920v328q-258 -7 -384 -43q-75 -21 -118 -41t-75.5 -54.5t-45 -84.5t-12.5 -128q0 -82 22 -137t69 -85.5t109 -42.5t152 -12q55 0 142 18t130 43q11 99 11 239z" />
    <glyph glyph-name="A" unicode="A" horiz-adv-x="2227" 
d="M482 0h-418l706 2076q95 278 350 278t348 -278l695 -2076h-432l-197 619h-858zM772 926h665l-335 1054z" />
    <glyph glyph-name="B" unicode="B" horiz-adv-x="2142" 
d="M1008 2354q103 0 190.5 -6t184.5 -23t174 -45t149.5 -75.5t120.5 -110.5t77 -153.5t29 -202.5q0 -193 -87.5 -337.5t-256.5 -208.5q380 -127 380 -585q0 -111 -26 -202t-71 -155.5t-112.5 -113.5t-143.5 -79t-172.5 -48.5t-190.5 -25.5t-205 -7q-433 0 -784 61v2256
q336 61 744 61zM1024 1048h-357v-732q173 -23 368 -23q104 0 177 7.5t144 30t114 62.5t69 107.5t26 162.5q0 70 -14 126t-39 95.5t-63.5 69t-82 47.5t-101 28.5t-114 14.5t-127.5 4zM668 1335h356q99 0 170 7.5t140 30t111 62t67.5 105t25.5 156.5q0 66 -13 117t-35 87.5
t-59.5 62t-78 40.5t-99 24t-114 11.5t-131.5 2.5q-164 0 -340 -23v-683z" />
    <glyph glyph-name="C" unicode="C" horiz-adv-x="1861" 
d="M1734 2290l-36 -309q-240 38 -458 38q-356 0 -498 -166q-101 -117 -124 -359q-9 -103 -9 -329q0 -285 19 -408q34 -224 161 -327q146 -119 451 -119q218 0 458 38l36 -309q-259 -64 -585 -64q-144 0 -261.5 17t-211.5 53t-166.5 88t-126 127t-90 164t-59 205.5t-32 245.5
t-9.5 289q0 184 13 327.5t42.5 270t79.5 218.5t123 165t173.5 117.5t230.5 67.5t294 23q326 0 585 -64z" />
    <glyph glyph-name="D" unicode="D" horiz-adv-x="2232" 
d="M264 37v2256q336 61 744 61q130 0 240 -11.5t200.5 -36.5t164 -59t131 -83.5t101.5 -106.5t76 -131.5t53 -154t34 -179t18 -201.5t5 -226t-5 -226t-18 -201.5t-34 -179t-53 -154t-76 -131.5t-101.5 -106.5t-131 -83.5t-164 -59t-200.5 -36.5t-240 -11.5q-408 0 -744 61z
M671 2007v-1684q146 -20 271 -20q386 0 540 172q107 119 131 360q10 104 10 330q0 278 -19 400q-36 227 -168 334q-158 128 -494 128q-125 0 -271 -20z" />
    <glyph glyph-name="E" unicode="E" horiz-adv-x="1859" 
d="M1661 2011h-625q-84 0 -141 -6t-101.5 -22.5t-69.5 -40.5t-41 -67t-21.5 -95t-5.5 -130v-306h960v-317h-960v-347q0 -78 5.5 -130t21.5 -95t41 -67t69.5 -40.5t101.5 -22.5t141 -6h625v-309q-340 -16 -615 -16q-279 0 -416 31q-238 53 -324 230q-56 115 -56 289v1242
q0 333 212 456q138 81 415 91q66 3 169 3q275 0 615 -16v-309z" />
    <glyph glyph-name="F" unicode="F" horiz-adv-x="1769" 
d="M662 0h-406v1786q0 333 212 456q138 81 415 91q66 3 169 3q275 0 615 -16v-309h-625q-84 0 -141 -6t-101.5 -22.5t-69.5 -40.5t-41 -67t-21.5 -95t-5.5 -130v-306h960v-317h-960v-1027z" />
    <glyph glyph-name="G" unicode="G" horiz-adv-x="2146" 
d="M1879 2291l-35 -311q-265 39 -600 39q-356 0 -498 -166q-101 -117 -124 -359q-9 -103 -9 -329q0 -285 19 -407q34 -225 162 -329q146 -118 450 -118q80 0 135.5 10.5t86 26t46.5 45t20 55.5t4 69v448h-400v311h801v-872q0 -66 -12.5 -120.5t-33.5 -95.5t-57.5 -73.5
t-74 -54.5t-94 -37.5t-107.5 -24.5t-124 -14t-134 -6.5t-147 -1.5q-164 0 -294 23t-230 67.5t-173.5 117.5t-123 165.5t-79.5 219t-43 270t-13 326.5q0 162 9.5 292t32 246.5t59 205.5t90.5 164t126 126t166.5 86.5t211.5 52t261 16.5q407 0 726 -63z" />
    <glyph glyph-name="H" unicode="H" horiz-adv-x="2295" 
d="M2033 0h-409v1027h-954v-1027h-407v2330h407v-975h954v975h409v-2330z" />
    <glyph glyph-name="I" unicode="I" horiz-adv-x="928" 
d="M668 0h-408v2330h408v-2330z" />
    <glyph glyph-name="J" unicode="J" horiz-adv-x="1360" 
d="M706 2330h409v-1574q0 -215 -33 -357.5t-114 -240t-214 -140t-336 -42.5q-93 0 -200.5 18.5t-183.5 49.5l35 304q153 -48 319 -48q49 0 92 10.5t85.5 37.5t72.5 69.5t49 112t19 159.5v1641z" />
    <glyph glyph-name="K" unicode="K" horiz-adv-x="2082" 
d="M1527 2330h470l-915 -1116l933 -1214h-495l-849 1144v-1144h-407v2330h407v-1080z" />
    <glyph glyph-name="L" unicode="L" horiz-adv-x="1649" 
d="M663 2330v-1650q0 -78 5.5 -130t21.5 -95t41 -67t69.5 -40.5t101.5 -22.5t141 -6h585v-311q-344 -14 -576 -14q-279 0 -416 31q-238 53 -324 230q-56 115 -56 289v1786h407z" />
    <glyph glyph-name="M" unicode="M" horiz-adv-x="2812" 
d="M884 2106l518 -1303l523 1297q49 124 131.5 189t175.5 65q135 0 197.5 -69t69.5 -220l92 -2065h-392l-74 1783h-2l-492 -1299q-64 -169 -227 -169q-164 0 -229 169l-502 1296h-2l-75 -1780h-375l95 2067q7 150 69.5 218.5t197.5 68.5q93 0 172 -61.5t129 -186.5z" />
    <glyph glyph-name="N" unicode="N" horiz-adv-x="2341" 
d="M873 2094l842 -1588v1824h363v-2058q0 -296 -250 -296q-116 0 -200.5 60t-159.5 202l-841 1592v-1830h-363v2059q0 295 250 295q112 0 198.5 -60.5t160.5 -199.5z" />
    <glyph glyph-name="O" unicode="O" horiz-adv-x="2245" 
d="M2045 1165q0 -217 -18.5 -381.5t-61 -301t-112 -229t-172.5 -156t-240.5 -92.5t-317.5 -29t-317.5 29t-241 92.5t-172.5 156t-112 229t-61.5 301t-18.5 381.5t18.5 381.5t61.5 301t112 229t172.5 156t241 92.5t317.5 29t317.5 -29t240.5 -92.5t172.5 -156t112 -229
t61 -301t18.5 -381.5zM614 1165q0 -317 23 -454q37 -227 164 -321q114 -84 322 -84q282 0 397 161q88 122 106 386q7 105 7 312q0 317 -23 455q-38 227 -165 321q-115 84 -322 84q-282 0 -397 -161q-87 -122 -105 -386q-7 -105 -7 -313z" />
    <glyph glyph-name="P" unicode="P" horiz-adv-x="2037" 
d="M670 899v-899h-406v2293q336 61 744 61q118 0 213.5 -7.5t194 -27.5t173.5 -54t142 -89.5t110.5 -131t68.5 -181t25 -236.5q0 -128 -22.5 -232t-63 -180.5t-103 -134t-135.5 -94t-167.5 -59t-192 -31.5t-216.5 -9q-153 0 -365 12zM670 2018v-802q120 -15 338 -15
q133 0 225 19t162 66t103.5 131.5t33.5 209.5q0 152 -48 240.5t-159.5 131t-304.5 42.5q-177 0 -350 -23z" />
    <glyph glyph-name="Q" unicode="Q" horiz-adv-x="2245" 
d="M1123 -24q-180 0 -317.5 29t-241 92.5t-172.5 156t-112 229t-61.5 301t-18.5 381.5t18.5 381.5t61.5 301t112 229t172.5 156t241 92.5t317.5 29t317.5 -29t240.5 -92.5t172.5 -156t112 -229t61 -301t18.5 -381.5q0 -257 -26.5 -442.5t-87.5 -329.5t-163.5 -233.5
t-252.5 -135.5q72 -108 163 -173.5t263 -153.5l-260 -186q-171 83 -211 106q-210 118 -307 281q-22 37 -40 78zM1123 306q282 0 397 161q88 122 106 386q7 105 7 312q0 317 -23 455q-38 227 -165 321q-115 84 -322 84q-282 0 -397 -161q-87 -122 -105 -386q-7 -105 -7 -313
q0 -317 23 -454q37 -227 164 -321q114 -84 322 -84z" />
    <glyph glyph-name="R" unicode="R" horiz-adv-x="2126" 
d="M670 917v-917h-406v2293q336 61 744 61q117 0 211.5 -7t193 -27t173.5 -53.5t143 -88.5t111.5 -129t69 -178.5t25.5 -234.5q0 -156 -33.5 -275.5t-99 -201t-151.5 -132.5t-201 -80l545 -947h-473l-495 905q-151 0 -357 12zM670 2020v-784q120 -15 338 -15
q130 0 221.5 18.5t162.5 64t105.5 128.5t34.5 205q0 220 -115.5 313t-396.5 93q-177 0 -350 -23z" />
    <glyph glyph-name="S" unicode="S" horiz-adv-x="1826" 
d="M811 315q85 0 148 8t121 29.5t94.5 58t58 96t21.5 141.5q0 51 -11.5 94t-30 74t-49 58t-60.5 45t-73.5 35.5t-80 29l-85.5 26.5q-25 7 -37 11q-99 30 -169 55t-144 59t-123.5 70t-95.5 85.5t-72 108.5t-41.5 135t-15.5 169q0 146 35.5 256.5t101.5 185.5t168 121.5
t228 67t289 20.5q321 0 643 -66l-36 -313q-309 46 -497 46q-41 0 -70.5 -0.5t-75 -3.5t-79 -8t-75.5 -14.5t-72 -23.5t-61 -35t-50 -47.5t-31 -63t-12 -79.5q0 -168 101 -249q68 -54 234 -100q26 -8 84 -23q31 -9 47 -13q133 -36 229.5 -76t176.5 -97t129 -130t75 -172
t26 -226q0 -186 -56 -318.5t-167 -212.5t-266 -116.5t-364 -36.5q-332 0 -650 66l39 322q343 -49 601 -49z" />
    <glyph glyph-name="T" unicode="T" horiz-adv-x="1715" 
d="M61 2330h1592v-323h-593v-2007h-408v2007h-591v323z" />
    <glyph glyph-name="U" unicode="U" horiz-adv-x="2224" 
d="M647 2330v-1582q0 -234 105 -335t358 -101t358 101t105 335v1582h401v-1556q0 -156 -27 -278.5t-81 -209.5t-127 -147.5t-173 -96t-210 -51t-246 -15.5t-246 15.5t-210 51t-173 96t-127 147.5t-81 209.5t-27 278.5v1556h401z" />
    <glyph glyph-name="V" unicode="V" horiz-adv-x="2129" 
d="M493 2330l577 -1900l583 1900h415l-677 -2074q-48 -148 -127.5 -214t-197.5 -66q-119 0 -198 66t-128 214l-679 2074h432z" />
    <glyph glyph-name="W" unicode="W" horiz-adv-x="2990" 
d="M523 2330l356 -1886h2l334 1348q36 144 107 208.5t183 64.5q111 0 182 -64.5t106 -209.5l325 -1345h2l360 1884h397l-441 -2063q-62 -291 -299 -291q-118 0 -194.5 70t-114.5 220l-333 1338l-330 -1338q-37 -150 -113.5 -220t-194.5 -70t-193 70t-107 220l-443 2064h409z
" />
    <glyph glyph-name="X" unicode="X" horiz-adv-x="2161" 
d="M1300 1199l765 -1199h-468l-534 857l-521 -857h-447l756 1186l-728 1144h463l497 -809l501 809h437z" />
    <glyph glyph-name="Y" unicode="Y" horiz-adv-x="1980" 
d="M1191 900v-900h-407v900l-748 1430h436l519 -1037l533 1037h419z" />
    <glyph glyph-name="Z" unicode="Z" horiz-adv-x="1882" 
d="M661 331h1060v-331h-1356q-110 0 -169 39t-59 112q0 69 55 161l1019 1689h-1003v329h1296q111 0 168.5 -39.5t57.5 -111.5q0 -69 -55 -161z" />
    <glyph glyph-name="bracketleft" unicode="[" horiz-adv-x="1049" 
d="M947 2124h-335v-2380h333v-288h-685v2952h687v-284z" />
    <glyph glyph-name="backslash" unicode="\" horiz-adv-x="1478" 
d="M110 2412h335l945 -2680h-334z" />
    <glyph glyph-name="bracketright" unicode="]" horiz-adv-x="1049" 
d="M104 -256h333v2380h-335v284h687v-2952h-685v288z" />
    <glyph glyph-name="asciicircum" unicode="^" horiz-adv-x="1707" 
d="M477 1017h-356l574 1313h318l573 -1313h-356l-376 873z" />
    <glyph glyph-name="underscore" unicode="_" horiz-adv-x="1670" 
d="M1680 -470h-1690v167h1690v-167z" />
    <glyph glyph-name="grave" unicode="`" horiz-adv-x="842" 
d="M753 1880h-294l-433 527h415z" />
    <glyph glyph-name="a" unicode="a" horiz-adv-x="1863" 
d="M824 -24q-354 0 -512.5 137t-158.5 418q0 241 114 380.5t365 177.5q189 29 631 47q0 189 -89.5 280t-289.5 91q-263 0 -619 -45l-31 278q390 65 686 65q125 0 225.5 -14.5t194.5 -52.5t157 -100t100.5 -162t37.5 -232v-785q0 -165 -15 -327q-277 -156 -796 -156z
M1263 560v328q-11 0 -66.5 -2t-74.5 -3l-67.5 -3.5t-75.5 -5t-66.5 -7t-71.5 -10t-62 -12.5q-144 -33 -197.5 -95t-53.5 -213q0 -82 22 -137t69 -85.5t109 -42.5t152 -12q241 0 372 61q11 99 11 239z" />
    <glyph glyph-name="b" unicode="b" horiz-adv-x="1932" 
d="M241 459v2010h379v-713q198 49 389 49q167 0 290 -29.5t218 -94.5t153 -172t87.5 -259t29.5 -359q0 -262 -46.5 -437.5t-150.5 -282t-256 -151t-378 -44.5q-189 0 -374 38t-326 118q-15 162 -15 327zM620 567q0 -140 11 -239q55 -29 145 -44.5t180 -15.5q70 0 127.5 11
t100.5 29t77 49t57 62.5t39 77.5t25 86.5t14 97.5t6.5 102t1.5 108q0 227 -21 325q-36 168 -162 236q-108 59 -301 59q-153 0 -300 -50v-894z" />
    <glyph glyph-name="c" unicode="c" horiz-adv-x="1578" 
d="M1420 1743l-30 -281q-203 37 -309 37q-72 0 -128.5 -4t-105 -13.5t-84.5 -22.5t-65.5 -35.5t-49.5 -46.5t-35 -61.5t-23.5 -75.5t-14 -93.5t-7 -109.5t-1.5 -129q0 -250 22 -350q32 -142 134 -203q112 -67 360 -67q107 0 306 39l34 -289q-267 -62 -553 -62
q-124 0 -225 27t-171.5 72.5t-123.5 115.5t-85 146.5t-51 175t-26 191t-7 204.5q0 131 9.5 233.5t32.5 198.5t62.5 166.5t99.5 129t142 94.5t192 55.5t249 19.5q239 0 452 -62z" />
    <glyph glyph-name="d" unicode="d" horiz-adv-x="1935" 
d="M1313 1756v713h379v-2010q0 -165 -15 -327q-141 -80 -326 -118t-374 -38q-226 0 -378 44.5t-256 151t-150.5 282t-46.5 437.5q0 207 29.5 359t87.5 259t153 172t218 94.5t290 29.5q191 0 389 -49zM1313 1461q-147 50 -300 50q-289 0 -395 -138q-73 -94 -85 -295
q-4 -64 -4 -187q0 -63 1.5 -108t6.5 -102t14 -97.5t25 -86.5t39 -77.5t57 -62.5t77 -49t100.5 -29t127.5 -11q90 0 180 15.5t145 44.5q11 99 11 239v894z" />
    <glyph glyph-name="e" unicode="e" horiz-adv-x="1918" 
d="M867 715l-314 -14q6 -101 31 -175.5t64.5 -121.5t99 -75.5t126.5 -39.5t154 -11q273 0 639 46l32 -283q-405 -65 -769 -65q-175 0 -307.5 45.5t-216.5 124t-136.5 196.5t-73 250.5t-20.5 298.5q0 248 40.5 416.5t134 282t244.5 164.5t374 51q136 0 245 -20.5t189.5 -58
t140.5 -96.5t98.5 -128.5t62 -161.5t33 -188.5t9.5 -215.5q0 -76 -5 -132q-150 -27 -418.5 -54t-456.5 -35zM543 960l358 17q255 12 460 40q4 31 4 83q0 212 -90.5 315.5t-305.5 103.5q-79 0 -141.5 -14.5t-107 -39.5t-76.5 -65t-51.5 -84t-30.5 -104.5t-15 -118.5t-4 -133z
" />
    <glyph glyph-name="f" unicode="f" horiz-adv-x="1210" 
d="M75 1781h301v171q0 262 139.5 401.5t415.5 139.5q121 0 234 -17l-28 -265h-131q-118 0 -184 -62.5t-66 -186.5v-181h377v-282h-377v-1499h-380v1499h-301v282z" />
    <glyph glyph-name="g" unicode="g" horiz-adv-x="1953" 
d="M1336 65q-198 -49 -389 -49q-206 0 -347.5 44.5t-240.5 148.5t-144.5 276t-45.5 425q0 205 32 355.5t94.5 254.5t164 167t232.5 90.5t308 27.5q189 0 374 -38t326 -118q15 -162 15 -327v-1441q0 -132 -37.5 -232t-100.5 -162t-157 -100t-194.5 -52.5t-225.5 -14.5
q-311 0 -718 70l31 278q350 -50 644 -50q200 0 289.5 91t89.5 280v76zM1336 360v854q0 140 -11 239q-55 29 -145 44.5t-180 15.5q-87 0 -155.5 -17.5t-115 -45.5t-80 -75t-52 -93.5t-29 -113.5t-13.5 -123.5t-3 -134.5q0 -226 26 -328q42 -162 179 -224q105 -48 279 -48
q153 0 300 50z" />
    <glyph glyph-name="h" unicode="h" horiz-adv-x="1953" 
d="M1760 1142v-1142h-380v1097q0 77 -5.5 129.5t-21.5 101t-45 78.5t-75.5 53t-113 32.5t-158.5 9.5q-180 0 -336 -70v-1431h-380v2469h380v-731q212 67 440 67q132 0 236.5 -18t176.5 -48t124.5 -79t82.5 -101t47 -124.5t22.5 -138.5t5.5 -154z" />
    <glyph glyph-name="i" unicode="i" horiz-adv-x="866" 
d="M663 2262q0 -132 -48.5 -181.5t-182.5 -49.5q-133 0 -181.5 49.5t-48.5 181.5q0 131 49.5 181t180.5 50q132 0 181.5 -50t49.5 -181zM624 0h-382v1781h382v-1781z" />
    <glyph glyph-name="j" unicode="j" horiz-adv-x="875" 
d="M247 -66v1847h381v-1777q0 -367 -162 -525.5t-526 -158.5q-50 0 -90 4l30 281q60 6 99.5 13t86 21t76 36.5t55.5 56.5t38 85t12 117zM207 2262q0 131 49.5 181t180.5 50q132 0 181.5 -50t49.5 -181q0 -132 -48.5 -181.5t-182.5 -49.5q-133 0 -181.5 49.5t-48.5 181.5z
" />
    <glyph glyph-name="k" unicode="k" horiz-adv-x="1798" 
d="M1294 1781h432l-734 -830l774 -951h-461l-682 876v-876h-378v2469h378v-1476z" />
    <glyph glyph-name="l" unicode="l" horiz-adv-x="835" 
d="M204 461v2008h381v-1991q0 -123 30 -215.5t100 -184.5l-331 -157q-91 103 -135.5 231.5t-44.5 308.5z" />
    <glyph glyph-name="m" unicode="m" horiz-adv-x="2895" 
d="M1637 1142v-1142h-380v1101q0 106 -14.5 176.5t-53 124t-108 78t-176.5 24.5q-68 0 -146 -17t-127 -42q-11 -99 -11 -239v-1206h-379v1322q0 165 15 327q145 71 341.5 113.5t399.5 42.5q288 0 442 -112q277 112 574 112q117 0 210.5 -18.5t160 -49.5t115 -80t77.5 -102.5
t46.5 -124t23.5 -137.5t6 -151v-1142h-380v1101q0 106 -14.5 176.5t-53 124t-108 78t-176.5 24.5q-69 0 -156 -20t-157 -58q29 -115 29 -284z" />
    <glyph glyph-name="n" unicode="n" horiz-adv-x="1983" 
d="M1751 1142v-1142h-380v1101q0 77 -5.5 129t-21 101t-44 79t-74.5 53t-112.5 32.5t-157.5 9.5q-90 0 -180 -15.5t-145 -44.5q-11 -99 -11 -239v-1206h-379v1322q0 165 15 327q318 156 804 156q132 0 235.5 -18t175.5 -48t124 -79t81.5 -101t47 -124.5t22.5 -138.5t5 -154z
" />
    <glyph glyph-name="o" unicode="o" horiz-adv-x="1945" 
d="M1765 891q0 -250 -41.5 -420.5t-136.5 -282.5t-244.5 -162t-370.5 -50t-370 48.5t-244.5 159.5t-137 282t-41.5 425t41.5 424.5t137 281.5t244.5 159.5t370 48.5t370.5 -50t244.5 -162t136.5 -282t41.5 -420zM562 891q0 -152 12 -253.5t39 -174t76 -112t116 -56.5
t167 -17q124 0 201 28.5t125.5 102t67 187t18.5 295.5t-18.5 295.5t-67 186.5t-126 101.5t-200.5 28.5q-83 0 -142.5 -11t-107 -39t-76.5 -71.5t-49 -114t-27.5 -160.5t-7.5 -216z" />
    <glyph glyph-name="p" unicode="p" horiz-adv-x="1934" 
d="M621 25v-681h-379v1978q0 165 15 327q141 80 326 118t374 38q226 0 378 -44.5t256 -151t150.5 -282t46.5 -437.5q0 -207 -29.5 -359t-87.5 -259t-153 -172t-218 -94.5t-290 -29.5q-191 0 -389 49zM621 320q147 -50 300 -50q289 0 395 138q73 94 85 295q4 64 4 187
q0 63 -1.5 108t-6.5 102t-14 97.5t-25 86.5t-39 77.5t-57 62.5t-77 49t-100.5 29t-127.5 11q-90 0 -180 -15.5t-145 -44.5q-11 -99 -11 -239v-894z" />
    <glyph glyph-name="q" unicode="q" horiz-adv-x="1934" 
d="M1693 1322v-1978h-379v681q-198 -49 -389 -49q-167 0 -290 29.5t-218 94.5t-153 172t-87.5 259t-29.5 359q0 262 46.5 437.5t150.5 282t256 151t378 44.5q189 0 374 -38t326 -118q15 -162 15 -327zM1314 1214q0 140 -11 239q-55 29 -145 44.5t-180 15.5q-70 0 -127.5 -11
t-100.5 -29t-77 -49t-57 -62.5t-39 -77.5t-25 -86.5t-14 -97.5t-6.5 -102t-1.5 -108q0 -227 21 -325q36 -168 162 -236q108 -59 301 -59q153 0 300 50v894z" />
    <glyph glyph-name="r" unicode="r" horiz-adv-x="1182" 
d="M618 1204v-1204h-379v1322q0 165 15 327q141 80 326 118t374 38q93 0 166 -7l-30 -302q-56 7 -136 7q-90 0 -180 -15.5t-145 -44.5q-11 -99 -11 -239z" />
    <glyph glyph-name="s" unicode="s" horiz-adv-x="1628" 
d="M676 282q168 0 246 20q167 43 167 185q0 37 -9 68t-22 53t-36.5 41t-44 31t-54.5 24.5t-58 19l-63 17.5l-62 18q-199 61 -276 96q-174 81 -238 218q-44 96 -44 229q0 114 32 202t87 144.5t136 92t171.5 50t201.5 14.5q181 0 325.5 -16t307.5 -53l-36 -279
q-257 48 -445 48q-38 0 -59.5 -0.5t-63 -2.5t-68.5 -7t-63 -13t-59 -21.5t-45 -32t-32.5 -45.5t-10.5 -60q0 -39 11.5 -71t35.5 -56t48.5 -41.5t64 -33.5t67 -25l71.5 -22.5l66 -20.5q198 -67 247 -88q161 -69 230 -173q73 -110 73 -291q0 -120 -35.5 -212t-96 -150.5
t-150.5 -95.5t-189.5 -52t-222.5 -15q-333 0 -615 70l36 285q269 -49 474 -49z" />
    <glyph glyph-name="t" unicode="t" horiz-adv-x="1248" 
d="M1129 274l29 -272q-154 -26 -269 -26q-268 0 -391 118.5t-123 367.5v1037h-301v282h301v441l381 62v-503h370v-282h-370v-1005q0 -126 55.5 -175.5t182.5 -49.5q60 0 135 5z" />
    <glyph glyph-name="u" unicode="u" horiz-adv-x="1975" 
d="M1355 575v1206h379v-1322q0 -165 -15 -327q-318 -156 -801 -156q-103 0 -188.5 11t-150.5 29.5t-117 49.5t-88 64.5t-62.5 80t-42 91.5t-24.5 104.5t-12 112t-3 120.5v1142h380v-1101q0 -77 5.5 -129t21 -101t43.5 -79t74 -53t111.5 -32.5t156.5 -9.5q89 0 178 15.5
t144 44.5q11 99 11 239z" />
    <glyph glyph-name="v" unicode="v" horiz-adv-x="1884" 
d="M481 1781l469 -1421l471 1421h385l-558 -1560q-87 -245 -307 -245q-110 0 -185.5 59.5t-120.5 185.5l-556 1560h402z" />
    <glyph glyph-name="w" unicode="w" horiz-adv-x="2752" 
d="M1949 368l318 1413h374l-400 -1556q-64 -249 -280 -249q-107 0 -177 61t-109 188l-299 972l-298 -971q-39 -127 -109.5 -188.5t-177.5 -61.5q-218 0 -283 251l-397 1554h388l315 -1417l309 1043q35 119 99 176t162 57t162 -57t99 -176z" />
    <glyph glyph-name="x" unicode="x" horiz-adv-x="1927" 
d="M1173 929l647 -929h-444l-430 641l-423 -641h-416l643 921l-596 860h435l388 -581l386 581h405z" />
    <glyph glyph-name="y" unicode="y" horiz-adv-x="1792" 
d="M468 1781l489 -1190l381 1190h385l-829 -2437h-385l276 776l-719 1661h402z" />
    <glyph glyph-name="z" unicode="z" horiz-adv-x="1830" 
d="M703 305h895v-305h-1281q-71 0 -112 32.5t-41 87.5q0 63 53 136l901 1234h-882v291h1263q70 0 111.5 -32.5t41.5 -87.5q0 -62 -53 -134z" />
    <glyph glyph-name="braceleft" unicode="{" horiz-adv-x="1052" 
d="M107 805v257q51 5 89.5 24t66 57.5t45.5 90.5t28.5 130.5t14.5 168.5t4 214q0 144 25.5 250.5t71.5 177t121 116t162.5 67.5t207.5 32l30 -254q-54 -7 -96 -23t-71 -37t-49.5 -54t-32 -65t-18 -78.5t-8 -85.5t-1.5 -95v-171v-73.5t-2 -74.5t-5.5 -79.5t-11 -75t-18.5 -75
t-27.5 -66.5t-38 -62t-51 -49t-65.5 -39q49 -25 86.5 -64.5t60.5 -90.5t38.5 -102.5t22 -115t9 -112t2.5 -109.5v-171q0 -66 2.5 -110.5t11.5 -96.5t27.5 -86.5t48.5 -66.5t76.5 -50.5t109.5 -26.5l-30 -255q-120 10 -207.5 32t-162.5 67.5t-121 116t-71.5 177.5t-25.5 251
q0 124 -4 214t-14.5 168.5t-28.5 130t-45.5 90t-66 58t-89.5 24.5z" />
    <glyph glyph-name="bar" unicode="|" horiz-adv-x="840" 
d="M581 -656h-322v3125h322v-3125z" />
    <glyph glyph-name="braceright" unicode="}" horiz-adv-x="1052" 
d="M355 1527v171q0 56 -1.5 95t-8 85.5t-18 78.5t-32 65t-49.5 54t-71 37t-96 23l30 254q120 -10 207.5 -32t162.5 -67.5t121 -116t71.5 -177t25.5 -250.5q0 -124 4 -214t14.5 -168.5t28.5 -130.5t45.5 -90.5t66 -57.5t89.5 -24v-257q-51 -5 -89.5 -24.5t-66 -58t-45.5 -90
t-28.5 -130t-14.5 -168.5t-4 -214q0 -144 -25.5 -251t-71.5 -177.5t-121 -116t-162.5 -67.5t-207.5 -32l-30 255q63 8 109.5 26.5t76.5 50.5t48.5 66.5t27.5 86.5t11.5 96.5t2.5 110.5v171q0 61 2.5 109.5t9 112t22 115t38.5 102.5t60.5 90.5t86.5 64.5q-36 15 -65.5 39
t-51 49t-38 62t-27.5 66.5t-18.5 75t-11 75t-5.5 79.5t-2 74.5v73.5z" />
    <glyph glyph-name="asciitilde" unicode="~" horiz-adv-x="2067" 
d="M1556 1367h333q-27 -305 -158 -465.5t-318 -160.5q-111 0 -203.5 30t-154 72.5t-114.5 84.5t-110 72t-116 30q-80 0 -129.5 -67.5t-73.5 -208.5h-334q27 305 158 465.5t318 160.5q93 0 174.5 -21.5t135.5 -53.5t107 -69.5t92.5 -69.5t89 -53.5t99.5 -21.5
q79 0 128.5 67.5t75.5 208.5z" />
    <glyph glyph-name="uni00A0" unicode="&#xa0;" horiz-adv-x="875" 
 />
    <glyph glyph-name="exclamdown" unicode="&#xa1;" horiz-adv-x="911" 
d="M686 1552q0 -131 -49.5 -181t-180.5 -50q-132 0 -181.5 50t-49.5 181q0 132 48.5 181.5t182.5 49.5q133 0 181.5 -49.5t48.5 -181.5zM683 -571h-454l65 1651h324z" />
    <glyph glyph-name="cent" unicode="&#xa2;" horiz-adv-x="1442" 
d="M1315 584l33 -280q-195 -45 -392 -57v-305h-256v307q-100 11 -180.5 44t-138 80.5t-100 115t-68.5 138.5t-42 161t-21.5 174t-5.5 185q0 131 9.5 233t33 196t65 163.5t102 125t147 90t199.5 50.5v313h256v-301q201 -5 389 -60l-29 -272q-203 36 -299 36q-87 0 -152 -5.5
t-117.5 -21.5t-88.5 -36t-62 -56.5t-41 -75t-24 -101t-11.5 -124.5t-2.5 -154q0 -243 22 -341q31 -138 132 -197q109 -63 347 -63q108 0 296 38z" />
    <glyph glyph-name="sterling" unicode="&#xa3;" horiz-adv-x="1972" 
d="M467 995h-329v293h286q-24 183 -24 366q0 147 42.5 258.5t114 181t177 113.5t220 60.5t254.5 16.5q92 0 170 -13.5t133.5 -34t114 -59t97.5 -71.5t98 -89l-199 -235q-102 87 -193 130t-209 43q-123 0 -204.5 -22t-128.5 -70.5t-66.5 -116.5t-19.5 -169q0 -106 22 -289
h501v-293h-470q7 -105 7 -189q0 -96 -31.5 -229.5t-75.5 -243.5h454q301 0 552 39l35 -307q-114 -28 -326 -46.5t-436 -18.5h-537q-100 0 -149.5 42.5t-49.5 110.5q0 33 19 80t46.5 101.5t55 118t46.5 149.5t19 177q0 88 -16 216z" />
    <glyph glyph-name="currency" unicode="&#xa4;" horiz-adv-x="2112" 
d="M1472 1757l242 242l228 -223l-246 -239q129 -192 129 -423q0 -227 -129 -413l246 -236l-228 -228l-242 246q-193 -124 -417 -124q-231 0 -420 124l-243 -246l-223 228l245 238q-123 189 -123 411q0 229 125 419l-247 243l223 224l246 -246q190 124 417 124
q228 0 417 -121zM619 1115q0 -117 56.5 -217t157.5 -160.5t222 -60.5q114 0 215 57t163 158.5t62 222.5q0 120 -57.5 222t-159.5 162.5t-223 60.5q-178 0 -307 -129.5t-129 -315.5z" />
    <glyph glyph-name="yen" unicode="&#xa5;" horiz-adv-x="1849" 
d="M92 2260h403l431 -986l444 986h387l-483 -1051h250v-246h-363l-41 -90v-123h404v-243h-404v-507h-395v507h-399v243h399v123l-41 90h-358v246h245z" />
    <glyph glyph-name="brokenbar" unicode="&#xa6;" horiz-adv-x="774" 
d="M548 -471h-322v1076h322v-1076zM548 1209h-322v1075h322v-1075z" />
    <glyph glyph-name="section" unicode="&#xa7;" horiz-adv-x="1838" 
d="M777 386q-226 91 -329 153q-232 140 -287 345q-19 71 -19 151q0 142 75.5 254t203.5 193q-138 143 -138 321q0 246 180.5 398.5t495.5 152.5q181 0 325.5 -16t307.5 -53l-36 -279q-276 52 -541 52q-170 0 -262.5 -59t-92.5 -171q0 -35 13.5 -68t33 -59t55 -53t67 -46.5
t81.5 -43t85.5 -38.5l91.5 -38q58 -23 96 -39.5l94.5 -43t95 -49t86.5 -55t80.5 -64t66 -73.5t53 -85.5t32 -97t12.5 -112.5q0 -136 -76.5 -247.5t-209.5 -191.5q162 -152 162 -357q0 -123 -46 -220.5t-120 -158.5t-176 -100.5t-205.5 -55.5t-216.5 -16q-181 0 -325.5 16
t-307.5 53l37 286q277 -52 540 -52q176 0 260 23q176 49 176 208q0 28 -8 53.5t-18.5 46t-33.5 42.5t-41 37.5t-52.5 35l-57 31.5t-66.5 31l-68 29zM658 1317q-172 -93 -172 -252q0 -96 63 -172.5t219 -149.5q62 -29 198 -76.5t205 -80.5q179 99 179 246q0 100 -73.5 176.5
t-248.5 156.5q-50 23 -176 70t-194 82z" />
    <glyph glyph-name="dieresis" unicode="&#xa8;" horiz-adv-x="1423" 
d="M580 2120q0 -85 -55.5 -142t-139.5 -57q-85 0 -144.5 57.5t-59.5 141.5t59.5 142t144.5 58q84 0 139.5 -57.5t55.5 -142.5zM1241 2120q0 -85 -56 -142t-141 -57t-143 57t-58 142t58 142.5t143 57.5q84 0 140.5 -57.5t56.5 -142.5z" />
    <glyph glyph-name="copyright" unicode="&#xa9;" horiz-adv-x="2683" 
d="M1925 1418h-260q-18 115 -101 177.5t-208 62.5q-151 0 -243.5 -131t-92.5 -358q0 -229 89 -356.5t247 -127.5q117 0 202.5 71.5t106.5 194.5h260q-21 -223 -183.5 -358t-385.5 -135q-151 0 -269.5 54.5t-193 151t-113 225t-38.5 280.5q0 108 24.5 210.5t76 192t123 156.5
t172 105.5t218.5 38.5q76 0 150 -17t144.5 -53.5t127 -88.5t96 -128t51.5 -167zM1342 2354q242 0 462 -93.5t379.5 -252t253.5 -378t94 -461.5t-94 -463t-253.5 -381t-379.5 -254.5t-462 -94.5t-462 94.5t-379.5 254.5t-253.5 381t-94 463t94 461.5t253.5 378t379.5 252
t462 93.5zM1342 2129q-264 0 -482 -126.5t-343.5 -347t-125.5 -486.5q0 -202 74 -381.5t200.5 -308t302.5 -203t374 -74.5t374 74.5t302.5 203t200.5 308t74 381.5q0 266 -125.5 486.5t-343.5 347t-482 126.5z" />
    <glyph glyph-name="ordfeminine" unicode="&#xaa;" horiz-adv-x="1400" 
d="M632 1052q-243 0 -352 93.5t-109 284.5q0 326 330 379q120 19 423 31q0 128 -59.5 189.5t-192.5 61.5q-181 0 -425 -31l-21 190q270 45 471 45q86 0 155 -10t133 -36t107.5 -68t69 -110t25.5 -158v-532q0 -117 -10 -221q-192 -108 -545 -108zM924 1449v222
q-240 -9 -322 -29q-95 -22 -130.5 -63.5t-35.5 -144.5q0 -108 56 -148t178 -40q159 0 250 42q4 96 4 161z" />
    <glyph glyph-name="guillemotleft" unicode="&#xab;" horiz-adv-x="1808" 
d="M89 862l485 685h368l-441 -685l441 -684h-368zM820 862l485 685h367l-439 -685l439 -684h-367z" />
    <glyph glyph-name="logicalnot" unicode="&#xac;" horiz-adv-x="2077" 
d="M1473 988h-1292v343h1655v-1031h-363v688z" />
    <glyph glyph-name="uni00AD" unicode="&#xad;" horiz-adv-x="1292" 
d="M1078 726h-864v319h864v-319z" />
    <glyph glyph-name="registered" unicode="&#xae;" horiz-adv-x="1725" 
d="M763 1238h-176v814h294q168 0 244.5 -61.5t76.5 -181.5q0 -83 -39 -140t-114 -81l171 -350h-197l-154 324h-106v-324zM140 1633q0 147 57 281t154 230t231 153t281 57t280.5 -57t230.5 -153t154 -230t57 -281t-57 -281.5t-154 -231.5t-230.5 -154.5t-280.5 -57.5
t-281 57.5t-231 154.5t-154 231.5t-57 281.5zM1419 1633q0 156 -73 285t-201 203t-282 74t-282 -74t-201.5 -203t-73.5 -285q0 -158 73.5 -288t201.5 -204t282 -74q235 0 395.5 163t160.5 403zM763 1907v-201h96q89 0 129.5 25t40.5 78q0 54 -41 76t-133 22h-92z" />
    <glyph glyph-name="macron" unicode="&#xaf;" horiz-adv-x="1443" 
d="M1218 1989h-994v249h994v-249z" />
    <glyph glyph-name="degree" unicode="&#xb0;" horiz-adv-x="1302" 
d="M1164 1841q0 -139 -69 -257.5t-187.5 -187t-257.5 -68.5q-104 0 -199 40.5t-164 109.5t-109.5 164t-40.5 199t40.5 199t109.5 164t164 109.5t199 40.5q139 0 257.5 -68.5t187.5 -187t69 -257.5zM364 1841q0 -120 83.5 -203t202.5 -83q120 0 203.5 83t83.5 203
q0 119 -83.5 202.5t-203.5 83.5q-119 0 -202.5 -83.5t-83.5 -202.5z" />
    <glyph glyph-name="plusminus" unicode="&#xb1;" horiz-adv-x="1979" 
d="M1170 1409h647v-341h-647v-548h-360v548h-648v341h648v543h360v-543zM1817 5h-1655v342h1655v-342z" />
    <glyph glyph-name="twosuperior" unicode="&#xb2;" horiz-adv-x="1163" 
d="M1053 1588v-228h-958q49 275 88 381q53 146 159 230q69 54 181 102q137 57 194.5 115t57.5 155q0 98 -66.5 130.5t-250.5 32.5q-113 0 -315 -30l-25 204q250 47 447 47q87 0 157.5 -9.5t133.5 -34t105.5 -63t67 -98.5t24.5 -139q0 -181 -100 -303t-299 -202
q-70 -28 -114.5 -56t-71 -64t-39.5 -74t-22 -96h646z" />
    <glyph glyph-name="threesuperior" unicode="&#xb3;" horiz-adv-x="1149" 
d="M519 2729q86 0 154 -7.5t136 -30.5t112.5 -60t72.5 -100.5t28 -148.5q0 -206 -175 -307q196 -90 196 -297q0 -121 -36 -206t-107 -133.5t-165 -69.5t-223 -21q-185 0 -422 46l29 206q240 -31 344 -31q160 0 226.5 39.5t66.5 159.5q0 162 -138 180q-104 13 -274 13h-45
v198q171 4 318 25q66 10 95 52.5t29 115.5q0 43 -12.5 73t-32 47t-53.5 26t-66 11.5t-81 2.5q-127 0 -366 -32l-27 204q238 45 416 45z" />
    <glyph glyph-name="acute" unicode="&#xb4;" horiz-adv-x="842" 
d="M383 1880h-294l312 527h415z" />
    <glyph glyph-name="mu" unicode="&#xb5;" horiz-adv-x="2109" 
d="M284 -656v2437h352v-1085q0 -181 88 -291.5t251 -110.5q112 0 196 51.5t135 147t76 222.5t25 287v779h354v-1101q0 -57 0.5 -83t2 -74t5.5 -71t11.5 -58.5t19 -55t28.5 -42.5t40 -37t53 -24v-259q-370 0 -461 347q-164 -347 -486 -347q-201 0 -339 148v-780h-351z" />
    <glyph glyph-name="paragraph" unicode="&#xb6;" horiz-adv-x="2129" 
d="M1559 2071h-383v-2584h-304v1456q-167 3 -312 58.5t-246 147t-158.5 215.5t-57.5 261q0 233 106 392.5t297.5 236t460.5 76.5h900v-2843h-303v2584z" />
    <glyph glyph-name="periodcentered" unicode="&#xb7;" horiz-adv-x="871" 
d="M435 724q-133 0 -181.5 49.5t-48.5 181.5q0 131 49.5 181t180.5 50q132 0 181.5 -50t49.5 -181q0 -132 -48.5 -181.5t-182.5 -49.5z" />
    <glyph glyph-name="cedilla" unicode="&#xb8;" horiz-adv-x="733" 
d="M516 0l-120 -188q105 -6 183 -70t78 -166q0 -75 -31.5 -132t-86 -89.5t-120.5 -48.5t-143 -16q-153 0 -271 70l60 159q108 -54 207 -54q55 0 93.5 23.5t38.5 73.5q0 38 -30.5 66.5t-77 42.5t-92 21t-86.5 7l179 301h219z" />
    <glyph glyph-name="onesuperior" unicode="&#xb9;" horiz-adv-x="780" 
d="M616 1363h-273v1086q-132 -32 -302 -53l-12 211q204 30 374 108h213v-1352z" />
    <glyph glyph-name="ordmasculine" unicode="&#xba;" horiz-adv-x="1439" 
d="M719 2295q298 0 421 -142.5t123 -478.5q0 -337 -123 -479.5t-421 -142.5q-299 0 -421 140.5t-122 481.5q0 340 122 480.5t421 140.5zM719 2088q-110 0 -167 -35t-81.5 -122.5t-24.5 -256.5q0 -170 24.5 -257.5t81.5 -122.5t167 -35q161 0 218 87t57 328q0 240 -57 327
t-218 87z" />
    <glyph glyph-name="guillemotright" unicode="&#xbb;" horiz-adv-x="1808" 
d="M575 862l-439 685h367l485 -685l-485 -684h-367zM1307 862l-441 685h368l485 -685l-485 -684h-368z" />
    <glyph glyph-name="onequarter" unicode="&#xbc;" horiz-adv-x="2500" 
d="M2207 512h168v-206h-168v-306h-272v306h-458q-100 0 -140.5 36t-40.5 103q0 78 95 202l464 599q53 68 101 94.5t109 26.5q63 0 102.5 -39.5t39.5 -115.5v-700zM687 2328v-1353h-273v1086q-151 -35 -302 -52l-12 210q211 32 374 109h213zM656 -48h-273l1368 2426h274z
M1936 980l-352 -468h352v468z" />
    <glyph glyph-name="onehalf" unicode="&#xbd;" horiz-adv-x="2788" 
d="M1993 228h645v-228h-957l24.5 132.5t23.5 112t27 100t31.5 83t39 74t48.5 61t62.5 56.5t76.5 48t95 46q137 58 194 115.5t57 154.5q0 99 -66 131t-250 32q-127 0 -316 -30l-25 204q252 47 447 47q88 0 158 -9.5t133 -33.5t105.5 -62.5t67 -99t24.5 -139.5
q0 -181 -99.5 -303t-299.5 -202q-70 -28 -114.5 -56t-71 -63.5t-39.5 -73.5t-21 -97zM693 975h-273v1086q-151 -35 -302 -52l-12 210q211 32 374 109h213v-1353zM2031 2378l-1368 -2426h-273l1367 2426h274z" />
    <glyph glyph-name="threequarters" unicode="&#xbe;" horiz-adv-x="2739" 
d="M2613 306h-168v-306h-271v306h-459q-100 0 -140.5 36t-40.5 103q0 80 95 202l465 599q52 68 100 94.5t109 26.5q63 0 102.5 -39.5t39.5 -115.5v-700h168v-206zM561 2342q86 0 154 -8t136 -30.5t112.5 -60t72.5 -101t28 -148.5q0 -205 -175 -306q196 -90 196 -297
q0 -122 -36 -206.5t-107 -133t-165 -69.5t-223 -21q-180 0 -422 45l29 207q240 -31 344 -31q160 0 226.5 39.5t66.5 159.5q0 162 -138 180q-104 13 -274 13h-45v198q171 4 318 25q66 10 95 52.5t29 115.5q0 43 -12.5 73t-31.5 46.5t-53.5 25.5t-66.5 11.5t-81 2.5
q-134 0 -366 -31l-27 203q234 46 416 46zM624 -48l1367 2426h274l-1368 -2426h-273zM1822 512h352v468z" />
    <glyph glyph-name="questiondown" unicode="&#xbf;" horiz-adv-x="1736" 
d="M1188 1080l8 -215q3 -57 3 -82q0 -90 -23 -153t-61.5 -96t-89 -52.5t-106 -29l-111 -19t-106 -29.5t-89 -54t-61.5 -98.5t-23 -156.5q0 -107 21.5 -173t80 -108t151.5 -57.5t245 -15.5q289 0 542 49l67 -312q-324 -73 -666 -73q-119 0 -210 6.5t-184 25t-160 50
t-127.5 83.5t-97.5 124t-58.5 172.5t-21.5 227.5q0 362 208 502q87 59 254 99q135 32 171 46q92 36 105 110q3 11 3 24l8 205h328zM1254 1552q0 -131 -49.5 -181t-180.5 -50q-132 0 -181.5 50t-49.5 181q0 132 48.5 181.5t182.5 49.5q133 0 181.5 -49.5t48.5 -181.5z" />
    <glyph glyph-name="Agrave" unicode="&#xc0;" horiz-adv-x="2227" 
d="M482 0h-418l706 2076q95 278 350 278t348 -278l695 -2076h-432l-197 619h-858zM1285 2563h-314l-464 427h444zM772 926h665l-335 1054z" />
    <glyph glyph-name="Aacute" unicode="&#xc1;" horiz-adv-x="2227" 
d="M482 0h-418l706 2076q95 278 350 278t348 -278l695 -2076h-432l-197 619h-858zM1268 2543h-315l334 427h444zM772 926h665l-335 1054z" />
    <glyph glyph-name="Acircumflex" unicode="&#xc2;" horiz-adv-x="2227" 
d="M482 0h-418l706 2076q95 278 350 278t348 -278l695 -2076h-432l-197 619h-858zM898 2543h-310l393 427h258l401 -427h-314l-211 247zM772 926h665l-335 1054z" />
    <glyph glyph-name="Atilde" unicode="&#xc3;" horiz-adv-x="2227" 
d="M1361 2944h209q-7 -93 -33.5 -168t-65 -120.5t-84.5 -69.5t-95 -24q-56 0 -101.5 17.5t-74 43t-52 50.5t-47.5 42.5t-49 17.5q-78 0 -102 -163h-209q13 182 93.5 282t184.5 100q56 0 101.5 -17.5t74 -43t52 -50.5t47.5 -42.5t49 -17.5q39 0 64 39t38 124zM64 0l706 2076
q95 278 350 278t348 -278l695 -2076h-432l-197 619h-858l-194 -619h-418zM1437 926l-335 1054l-330 -1054h665z" />
    <glyph glyph-name="Adieresis" unicode="&#xc4;" horiz-adv-x="2227" 
d="M482 0h-418l706 2076q95 278 350 278t348 -278l695 -2076h-432l-197 619h-858zM983 2751q0 -85 -55.5 -142t-139.5 -57q-85 0 -144.5 57.5t-59.5 141.5t59.5 142t144.5 58q84 0 139.5 -57.5t55.5 -142.5zM1644 2751q0 -85 -56 -142t-141 -57t-143 57t-58 142t58 142.5
t143 57.5q84 0 140.5 -57.5t56.5 -142.5zM772 926h665l-335 1054z" />
    <glyph glyph-name="Aring" unicode="&#xc5;" horiz-adv-x="2227" 
d="M482 0h-418l706 2076q95 278 350 278t348 -278l695 -2076h-432l-197 619h-858zM1459 2856q0 -142 -101 -243t-244 -101t-244 101t-101 243q0 143 101 244t244 101t244 -101t101 -244zM933 2856q0 -75 53 -127.5t128 -52.5t128 52.5t53 127.5t-53 128t-128 53t-128 -53
t-53 -128zM772 926h665l-335 1054z" />
    <glyph glyph-name="AE" unicode="&#xc6;" horiz-adv-x="3043" 
d="M482 0h-418l698 2029q27 79 69.5 137t92 93.5t115.5 57t131 29.5t147 8q202 0 346 -103q100 53 234 69t333 16q275 0 615 -16v-309h-625q-84 0 -141 -6t-101.5 -22.5t-69.5 -40.5t-41 -67t-21.5 -95t-5.5 -130v-306h960v-317h-960v-347q0 -78 5.5 -130t21.5 -95t41 -67
t69.5 -40.5t101.5 -22.5t141 -6h625v-309q-340 -16 -615 -16q-279 0 -416 31q-238 53 -324 230q-56 115 -56 289v75h-756zM1061 1829l-286 -903h659v875q0 117 -40 169.5t-123 52.5q-79 0 -128.5 -47t-81.5 -147z" />
    <glyph glyph-name="Ccedilla" unicode="&#xc7;" horiz-adv-x="1861" 
d="M735 -624l60 159q108 -54 207 -54q55 0 93.5 23.5t38.5 73.5q0 38 -30.5 66.5t-77 42.5t-92 21t-86.5 7l158 266q-139 9 -249 39t-195.5 79t-147.5 123.5t-105 165.5t-68.5 212.5t-36.5 257.5t-11 307q0 184 13 327.5t42.5 270t79.5 218.5t123 165t173.5 117.5
t230.5 67.5t294 23q326 0 585 -64l-36 -309q-240 38 -458 38q-356 0 -498 -166q-101 -117 -124 -359q-9 -103 -9 -329q0 -285 19 -408q34 -224 161 -327q146 -119 451 -119q218 0 458 38l36 -309q-227 -56 -513 -63l-95 -149q105 -6 183 -70t78 -166q0 -75 -31.5 -132
t-86 -89.5t-120.5 -48.5t-143 -16q-153 0 -271 70z" />
    <glyph glyph-name="Egrave" unicode="&#xc8;" horiz-adv-x="1859" 
d="M1661 2011h-625q-84 0 -141 -6t-101.5 -22.5t-69.5 -40.5t-41 -67t-21.5 -95t-5.5 -130v-306h960v-317h-960v-347q0 -78 5.5 -130t21.5 -95t41 -67t69.5 -40.5t101.5 -22.5t141 -6h625v-309q-340 -16 -615 -16q-279 0 -416 31q-238 53 -324 230q-56 115 -56 289v1242
q0 333 212 456q138 81 415 91q66 3 169 3q275 0 615 -16v-309zM1316 2525h-314l-464 427h444z" />
    <glyph glyph-name="Eacute" unicode="&#xc9;" horiz-adv-x="1859" 
d="M1661 2011h-625q-84 0 -141 -6t-101.5 -22.5t-69.5 -40.5t-41 -67t-21.5 -95t-5.5 -130v-306h960v-317h-960v-347q0 -78 5.5 -130t21.5 -95t41 -67t69.5 -40.5t101.5 -22.5t141 -6h625v-309q-340 -16 -615 -16q-279 0 -416 31q-238 53 -324 230q-56 115 -56 289v1242
q0 333 212 456q138 81 415 91q66 3 169 3q275 0 615 -16v-309zM1087 2525h-315l334 427h444z" />
    <glyph glyph-name="Ecircumflex" unicode="&#xca;" horiz-adv-x="1859" 
d="M1661 2011h-625q-84 0 -141 -6t-101.5 -22.5t-69.5 -40.5t-41 -67t-21.5 -95t-5.5 -130v-306h960v-317h-960v-347q0 -78 5.5 -130t21.5 -95t41 -67t69.5 -40.5t101.5 -22.5t141 -6h625v-309q-340 -16 -615 -16q-279 0 -416 31q-238 53 -324 230q-56 115 -56 289v1242
q0 333 212 456q138 81 415 91q66 3 169 3q275 0 615 -16v-309zM790 2525h-310l393 427h258l401 -427h-314l-211 247z" />
    <glyph glyph-name="Edieresis" unicode="&#xcb;" horiz-adv-x="1859" 
d="M1661 2011h-625q-84 0 -141 -6t-101.5 -22.5t-69.5 -40.5t-41 -67t-21.5 -95t-5.5 -130v-306h960v-317h-960v-347q0 -78 5.5 -130t21.5 -95t41 -67t69.5 -40.5t101.5 -22.5t141 -6h625v-309q-340 -16 -615 -16q-279 0 -416 31q-238 53 -324 230q-56 115 -56 289v1242
q0 333 212 456q138 81 415 91q66 3 169 3q275 0 615 -16v-309zM877 2735q0 -85 -55.5 -142t-139.5 -57q-85 0 -144.5 57.5t-59.5 141.5t59.5 142t144.5 58q84 0 139.5 -57.5t55.5 -142.5zM1538 2735q0 -85 -56 -142t-141 -57t-143 57t-58 142t58 142.5t143 57.5
q84 0 140.5 -57.5t56.5 -142.5z" />
    <glyph glyph-name="Igrave" unicode="&#xcc;" horiz-adv-x="928" 
d="M638 2533h-314l-464 427h444zM668 0h-408v2330h408v-2330z" />
    <glyph glyph-name="Iacute" unicode="&#xcd;" horiz-adv-x="928" 
d="M668 0h-408v2330h408v-2330zM604 2533h-315l334 427h444z" />
    <glyph glyph-name="Icircumflex" unicode="&#xce;" horiz-adv-x="928" 
d="M248 2517h-310l393 427h258l401 -427h-314l-211 247zM668 0h-408v2330h408v-2330z" />
    <glyph glyph-name="Idieresis" unicode="&#xcf;" horiz-adv-x="928" 
d="M333 2728q0 -85 -55.5 -142t-139.5 -57q-85 0 -144.5 57.5t-59.5 141.5t59.5 142t144.5 58q84 0 139.5 -57.5t55.5 -142.5zM994 2728q0 -85 -56 -142t-141 -57t-143 57t-58 142t58 142.5t143 57.5q84 0 140.5 -57.5t56.5 -142.5zM668 0h-408v2330h408v-2330z" />
    <glyph glyph-name="Eth" unicode="&#xd0;" horiz-adv-x="2310" 
d="M342 1061h-188v281h188v951q336 61 744 61q130 0 240 -11.5t200.5 -36.5t164 -59t131 -83.5t101.5 -106.5t76 -131.5t53 -154t34 -179t18 -201.5t5 -226t-5 -226t-18 -201.5t-34 -179t-53 -154t-76 -131.5t-101.5 -106.5t-131 -83.5t-164 -59t-200.5 -36.5t-240 -11.5
q-408 0 -744 61v1024zM749 1061v-738q146 -20 271 -20q386 0 540 172q107 119 131 360q10 104 10 330q0 278 -19 400q-36 227 -168 334q-158 128 -494 128q-125 0 -271 -20v-665h350v-281h-350z" />
    <glyph glyph-name="Ntilde" unicode="&#xd1;" horiz-adv-x="2341" 
d="M873 2094l842 -1588v1824h363v-2058q0 -296 -250 -296q-116 0 -200.5 60t-159.5 202l-841 1592v-1830h-363v2059q0 295 250 295q112 0 198.5 -60.5t160.5 -199.5zM1428 2942h209q-7 -93 -33.5 -168t-65 -120.5t-84.5 -69.5t-95 -24q-56 0 -101.5 17.5t-74 43t-52 50.5
t-47.5 42.5t-49 17.5q-78 0 -102 -163h-209q13 182 93.5 282t184.5 100q56 0 101.5 -17.5t74 -43t52 -50.5t47.5 -42.5t49 -17.5q39 0 64 39t38 124z" />
    <glyph glyph-name="Ograve" unicode="&#xd2;" horiz-adv-x="2245" 
d="M2045 1165q0 -217 -18.5 -381.5t-61 -301t-112 -229t-172.5 -156t-240.5 -92.5t-317.5 -29t-317.5 29t-241 92.5t-172.5 156t-112 229t-61.5 301t-18.5 381.5t18.5 381.5t61.5 301t112 229t172.5 156t241 92.5t317.5 29t317.5 -29t240.5 -92.5t172.5 -156t112 -229
t61 -301t18.5 -381.5zM614 1165q0 -317 23 -454q37 -227 164 -321q114 -84 322 -84q282 0 397 161q88 122 106 386q7 105 7 312q0 317 -23 455q-38 227 -165 321q-115 84 -322 84q-282 0 -397 -161q-87 -122 -105 -386q-7 -105 -7 -313zM1383 2532h-314l-464 427h444z" />
    <glyph glyph-name="Oacute" unicode="&#xd3;" horiz-adv-x="2245" 
d="M2045 1165q0 -217 -18.5 -381.5t-61 -301t-112 -229t-172.5 -156t-240.5 -92.5t-317.5 -29t-317.5 29t-241 92.5t-172.5 156t-112 229t-61.5 301t-18.5 381.5t18.5 381.5t61.5 301t112 229t172.5 156t241 92.5t317.5 29t317.5 -29t240.5 -92.5t172.5 -156t112 -229
t61 -301t18.5 -381.5zM614 1165q0 -317 23 -454q37 -227 164 -321q114 -84 322 -84q282 0 397 161q88 122 106 386q7 105 7 312q0 317 -23 455q-38 227 -165 321q-115 84 -322 84q-282 0 -397 -161q-87 -122 -105 -386q-7 -105 -7 -313zM1197 2532h-315l334 427h444z" />
    <glyph glyph-name="Ocircumflex" unicode="&#xd4;" horiz-adv-x="2245" 
d="M2045 1165q0 -217 -18.5 -381.5t-61 -301t-112 -229t-172.5 -156t-240.5 -92.5t-317.5 -29t-317.5 29t-241 92.5t-172.5 156t-112 229t-61.5 301t-18.5 381.5t18.5 381.5t61.5 301t112 229t172.5 156t241 92.5t317.5 29t317.5 -29t240.5 -92.5t172.5 -156t112 -229
t61 -301t18.5 -381.5zM614 1165q0 -317 23 -454q37 -227 164 -321q114 -84 322 -84q282 0 397 161q88 122 106 386q7 105 7 312q0 317 -23 455q-38 227 -165 321q-115 84 -322 84q-282 0 -397 -161q-87 -122 -105 -386q-7 -105 -7 -313zM907 2532h-310l393 427h258l401 -427
h-314l-211 247z" />
    <glyph glyph-name="Otilde" unicode="&#xd5;" horiz-adv-x="2245" 
d="M1370 2917h209q-7 -93 -33.5 -168t-65 -120.5t-84.5 -69.5t-95 -24q-56 0 -101.5 17.5t-74 42.5t-52 50.5t-47.5 43t-49 17.5q-78 0 -102 -163h-209q13 182 93.5 282t184.5 100q56 0 101.5 -17.5t74 -42.5t52 -50.5t47.5 -43t49 -17.5q39 0 64 39t38 124zM200 1165
q0 217 18.5 381.5t61.5 301t112 229t172.5 156t241 92.5t317.5 29t317.5 -29t240.5 -92.5t172.5 -156t112 -229t61 -301t18.5 -381.5t-18.5 -381.5t-61 -301t-112 -229t-172.5 -156t-240.5 -92.5t-317.5 -29t-317.5 29t-241 92.5t-172.5 156t-112 229t-61.5 301t-18.5 381.5
zM1633 1165q0 317 -23 455q-38 227 -165 321q-115 84 -322 84q-282 0 -397 -161q-87 -122 -105 -386q-7 -105 -7 -313q0 -317 23 -454q37 -227 164 -321q114 -84 322 -84q282 0 397 161q88 122 106 386q7 105 7 312z" />
    <glyph glyph-name="Odieresis" unicode="&#xd6;" horiz-adv-x="2245" 
d="M992 2721q0 -85 -55.5 -142t-139.5 -57q-85 0 -144.5 57.5t-59.5 141.5t59.5 142t144.5 58q84 0 139.5 -57.5t55.5 -142.5zM2045 1165q0 -217 -18.5 -381.5t-61 -301t-112 -229t-172.5 -156t-240.5 -92.5t-317.5 -29t-317.5 29t-241 92.5t-172.5 156t-112 229t-61.5 301
t-18.5 381.5t18.5 381.5t61.5 301t112 229t172.5 156t241 92.5t317.5 29t317.5 -29t240.5 -92.5t172.5 -156t112 -229t61 -301t18.5 -381.5zM614 1165q0 -317 23 -454q37 -227 164 -321q114 -84 322 -84q282 0 397 161q88 122 106 386q7 105 7 312q0 317 -23 455
q-38 227 -165 321q-115 84 -322 84q-282 0 -397 -161q-87 -122 -105 -386q-7 -105 -7 -313zM1653 2721q0 -85 -56 -142t-141 -57t-143 57t-58 142t58 142.5t143 57.5q84 0 140.5 -57.5t56.5 -142.5z" />
    <glyph glyph-name="multiply" unicode="&#xd7;" horiz-adv-x="1790" 
d="M1636 1485l-503 -505l506 -505l-237 -241l-507 507l-506 -507l-238 238l506 506l-506 507l241 237l504 -505l506 506z" />
    <glyph glyph-name="Oslash" unicode="&#xd8;" horiz-adv-x="2245" 
d="M1967 2385l-148 -267q122 -138 174 -369t52 -584q0 -217 -18.5 -381.5t-61 -301t-112 -229t-172.5 -156t-240.5 -92.5t-317.5 -29q-271 0 -454 69l-141 -254l-250 154l148 267q-122 138 -174 369t-52 584q0 217 18.5 381.5t61.5 301t112 229t172.5 156t241 92.5t317.5 29
q273 0 453 -70l141 255zM1591 1707l-746 -1345q106 -56 278 -56q282 0 397 161q88 122 106 386q7 105 7 312q0 194 -7.5 319.5t-34.5 222.5zM655 625l745 1343q-106 57 -277 57q-282 0 -397 -161q-87 -122 -105 -386q-7 -105 -7 -313q0 -197 7.5 -320t33.5 -220z" />
    <glyph glyph-name="Ugrave" unicode="&#xd9;" horiz-adv-x="2224" 
d="M647 2330v-1582q0 -234 105 -335t358 -101t358 101t105 335v1582h401v-1556q0 -156 -27 -278.5t-81 -209.5t-127 -147.5t-173 -96t-210 -51t-246 -15.5t-246 15.5t-210 51t-173 96t-127 147.5t-81 209.5t-27 278.5v1556h401zM1361 2516h-314l-464 427h444z" />
    <glyph glyph-name="Uacute" unicode="&#xda;" horiz-adv-x="2224" 
d="M647 2330v-1582q0 -234 105 -335t358 -101t358 101t105 335v1582h401v-1556q0 -156 -27 -278.5t-81 -209.5t-127 -147.5t-173 -96t-210 -51t-246 -15.5t-246 15.5t-210 51t-173 96t-127 147.5t-81 209.5t-27 278.5v1556h401zM1192 2516h-315l334 427h444z" />
    <glyph glyph-name="Ucircumflex" unicode="&#xdb;" horiz-adv-x="2224" 
d="M647 2330v-1582q0 -234 105 -335t358 -101t358 101t105 335v1582h401v-1556q0 -156 -27 -278.5t-81 -209.5t-127 -147.5t-173 -96t-210 -51t-246 -15.5t-246 15.5t-210 51t-173 96t-127 147.5t-81 209.5t-27 278.5v1556h401zM911 2516h-310l393 427h258l401 -427h-314
l-211 247z" />
    <glyph glyph-name="Udieresis" unicode="&#xdc;" horiz-adv-x="2224" 
d="M647 2330v-1582q0 -234 105 -335t358 -101t358 101t105 335v1582h401v-1556q0 -156 -27 -278.5t-81 -209.5t-127 -147.5t-173 -96t-210 -51t-246 -15.5t-246 15.5t-210 51t-173 96t-127 147.5t-81 209.5t-27 278.5v1556h401zM979 2729q0 -85 -55.5 -142t-139.5 -57
q-85 0 -144.5 57.5t-59.5 141.5t59.5 142t144.5 58q84 0 139.5 -57.5t55.5 -142.5zM1640 2729q0 -85 -56 -142t-141 -57t-143 57t-58 142t58 142.5t143 57.5q84 0 140.5 -57.5t56.5 -142.5z" />
    <glyph glyph-name="Yacute" unicode="&#xdd;" horiz-adv-x="1980" 
d="M1191 900v-900h-407v900l-748 1430h436l519 -1037l533 1037h419zM1088 2506h-315l334 427h444z" />
    <glyph glyph-name="Thorn" unicode="&#xde;" horiz-adv-x="2000" 
d="M245 2330h406v-405q179 13 338 13q90 0 165 -4t154.5 -14.5t144.5 -28t129 -46t113 -66.5t92 -91.5t70.5 -119.5t43 -151t15.5 -186q0 -126 -23 -228t-64 -176.5t-104.5 -130t-136.5 -90.5t-167.5 -56.5t-191 -30t-213.5 -8.5q-153 0 -365 12v-523h-406v2330zM651 1602
v-762q120 -15 338 -15q103 0 180 10.5t144.5 37.5t109.5 72.5t66 117t24 168.5q0 215 -116 304.5t-396 89.5q-177 0 -350 -23z" />
    <glyph glyph-name="germandbls" unicode="&#xdf;" horiz-adv-x="2052" 
d="M1253 278q32 0 57 2t62.5 7.5t65 20t53.5 36t40 58.5t14 85q0 65 -23 113.5t-62 78.5t-90 53.5t-106.5 43.5t-111.5 43t-107 58t-90 82t-62 122t-23 171q0 98 29 172.5t76 119t103 79t112.5 63.5t103.5 61.5t76 83.5t29 120q0 108 -91 174t-285 66q-153 0 -240 -56
t-128 -188.5t-41 -367.5v-1579h-380v1579q0 331 80.5 530t252.5 291.5t456 92.5q195 0 343 -42.5t237 -120t133 -177.5t44 -222q0 -96 -29.5 -172.5t-76 -125t-103.5 -87t-113.5 -68.5t-103 -60t-76 -72t-29.5 -94t23.5 -90.5t62.5 -62.5t90.5 -44l108 -40t112.5 -44.5
t107.5 -63.5t90.5 -90.5t62.5 -132.5t23.5 -183q0 -115 -30 -204.5t-82.5 -149.5t-128 -98.5t-162.5 -55.5t-190 -17q-123 0 -266 20.5t-263 57.5l29 283q258 -59 416 -59z" />
    <glyph glyph-name="agrave" unicode="&#xe0;" horiz-adv-x="1863" 
d="M824 -24q-354 0 -512.5 137t-158.5 418q0 241 114 380.5t365 177.5q189 29 631 47q0 189 -89.5 280t-289.5 91q-263 0 -619 -45l-31 278q390 65 686 65q125 0 225.5 -14.5t194.5 -52.5t157 -100t100.5 -162t37.5 -232v-785q0 -165 -15 -327q-277 -156 -796 -156z
M1263 560v328q-11 0 -66.5 -2t-74.5 -3l-67.5 -3.5t-75.5 -5t-66.5 -7t-71.5 -10t-62 -12.5q-144 -33 -197.5 -95t-53.5 -213q0 -82 22 -137t69 -85.5t109 -42.5t152 -12q241 0 372 61q11 99 11 239zM382 2535h415l312 -527h-294z" />
    <glyph glyph-name="aacute" unicode="&#xe1;" horiz-adv-x="1863" 
d="M824 -24q-354 0 -512.5 137t-158.5 418q0 241 114 380.5t365 177.5q189 29 631 47q0 189 -89.5 280t-289.5 91q-263 0 -619 -45l-31 278q390 65 686 65q125 0 225.5 -14.5t194.5 -52.5t157 -100t100.5 -162t37.5 -232v-785q0 -165 -15 -327q-277 -156 -796 -156z
M1263 560v328q-11 0 -66.5 -2t-74.5 -3l-67.5 -3.5t-75.5 -5t-66.5 -7t-71.5 -10t-62 -12.5q-144 -33 -197.5 -95t-53.5 -213q0 -82 22 -137t69 -85.5t109 -42.5t152 -12q241 0 372 61q11 99 11 239zM1035 2532h415l-433 -527h-294z" />
    <glyph glyph-name="acircumflex" unicode="&#xe2;" horiz-adv-x="1863" 
d="M824 -24q-354 0 -512.5 137t-158.5 418q0 241 114 380.5t365 177.5q189 29 631 47q0 189 -89.5 280t-289.5 91q-263 0 -619 -45l-31 278q390 65 686 65q125 0 225.5 -14.5t194.5 -52.5t157 -100t100.5 -162t37.5 -232v-785q0 -165 -15 -327q-277 -156 -796 -156z
M1263 560v328q-11 0 -66.5 -2t-74.5 -3l-67.5 -3.5t-75.5 -5t-66.5 -7t-71.5 -10t-62 -12.5q-144 -33 -197.5 -95t-53.5 -213q0 -82 22 -137t69 -85.5t109 -42.5t152 -12q241 0 372 61q11 99 11 239zM814 2522h241l375 -527h-294l-197 305l-203 -305h-290z" />
    <glyph glyph-name="atilde" unicode="&#xe3;" horiz-adv-x="1863" 
d="M824 -24q-354 0 -512.5 137t-158.5 418q0 241 114 380.5t365 177.5q189 29 631 47q0 189 -89.5 280t-289.5 91q-263 0 -619 -45l-31 278q390 65 686 65q125 0 225.5 -14.5t194.5 -52.5t157 -100t100.5 -162t37.5 -232v-785q0 -165 -15 -327q-277 -156 -796 -156z
M1181 2463h209q-7 -97 -33.5 -175t-65 -125.5t-84.5 -72.5t-95 -25q-56 0 -101.5 18.5t-74 44.5t-52 52t-47.5 44.5t-49 18.5q-78 0 -102 -170h-209q7 97 33.5 174.5t65 125.5t84.5 73t95 25q56 0 101.5 -18.5t74 -44.5t52 -52t47.5 -44.5t49 -18.5q39 0 64 40.5t38 129.5z
M528 537q0 -82 22 -137t69 -85.5t109 -42.5t152 -12q241 0 372 61q11 99 11 239v328q-11 0 -66.5 -2t-74.5 -3l-67.5 -3.5t-75.5 -5t-66.5 -7t-71.5 -10t-62 -12.5q-144 -33 -197.5 -95t-53.5 -213z" />
    <glyph glyph-name="adieresis" unicode="&#xe4;" horiz-adv-x="1863" 
d="M824 -24q-354 0 -512.5 137t-158.5 418q0 241 114 380.5t365 177.5q189 29 631 47q0 189 -89.5 280t-289.5 91q-263 0 -619 -45l-31 278q390 65 686 65q125 0 225.5 -14.5t194.5 -52.5t157 -100t100.5 -162t37.5 -232v-785q0 -165 -15 -327q-277 -156 -796 -156z
M1263 560v328q-11 0 -66.5 -2t-74.5 -3l-67.5 -3.5t-75.5 -5t-66.5 -7t-71.5 -10t-62 -12.5q-144 -33 -197.5 -95t-53.5 -213q0 -82 22 -137t69 -85.5t109 -42.5t152 -12q241 0 372 61q11 99 11 239zM408 2254q0 84 59.5 142t144.5 58q84 0 139.5 -57.5t55.5 -142.5
t-55.5 -142t-139.5 -57q-85 0 -144.5 57.5t-59.5 141.5zM1070 2254q0 85 58 142.5t143 57.5q84 0 140.5 -57.5t56.5 -142.5t-56 -142t-141 -57t-143 57t-58 142z" />
    <glyph glyph-name="aring" unicode="&#xe5;" horiz-adv-x="1863" 
d="M824 -24q-354 0 -512.5 137t-158.5 418q0 241 114 380.5t365 177.5q189 29 631 47q0 189 -89.5 280t-289.5 91q-263 0 -619 -45l-31 278q390 65 686 65q125 0 225.5 -14.5t194.5 -52.5t157 -100t100.5 -162t37.5 -232v-785q0 -165 -15 -327q-277 -156 -796 -156z
M1263 560v328q-11 0 -66.5 -2t-74.5 -3l-67.5 -3.5t-75.5 -5t-66.5 -7t-71.5 -10t-62 -12.5q-144 -33 -197.5 -95t-53.5 -213q0 -82 22 -137t69 -85.5t109 -42.5t152 -12q241 0 372 61q11 99 11 239zM579 2309q0 143 101 244t244 101t244 -101t101 -244q0 -142 -101 -243
t-244 -101t-244 101t-101 243zM1105 2309q0 75 -53 128t-128 53t-128 -53t-53 -128t53 -127.5t128 -52.5t128 52.5t53 127.5z" />
    <glyph glyph-name="ae" unicode="&#xe6;" horiz-adv-x="3005" 
d="M920 1805q399 0 569 -161q183 161 567 161q136 0 245 -20.5t189.5 -58t140.5 -96.5t98.5 -128.5t62 -161.5t33 -188.5t9.5 -215.5q0 -76 -5 -132q-150 -27 -418.5 -54t-456.5 -35l-314 -14q6 -101 31 -175.5t64.5 -121.5t99 -75.5t126.5 -39.5t154 -11q273 0 639 46
l32 -283q-405 -65 -769 -65q-291 0 -464 122q-266 -122 -729 -122q-354 0 -512.5 137t-158.5 418q0 241 114 380.5t365 177.5q189 29 631 47q0 189 -89.5 280t-289.5 91q-263 0 -619 -45l-31 278q390 65 686 65zM1263 560v328q-11 0 -66.5 -2t-74.5 -3l-67.5 -3.5t-75.5 -5
t-66.5 -7t-71.5 -10t-62 -12.5q-144 -33 -197.5 -95t-53.5 -213q0 -82 22 -137t69 -85.5t109 -42.5t152 -12q241 0 372 61q11 99 11 239zM2452 1100q0 212 -90.5 315.5t-305.5 103.5q-79 0 -141.5 -14.5t-107 -39.5t-76.5 -65t-51.5 -84t-30.5 -104.5t-15 -118.5t-4 -133
l358 17q255 12 460 40q4 31 4 83z" />
    <glyph glyph-name="ccedilla" unicode="&#xe7;" horiz-adv-x="1578" 
d="M538 -624l60 159q108 -54 207 -54q55 0 93.5 23.5t38.5 73.5q0 38 -30.5 66.5t-77 42.5t-92 21t-86.5 7l156 263q-113 6 -204 37t-155.5 78.5t-112.5 117.5t-77 144.5t-46.5 170t-24 185t-6.5 197.5q0 131 9.5 233.5t32.5 198.5t62.5 166.5t99.5 129t142 94.5t192 55.5
t249 19.5q239 0 452 -62l-30 -281q-203 37 -309 37q-72 0 -128.5 -4t-105 -13.5t-84.5 -22.5t-65.5 -35.5t-49.5 -46.5t-35 -61.5t-23.5 -75.5t-14 -93.5t-7 -109.5t-1.5 -129q0 -250 22 -350q32 -142 134 -203q112 -67 360 -67q107 0 306 39l34 -289q-189 -45 -397 -57
l-97 -153q105 -6 183 -70t78 -166q0 -75 -31.5 -132t-86 -89.5t-120.5 -48.5t-143 -16q-153 0 -271 70z" />
    <glyph glyph-name="egrave" unicode="&#xe8;" horiz-adv-x="1918" 
d="M867 715l-314 -14q6 -101 31 -175.5t64.5 -121.5t99 -75.5t126.5 -39.5t154 -11q273 0 639 46l32 -283q-405 -65 -769 -65q-175 0 -307.5 45.5t-216.5 124t-136.5 196.5t-73 250.5t-20.5 298.5q0 248 40.5 416.5t134 282t244.5 164.5t374 51q136 0 245 -20.5t189.5 -58
t140.5 -96.5t98.5 -128.5t62 -161.5t33 -188.5t9.5 -215.5q0 -76 -5 -132q-150 -27 -418.5 -54t-456.5 -35zM543 960l358 17q255 12 460 40q4 31 4 83q0 212 -90.5 315.5t-305.5 103.5q-79 0 -141.5 -14.5t-107 -39.5t-76.5 -65t-51.5 -84t-30.5 -104.5t-15 -118.5t-4 -133z
M504 2535h415l312 -527h-294z" />
    <glyph glyph-name="eacute" unicode="&#xe9;" horiz-adv-x="1918" 
d="M867 715l-314 -14q6 -101 31 -175.5t64.5 -121.5t99 -75.5t126.5 -39.5t154 -11q273 0 639 46l32 -283q-405 -65 -769 -65q-175 0 -307.5 45.5t-216.5 124t-136.5 196.5t-73 250.5t-20.5 298.5q0 248 40.5 416.5t134 282t244.5 164.5t374 51q136 0 245 -20.5t189.5 -58
t140.5 -96.5t98.5 -128.5t62 -161.5t33 -188.5t9.5 -215.5q0 -76 -5 -132q-150 -27 -418.5 -54t-456.5 -35zM543 960l358 17q255 12 460 40q4 31 4 83q0 212 -90.5 315.5t-305.5 103.5q-79 0 -141.5 -14.5t-107 -39.5t-76.5 -65t-51.5 -84t-30.5 -104.5t-15 -118.5t-4 -133z
M1114 2527h415l-433 -527h-294z" />
    <glyph glyph-name="ecircumflex" unicode="&#xea;" horiz-adv-x="1918" 
d="M867 715l-314 -14q6 -101 31 -175.5t64.5 -121.5t99 -75.5t126.5 -39.5t154 -11q273 0 639 46l32 -283q-405 -65 -769 -65q-175 0 -307.5 45.5t-216.5 124t-136.5 196.5t-73 250.5t-20.5 298.5q0 248 40.5 416.5t134 282t244.5 164.5t374 51q136 0 245 -20.5t189.5 -58
t140.5 -96.5t98.5 -128.5t62 -161.5t33 -188.5t9.5 -215.5q0 -76 -5 -132q-150 -27 -418.5 -54t-456.5 -35zM543 960l358 17q255 12 460 40q4 31 4 83q0 212 -90.5 315.5t-305.5 103.5q-79 0 -141.5 -14.5t-107 -39.5t-76.5 -65t-51.5 -84t-30.5 -104.5t-15 -118.5t-4 -133z
M869 2522h241l375 -527h-294l-197 305l-203 -305h-290z" />
    <glyph glyph-name="edieresis" unicode="&#xeb;" horiz-adv-x="1918" 
d="M867 715l-314 -14q6 -101 31 -175.5t64.5 -121.5t99 -75.5t126.5 -39.5t154 -11q273 0 639 46l32 -283q-405 -65 -769 -65q-175 0 -307.5 45.5t-216.5 124t-136.5 196.5t-73 250.5t-20.5 298.5q0 248 40.5 416.5t134 282t244.5 164.5t374 51q136 0 245 -20.5t189.5 -58
t140.5 -96.5t98.5 -128.5t62 -161.5t33 -188.5t9.5 -215.5q0 -76 -5 -132q-150 -27 -418.5 -54t-456.5 -35zM479 2254q0 84 59.5 142t144.5 58q84 0 139.5 -57.5t55.5 -142.5t-55.5 -142t-139.5 -57q-85 0 -144.5 57.5t-59.5 141.5zM543 960l358 17q255 12 460 40q4 31 4 83
q0 212 -90.5 315.5t-305.5 103.5q-79 0 -141.5 -14.5t-107 -39.5t-76.5 -65t-51.5 -84t-30.5 -104.5t-15 -118.5t-4 -133zM1141 2254q0 85 58 142.5t143 57.5q84 0 140.5 -57.5t56.5 -142.5t-56 -142t-141 -57t-143 57t-58 142z" />
    <glyph glyph-name="igrave" unicode="&#xec;" horiz-adv-x="866" 
d="M574 2031h-294l-433 527h415zM624 0h-382v1781h382v-1781z" />
    <glyph glyph-name="iacute" unicode="&#xed;" horiz-adv-x="866" 
d="M624 0h-382v1781h382v-1781zM586 2031h-294l312 527h415z" />
    <glyph glyph-name="icircumflex" unicode="&#xee;" horiz-adv-x="866" 
d="M231 2041h-290l368 527h241l375 -527h-294l-197 305zM624 0h-382v1781h382v-1781z" />
    <glyph glyph-name="idieresis" unicode="&#xef;" horiz-adv-x="866" 
d="M302 2269q0 -85 -55.5 -142t-139.5 -57q-85 0 -144.5 57.5t-59.5 141.5t59.5 142t144.5 58q84 0 139.5 -57.5t55.5 -142.5zM963 2269q0 -85 -56 -142t-141 -57t-143 57t-58 142t58 142.5t143 57.5q84 0 140.5 -57.5t56.5 -142.5zM624 0h-382v1781h382v-1781z" />
    <glyph glyph-name="eth" unicode="&#xf0;" horiz-adv-x="1913" 
d="M1282 2291l289 105l109 -185l-274 -100q161 -265 242.5 -578.5t81.5 -641.5q0 -250 -41.5 -420.5t-136.5 -282.5t-244.5 -162t-370.5 -50t-370 48.5t-244.5 159.5t-137 282t-41.5 425q0 239 41.5 401.5t136.5 269.5t245 155t370 48q147 0 268 -36q-57 132 -134 260
l-288 -105l-107 186l272 99q-78 106 -179 215l331 109q98 -93 182 -202zM1349 891q0 133 -12 225.5t-40 161.5t-76.5 108.5t-117 58t-166.5 18.5q-124 0 -200.5 -25t-125 -92.5t-66.5 -174t-18 -280.5q0 -152 12 -253.5t39 -174t76 -112t116 -56.5t167 -17q124 0 201 28.5
t125.5 102t67 187t18.5 295.5z" />
    <glyph glyph-name="ntilde" unicode="&#xf1;" horiz-adv-x="1983" 
d="M1751 1142v-1142h-380v1101q0 77 -5.5 129t-21 101t-44 79t-74.5 53t-112.5 32.5t-157.5 9.5q-90 0 -180 -15.5t-145 -44.5q-11 -99 -11 -239v-1206h-379v1322q0 165 15 327q318 156 804 156q132 0 235.5 -18t175.5 -48t124 -79t81.5 -101t47 -124.5t22.5 -138.5t5 -154z
M1258 2473h209q-7 -97 -33.5 -175t-65 -125.5t-84.5 -72.5t-95 -25q-56 0 -101.5 18.5t-74 44.5t-52 52t-47.5 44.5t-49 18.5q-78 0 -102 -170h-209q7 97 33.5 174.5t65 125.5t84.5 73t95 25q56 0 101.5 -18.5t74 -44.5t52 -52t47.5 -44.5t49 -18.5q39 0 64 40.5t38 129.5z
" />
    <glyph glyph-name="ograve" unicode="&#xf2;" horiz-adv-x="1945" 
d="M1765 891q0 -250 -41.5 -420.5t-136.5 -282.5t-244.5 -162t-370.5 -50t-370 48.5t-244.5 159.5t-137 282t-41.5 425t41.5 424.5t137 281.5t244.5 159.5t370 48.5t370.5 -50t244.5 -162t136.5 -282t41.5 -420zM562 891q0 -152 12 -253.5t39 -174t76 -112t116 -56.5
t167 -17q124 0 201 28.5t125.5 102t67 187t18.5 295.5t-18.5 295.5t-67 186.5t-126 101.5t-200.5 28.5q-83 0 -142.5 -11t-107 -39t-76.5 -71.5t-49 -114t-27.5 -160.5t-7.5 -216zM1208 2008h-294l-433 527h415z" />
    <glyph glyph-name="oacute" unicode="&#xf3;" horiz-adv-x="1945" 
d="M1765 891q0 -250 -41.5 -420.5t-136.5 -282.5t-244.5 -162t-370.5 -50t-370 48.5t-244.5 159.5t-137 282t-41.5 425t41.5 424.5t137 281.5t244.5 159.5t370 48.5t370.5 -50t244.5 -162t136.5 -282t41.5 -420zM562 891q0 -152 12 -253.5t39 -174t76 -112t116 -56.5
t167 -17q124 0 201 28.5t125.5 102t67 187t18.5 295.5t-18.5 295.5t-67 186.5t-126 101.5t-200.5 28.5q-83 0 -142.5 -11t-107 -39t-76.5 -71.5t-49 -114t-27.5 -160.5t-7.5 -216zM1045 2022h-294l312 527h415z" />
    <glyph glyph-name="ocircumflex" unicode="&#xf4;" horiz-adv-x="1945" 
d="M1765 891q0 -250 -41.5 -420.5t-136.5 -282.5t-244.5 -162t-370.5 -50t-370 48.5t-244.5 159.5t-137 282t-41.5 425t41.5 424.5t137 281.5t244.5 159.5t370 48.5t370.5 -50t244.5 -162t136.5 -282t41.5 -420zM562 891q0 -152 12 -253.5t39 -174t76 -112t116 -56.5
t167 -17q124 0 201 28.5t125.5 102t67 187t18.5 295.5t-18.5 295.5t-67 186.5t-126 101.5t-200.5 28.5q-83 0 -142.5 -11t-107 -39t-76.5 -71.5t-49 -114t-27.5 -160.5t-7.5 -216zM770 2005h-290l368 527h241l375 -527h-294l-197 305z" />
    <glyph glyph-name="otilde" unicode="&#xf5;" horiz-adv-x="1945" 
d="M1219 2453h209q-7 -97 -33.5 -175t-65 -125.5t-84.5 -72.5t-95 -25q-56 0 -101.5 18.5t-74 44.5t-52 52t-47.5 44.5t-49 18.5q-78 0 -102 -170h-209q7 97 33.5 174.5t65 125.5t84.5 73t95 25q56 0 101.5 -18.5t74 -44.5t52 -52t47.5 -44.5t49 -18.5q39 0 64 40.5
t38 129.5zM179 891q0 254 41.5 424.5t137 281.5t244.5 159.5t370 48.5t370.5 -50t244.5 -162t136.5 -282t41.5 -420t-41.5 -420.5t-136.5 -282.5t-244.5 -162t-370.5 -50t-370 48.5t-244.5 159.5t-137 282t-41.5 425zM1384 891q0 182 -18.5 295.5t-67 186.5t-126 101.5
t-200.5 28.5q-83 0 -142.5 -11t-107 -39t-76.5 -71.5t-49 -114t-27.5 -160.5t-7.5 -216q0 -152 12 -253.5t39 -174t76 -112t116 -56.5t167 -17q124 0 201 28.5t125.5 102t67 187t18.5 295.5z" />
    <glyph glyph-name="odieresis" unicode="&#xf6;" horiz-adv-x="1945" 
d="M841 2254q0 -85 -55.5 -142t-139.5 -57q-85 0 -144.5 57.5t-59.5 141.5t59.5 142t144.5 58q84 0 139.5 -57.5t55.5 -142.5zM1765 891q0 -250 -41.5 -420.5t-136.5 -282.5t-244.5 -162t-370.5 -50t-370 48.5t-244.5 159.5t-137 282t-41.5 425t41.5 424.5t137 281.5
t244.5 159.5t370 48.5t370.5 -50t244.5 -162t136.5 -282t41.5 -420zM562 891q0 -152 12 -253.5t39 -174t76 -112t116 -56.5t167 -17q124 0 201 28.5t125.5 102t67 187t18.5 295.5t-18.5 295.5t-67 186.5t-126 101.5t-200.5 28.5q-83 0 -142.5 -11t-107 -39t-76.5 -71.5
t-49 -114t-27.5 -160.5t-7.5 -216zM1502 2254q0 -85 -56 -142t-141 -57t-143 57t-58 142t58 142.5t143 57.5q84 0 140.5 -57.5t56.5 -142.5z" />
    <glyph glyph-name="divide" unicode="&#xf7;" horiz-adv-x="1925" 
d="M1201 303q0 -99 -70 -168.5t-169 -69.5q-98 0 -167.5 69.5t-69.5 168.5t69.5 168.5t167.5 69.5q99 0 169 -69.5t70 -168.5zM1201 1654q0 -99 -70 -168.5t-169 -69.5q-98 0 -167.5 69.5t-69.5 168.5t69.5 168t167.5 69q99 0 169 -69t70 -168zM1790 807h-1655v343h1655
v-343z" />
    <glyph glyph-name="oslash" unicode="&#xf8;" horiz-adv-x="1945" 
d="M1665 1854l-126 -212q118 -105 172 -288.5t54 -462.5q0 -250 -41.5 -420.5t-136.5 -282.5t-244.5 -162t-370.5 -50q-237 0 -392 57l-130 -218l-171 112l124 209q-118 104 -171 288t-53 467q0 254 41.5 424.5t137 281.5t244.5 159.5t370 48.5q235 0 391 -59l131 220z
M1335 1300l-587 -986q79 -36 224 -36q124 0 201 28.5t125.5 102t67 187t18.5 295.5q0 277 -49 409zM608 479l587 985q-84 39 -223 39q-83 0 -142.5 -11t-107 -39t-76.5 -71.5t-49 -114t-27.5 -160.5t-7.5 -216q0 -282 46 -412z" />
    <glyph glyph-name="ugrave" unicode="&#xf9;" horiz-adv-x="1975" 
d="M1355 575v1206h379v-1322q0 -165 -15 -327q-318 -156 -801 -156q-103 0 -188.5 11t-150.5 29.5t-117 49.5t-88 64.5t-62.5 80t-42 91.5t-24.5 104.5t-12 112t-3 120.5v1142h380v-1101q0 -77 5.5 -129t21 -101t43.5 -79t74 -53t111.5 -32.5t156.5 -9.5q89 0 178 15.5
t144 44.5q11 99 11 239zM1195 2031h-294l-433 527h415z" />
    <glyph glyph-name="uacute" unicode="&#xfa;" horiz-adv-x="1975" 
d="M1355 575v1206h379v-1322q0 -165 -15 -327q-318 -156 -801 -156q-103 0 -188.5 11t-150.5 29.5t-117 49.5t-88 64.5t-62.5 80t-42 91.5t-24.5 104.5t-12 112t-3 120.5v1142h380v-1101q0 -77 5.5 -129t21 -101t43.5 -79t74 -53t111.5 -32.5t156.5 -9.5q89 0 178 15.5
t144 44.5q11 99 11 239zM1077 2051h-294l312 527h415z" />
    <glyph glyph-name="ucircumflex" unicode="&#xfb;" horiz-adv-x="1975" 
d="M1355 575v1206h379v-1322q0 -165 -15 -327q-318 -156 -801 -156q-103 0 -188.5 11t-150.5 29.5t-117 49.5t-88 64.5t-62.5 80t-42 91.5t-24.5 104.5t-12 112t-3 120.5v1142h380v-1101q0 -77 5.5 -129t21 -101t43.5 -79t74 -53t111.5 -32.5t156.5 -9.5q89 0 178 15.5
t144 44.5q11 99 11 239zM780 2061h-290l368 527h241l375 -527h-294l-197 305z" />
    <glyph glyph-name="udieresis" unicode="&#xfc;" horiz-adv-x="1975" 
d="M1355 575v1206h379v-1322q0 -165 -15 -327q-318 -156 -801 -156q-103 0 -188.5 11t-150.5 29.5t-117 49.5t-88 64.5t-62.5 80t-42 91.5t-24.5 104.5t-12 112t-3 120.5v1142h380v-1101q0 -77 5.5 -129t21 -101t43.5 -79t74 -53t111.5 -32.5t156.5 -9.5q89 0 178 15.5
t144 44.5q11 99 11 239zM851 2290q0 -85 -55.5 -142t-139.5 -57q-85 0 -144.5 57.5t-59.5 141.5t59.5 142t144.5 58q84 0 139.5 -57.5t55.5 -142.5zM1512 2290q0 -85 -56 -142t-141 -57t-143 57t-58 142t58 142.5t143 57.5q84 0 140.5 -57.5t56.5 -142.5z" />
    <glyph glyph-name="yacute" unicode="&#xfd;" horiz-adv-x="1792" 
d="M468 1781l489 -1190l381 1190h385l-829 -2437h-385l276 776l-719 1661h402zM1024 2011h-294l312 527h415z" />
    <glyph glyph-name="thorn" unicode="&#xfe;" horiz-adv-x="1927" 
d="M236 2330h379v-574q198 49 389 49q166 0 289.5 -29.5t218.5 -94.5t153 -172t87.5 -259.5t29.5 -359.5t-29.5 -359t-87.5 -259t-153 -172t-218 -94.5t-290 -29.5q-191 0 -389 49v-681h-379v2986zM615 1461v-1141q147 -50 300 -50q289 0 395 138q73 94 85 295q4 64 4 187
q0 228 -21 326q-36 168 -163 237q-108 58 -300 58q-153 0 -300 -50z" />
    <glyph glyph-name="ydieresis" unicode="&#xff;" horiz-adv-x="1792" 
d="M797 2260q0 -85 -55.5 -142t-139.5 -57q-85 0 -144.5 57.5t-59.5 141.5t59.5 142t144.5 58q84 0 139.5 -57.5t55.5 -142.5zM1458 2260q0 -85 -56 -142t-141 -57t-143 57t-58 142t58 142.5t143 57.5q84 0 140.5 -57.5t56.5 -142.5zM468 1781l489 -1190l381 1190h385
l-829 -2437h-385l276 776l-719 1661h402z" />
    <glyph glyph-name="Abreve" unicode="&#x102;" horiz-adv-x="2227" 
d="M667 2937h220q12 -84 70 -140t156 -56t156 56t70 140h220q-15 -175 -127 -284.5t-319 -109.5t-319 109.5t-127 284.5zM64 0l706 2076q95 278 350 278t348 -278l695 -2076h-432l-197 619h-858l-194 -619h-418zM1437 926l-335 1054l-330 -1054h665z" />
    <glyph glyph-name="abreve" unicode="&#x103;" horiz-adv-x="1863" 
d="M824 -24q-354 0 -512.5 137t-158.5 418q0 241 114 380.5t365 177.5q189 29 631 47q0 189 -89.5 280t-289.5 91q-263 0 -619 -45l-31 278q390 65 686 65q125 0 225.5 -14.5t194.5 -52.5t157 -100t100.5 -162t37.5 -232v-785q0 -165 -15 -327q-277 -156 -796 -156z
M1263 560v328q-11 0 -66.5 -2t-74.5 -3l-67.5 -3.5t-75.5 -5t-66.5 -7t-71.5 -10t-62 -12.5q-144 -33 -197.5 -95t-53.5 -213q0 -82 22 -137t69 -85.5t109 -42.5t152 -12q241 0 372 61q11 99 11 239zM958 2253q98 0 156 64.5t70 160.5h220q-7 -96 -37 -176.5t-83.5 -143.5
t-136.5 -98t-189 -35t-189 35t-136.5 98t-83.5 143.5t-37 176.5h220q12 -96 70 -160.5t156 -64.5z" />
    <glyph glyph-name="Aogonek" unicode="&#x104;" horiz-adv-x="2227" 
d="M2163 0h-135q-201 -198 -201 -342q0 -67 37.5 -107.5t102.5 -40.5q95 0 167 52l61 -158q-58 -48 -139 -76t-156 -28q-142 0 -232.5 77t-90.5 209q0 112 69 221.5t163 192.5h-78l-197 619h-858l-194 -619h-418l706 2076q95 278 350 278t348 -278zM1437 926l-335 1054
l-330 -1054h665z" />
    <glyph glyph-name="aogonek" unicode="&#x105;" horiz-adv-x="1863" 
d="M1635 1244v-785q0 -165 -15 -327q-92 -51 -201 -84q-182 -187 -182 -323q0 -67 37.5 -107.5t102.5 -40.5q95 0 167 52l61 -158q-58 -48 -139 -76t-156 -28q-142 0 -232.5 77t-90.5 209q0 164 157 340q-140 -17 -320 -17q-354 0 -512.5 137t-158.5 418q0 241 114 380.5
t365 177.5q189 29 631 47q0 189 -89.5 280t-289.5 91q-263 0 -619 -45l-31 278q390 65 686 65q125 0 225.5 -14.5t194.5 -52.5t157 -100t100.5 -162t37.5 -232zM1263 560v328q-11 0 -66.5 -2t-74.5 -3l-67.5 -3.5t-75.5 -5t-66.5 -7t-71.5 -10t-62 -12.5
q-144 -33 -197.5 -95t-53.5 -213q0 -82 22 -137t69 -85.5t109 -42.5t152 -12q241 0 372 61q11 99 11 239z" />
    <glyph glyph-name="Cacute" unicode="&#x106;" horiz-adv-x="1861" 
d="M1734 2290l-36 -309q-240 38 -458 38q-356 0 -498 -166q-101 -117 -124 -359q-9 -103 -9 -329q0 -285 19 -408q34 -224 161 -327q146 -119 451 -119q218 0 458 38l36 -309q-259 -64 -585 -64q-144 0 -261.5 17t-211.5 53t-166.5 88t-126 127t-90 164t-59 205.5t-32 245.5
t-9.5 289q0 184 13 327.5t42.5 270t79.5 218.5t123 165t173.5 117.5t230.5 67.5t294 23q326 0 585 -64zM1154 2958h444l-463 -427h-315z" />
    <glyph glyph-name="cacute" unicode="&#x107;" horiz-adv-x="1578" 
d="M1420 1743l-30 -281q-203 37 -309 37q-72 0 -128.5 -4t-105 -13.5t-84.5 -22.5t-65.5 -35.5t-49.5 -46.5t-35 -61.5t-23.5 -75.5t-14 -93.5t-7 -109.5t-1.5 -129q0 -250 22 -350q32 -142 134 -203q112 -67 360 -67q107 0 306 39l34 -289q-267 -62 -553 -62
q-124 0 -225 27t-171.5 72.5t-123.5 115.5t-85 146.5t-51 175t-26 191t-7 204.5q0 131 9.5 233.5t32.5 198.5t62.5 166.5t99.5 129t142 94.5t192 55.5t249 19.5q239 0 452 -62zM927 2532h415l-433 -527h-294z" />
    <glyph glyph-name="Ccaron" unicode="&#x10c;" horiz-adv-x="1861" 
d="M1734 2290l-36 -309q-240 38 -458 38q-356 0 -498 -166q-101 -117 -124 -359q-9 -103 -9 -329q0 -285 19 -408q34 -224 161 -327q146 -119 451 -119q218 0 458 38l36 -309q-259 -64 -585 -64q-144 0 -261.5 17t-211.5 53t-166.5 88t-126 127t-90 164t-59 205.5t-32 245.5
t-9.5 289q0 184 13 327.5t42.5 270t79.5 218.5t123 165t173.5 117.5t230.5 67.5t294 23q326 0 585 -64zM1045 2711l217 247h310l-393 -427h-258l-401 427h314z" />
    <glyph glyph-name="ccaron" unicode="&#x10d;" horiz-adv-x="1578" 
d="M1420 1743l-30 -281q-203 37 -309 37q-72 0 -128.5 -4t-105 -13.5t-84.5 -22.5t-65.5 -35.5t-49.5 -46.5t-35 -61.5t-23.5 -75.5t-14 -93.5t-7 -109.5t-1.5 -129q0 -250 22 -350q32 -142 134 -203q112 -67 360 -67q107 0 306 39l34 -289q-267 -62 -553 -62
q-124 0 -225 27t-171.5 72.5t-123.5 115.5t-85 146.5t-51 175t-26 191t-7 204.5q0 131 9.5 233.5t32.5 198.5t62.5 166.5t99.5 129t142 94.5t192 55.5t249 19.5q239 0 452 -62zM856 2230l203 305h290l-368 -527h-241l-375 527h294z" />
    <glyph glyph-name="Dcaron" unicode="&#x10e;" horiz-adv-x="2232" 
d="M264 37v2256q336 61 744 61q130 0 240 -11.5t200.5 -36.5t164 -59t131 -83.5t101.5 -106.5t76 -131.5t53 -154t34 -179t18 -201.5t5 -226t-5 -226t-18 -201.5t-34 -179t-53 -154t-76 -131.5t-101.5 -106.5t-131 -83.5t-164 -59t-200.5 -36.5t-240 -11.5q-408 0 -744 61z
M671 2007v-1684q146 -20 271 -20q386 0 540 172q107 119 131 360q10 104 10 330q0 278 -19 400q-36 227 -168 334q-158 128 -494 128q-125 0 -271 -20zM1059 2714l217 247h310l-393 -427h-258l-401 427h314z" />
    <glyph glyph-name="dcaron" unicode="&#x10f;" horiz-adv-x="1935" 
d="M1313 1756v713h379v-2010q0 -165 -15 -327q-141 -80 -326 -118t-374 -38q-226 0 -378 44.5t-256 151t-150.5 282t-46.5 437.5q0 207 29.5 359t87.5 259t153 172t218 94.5t290 29.5q191 0 389 -49zM1313 1461q-147 50 -300 50q-289 0 -395 -138q-73 -94 -85 -295
q-4 -64 -4 -187q0 -63 1.5 -108t6.5 -102t14 -97.5t25 -86.5t39 -77.5t57 -62.5t77 -49t100.5 -29t127.5 -11q90 0 180 15.5t145 44.5q11 99 11 239v894zM1842 1816l159 653h337l-246 -653h-250z" />
    <glyph glyph-name="Dcroat" unicode="&#x110;" horiz-adv-x="2310" 
d="M342 1061h-188v281h188v951q336 61 744 61q130 0 240 -11.5t200.5 -36.5t164 -59t131 -83.5t101.5 -106.5t76 -131.5t53 -154t34 -179t18 -201.5t5 -226t-5 -226t-18 -201.5t-34 -179t-53 -154t-76 -131.5t-101.5 -106.5t-131 -83.5t-164 -59t-200.5 -36.5t-240 -11.5
q-408 0 -744 61v1024zM749 1061v-738q146 -20 271 -20q386 0 540 172q107 119 131 360q10 104 10 330q0 278 -19 400q-36 227 -168 334q-158 128 -494 128q-125 0 -271 -20v-665h350v-281h-350z" />
    <glyph glyph-name="dcroat" unicode="&#x111;" horiz-adv-x="1935" 
d="M966 2005v221h347v243h379v-243h228v-221h-228v-1546q0 -165 -15 -327q-141 -80 -326 -118t-374 -38q-226 0 -378 44.5t-256 151t-150.5 282t-46.5 437.5q0 207 29.5 359t87.5 259t153 172t218 94.5t290 29.5q191 0 389 -49v249h-347zM1313 1461q-147 50 -300 50
q-289 0 -395 -138q-73 -94 -85 -295q-4 -64 -4 -187q0 -63 1.5 -108t6.5 -102t14 -97.5t25 -86.5t39 -77.5t57 -62.5t77 -49t100.5 -29t127.5 -11q90 0 180 15.5t145 44.5q11 99 11 239v894z" />
    <glyph glyph-name="Eogonek" unicode="&#x118;" horiz-adv-x="1859" 
d="M656 1344h960v-317h-960v-347q0 -78 5.5 -130t21.5 -95t41 -67t69.5 -40.5t101.5 -22.5t141 -6h625v-309q-33 -2 -107.5 -4.5t-91.5 -3.5q-204 -196 -204 -344q0 -67 37.5 -107.5t102.5 -40.5q95 0 167 52l61 -158q-58 -48 -139 -76t-156 -28q-142 0 -232.5 77t-90.5 209
q0 111 68 219.5t160 190.5q-142 -2 -190 -2q-279 0 -416 31q-238 53 -324 230q-56 115 -56 289v1242q0 333 212 456q138 81 415 91q66 3 169 3q275 0 615 -16v-309h-625q-84 0 -141 -6t-101.5 -22.5t-69.5 -40.5t-41 -67t-21.5 -95t-5.5 -130v-306z" />
    <glyph glyph-name="eogonek" unicode="&#x119;" horiz-adv-x="1918" 
d="M1667 324l32 -283q-184 -30 -332 -44q-188 -188 -188 -329q0 -67 37.5 -107.5t102.5 -40.5q95 0 167 52l61 -158q-58 -48 -139 -76t-156 -28q-142 0 -232.5 77t-90.5 209q0 101 58 202t142 182q-124 -4 -199 -4q-175 0 -307.5 45.5t-216.5 124t-136.5 196.5t-73 250.5
t-20.5 298.5q0 248 40.5 416.5t134 282t244.5 164.5t374 51q136 0 245 -20.5t189.5 -58t140.5 -96.5t98.5 -128.5t62 -161.5t33 -188.5t9.5 -215.5q0 -76 -5 -132q-150 -27 -418.5 -54t-456.5 -35l-314 -14q6 -101 31 -175.5t64.5 -121.5t99 -75.5t126.5 -39.5t154 -11
q273 0 639 46zM969 1519q-79 0 -141.5 -14.5t-107 -39.5t-76.5 -65t-51.5 -84t-30.5 -104.5t-15 -118.5t-4 -133l358 17q255 12 460 40q4 31 4 83q0 212 -90.5 315.5t-305.5 103.5z" />
    <glyph glyph-name="Ecaron" unicode="&#x11a;" horiz-adv-x="1859" 
d="M1661 2011h-625q-84 0 -141 -6t-101.5 -22.5t-69.5 -40.5t-41 -67t-21.5 -95t-5.5 -130v-306h960v-317h-960v-347q0 -78 5.5 -130t21.5 -95t41 -67t69.5 -40.5t101.5 -22.5t141 -6h625v-309q-340 -16 -615 -16q-279 0 -416 31q-238 53 -324 230q-56 115 -56 289v1242
q0 333 212 456q138 81 415 91q66 3 169 3q275 0 615 -16v-309zM462 2952h314l211 -247l217 247h310l-393 -427h-258z" />
    <glyph glyph-name="ecaron" unicode="&#x11b;" horiz-adv-x="1918" 
d="M867 715l-314 -14q6 -101 31 -175.5t64.5 -121.5t99 -75.5t126.5 -39.5t154 -11q273 0 639 46l32 -283q-405 -65 -769 -65q-175 0 -307.5 45.5t-216.5 124t-136.5 196.5t-73 250.5t-20.5 298.5q0 248 40.5 416.5t134 282t244.5 164.5t374 51q136 0 245 -20.5t189.5 -58
t140.5 -96.5t98.5 -128.5t62 -161.5t33 -188.5t9.5 -215.5q0 -76 -5 -132q-150 -27 -418.5 -54t-456.5 -35zM543 960l358 17q255 12 460 40q4 31 4 83q0 212 -90.5 315.5t-305.5 103.5q-79 0 -141.5 -14.5t-107 -39.5t-76.5 -65t-51.5 -84t-30.5 -104.5t-15 -118.5t-4 -133z
M961 2220l203 305h290l-368 -527h-241l-375 527h294z" />
    <glyph glyph-name="Gbreve" unicode="&#x11e;" horiz-adv-x="2146" 
d="M1879 2291l-35 -311q-265 39 -600 39q-356 0 -498 -166q-101 -117 -124 -359q-9 -103 -9 -329q0 -285 19 -407q34 -225 162 -329q146 -118 450 -118q80 0 135.5 10.5t86 26t46.5 45t20 55.5t4 69v448h-400v311h801v-872q0 -66 -12.5 -120.5t-33.5 -95.5t-57.5 -73.5
t-74 -54.5t-94 -37.5t-107.5 -24.5t-124 -14t-134 -6.5t-147 -1.5q-164 0 -294 23t-230 67.5t-173.5 117.5t-123 165.5t-79.5 219t-43 270t-13 326.5q0 162 9.5 292t32 246.5t59 205.5t90.5 164t126 126t166.5 86.5t211.5 52t261 16.5q407 0 726 -63zM676 2932h220
q12 -84 70 -140t156 -56t156 56t70 140h220q-15 -175 -127 -284.5t-319 -109.5t-319 109.5t-127 284.5z" />
    <glyph glyph-name="gbreve" unicode="&#x11f;" horiz-adv-x="1953" 
d="M1336 65q-198 -49 -389 -49q-206 0 -347.5 44.5t-240.5 148.5t-144.5 276t-45.5 425q0 205 32 355.5t94.5 254.5t164 167t232.5 90.5t308 27.5q189 0 374 -38t326 -118q15 -162 15 -327v-1441q0 -132 -37.5 -232t-100.5 -162t-157 -100t-194.5 -52.5t-225.5 -14.5
q-311 0 -718 70l31 278q350 -50 644 -50q200 0 289.5 91t89.5 280v76zM1336 360v854q0 140 -11 239q-55 29 -145 44.5t-180 15.5q-87 0 -155.5 -17.5t-115 -45.5t-80 -75t-52 -93.5t-29 -113.5t-13.5 -123.5t-3 -134.5q0 -226 26 -328q42 -162 179 -224q105 -48 279 -48
q153 0 300 50zM551 2478h220q12 -96 70 -160.5t156 -64.5t156 64.5t70 160.5h220q-7 -96 -37 -176.5t-83.5 -143.5t-136.5 -98t-189 -35t-189 35t-136.5 98t-83.5 143.5t-37 176.5z" />
    <glyph glyph-name="Idotaccent" unicode="&#x130;" horiz-adv-x="928" 
d="M466 2529q-88 0 -148.5 59.5t-60.5 147.5t60.5 148t148.5 60t146.5 -59.5t58.5 -148.5q0 -88 -58.5 -147.5t-146.5 -59.5zM668 0h-408v2330h408v-2330z" />
    <glyph glyph-name="dotlessi" unicode="&#x131;" horiz-adv-x="866" 
d="M624 0h-382v1781h382v-1781z" />
    <glyph glyph-name="Lacute" unicode="&#x139;" horiz-adv-x="1649" 
d="M663 2330v-1650q0 -78 5.5 -130t21.5 -95t41 -67t69.5 -40.5t101.5 -22.5t141 -6h585v-311q-344 -14 -576 -14q-279 0 -416 31q-238 53 -324 230q-56 115 -56 289v1786h407zM630 2960h444l-463 -427h-315z" />
    <glyph glyph-name="lacute" unicode="&#x13a;" horiz-adv-x="835" 
d="M204 461v2008h381v-1991q0 -123 30 -215.5t100 -184.5l-331 -157q-91 103 -135.5 231.5t-44.5 308.5zM244 2619l334 427h444l-463 -427h-315z" />
    <glyph glyph-name="Lcaron" unicode="&#x13d;" horiz-adv-x="1649" 
d="M663 2330v-1650q0 -78 5.5 -130t21.5 -95t41 -67t69.5 -40.5t101.5 -22.5t141 -6h585v-311q-344 -14 -576 -14q-279 0 -416 31q-238 53 -324 230q-56 115 -56 289v1786h407zM897 1677l159 653h337l-246 -653h-250z" />
    <glyph glyph-name="lcaron" unicode="&#x13e;" horiz-adv-x="835" 
d="M204 461v2008h381v-1991q0 -123 30 -215.5t100 -184.5l-331 -157q-91 103 -135.5 231.5t-44.5 308.5zM985 1816h-250l159 653h337z" />
    <glyph glyph-name="Lslash" unicode="&#x141;" horiz-adv-x="1805" 
d="M412 1194v1136h407v-859l523 357v-308l-523 -357v-483q0 -78 5.5 -130t21.5 -95t41 -67t69.5 -40.5t101.5 -22.5t141 -6h585v-311q-344 -14 -576 -14q-279 0 -416 31q-238 53 -324 230q-56 115 -56 289v342l-294 -200v308z" />
    <glyph glyph-name="lslash" unicode="&#x142;" horiz-adv-x="972" 
d="M974 1536l-306 -240v-818q0 -123 30 -215.5t100 -184.5l-331 -157q-91 103 -135.5 231.5t-44.5 308.5v537l-289 -226v317l289 226v1154h381v-855l306 240v-318z" />
    <glyph glyph-name="Nacute" unicode="&#x143;" horiz-adv-x="2341" 
d="M873 2094l842 -1588v1824h363v-2058q0 -296 -250 -296q-116 0 -200.5 60t-159.5 202l-841 1592v-1830h-363v2059q0 295 250 295q112 0 198.5 -60.5t160.5 -199.5zM1260 2528h-315l334 427h444z" />
    <glyph glyph-name="nacute" unicode="&#x144;" horiz-adv-x="1983" 
d="M1751 1142v-1142h-380v1101q0 77 -5.5 129t-21 101t-44 79t-74.5 53t-112.5 32.5t-157.5 9.5q-90 0 -180 -15.5t-145 -44.5q-11 -99 -11 -239v-1206h-379v1322q0 165 15 327q318 156 804 156q132 0 235.5 -18t175.5 -48t124 -79t81.5 -101t47 -124.5t22.5 -138.5t5 -154z
M1077 2013h-294l312 527h415z" />
    <glyph glyph-name="Ncaron" unicode="&#x147;" horiz-adv-x="2341" 
d="M873 2094l842 -1588v1824h363v-2058q0 -296 -250 -296q-116 0 -200.5 60t-159.5 202l-841 1592v-1830h-363v2059q0 295 250 295q112 0 198.5 -60.5t160.5 -199.5zM645 2945h314l211 -247l217 247h310l-393 -427h-258z" />
    <glyph glyph-name="ncaron" unicode="&#x148;" horiz-adv-x="1983" 
d="M1751 1142v-1142h-380v1101q0 77 -5.5 129t-21 101t-44 79t-74.5 53t-112.5 32.5t-157.5 9.5q-90 0 -180 -15.5t-145 -44.5q-11 -99 -11 -239v-1206h-379v1322q0 165 15 327q318 156 804 156q132 0 235.5 -18t175.5 -48t124 -79t81.5 -101t47 -124.5t22.5 -138.5t5 -154z
M504 2532h294l197 -305l203 305h290l-368 -527h-241z" />
    <glyph glyph-name="Ohungarumlaut" unicode="&#x150;" horiz-adv-x="2245" 
d="M2045 1165q0 -217 -18.5 -381.5t-61 -301t-112 -229t-172.5 -156t-240.5 -92.5t-317.5 -29t-317.5 29t-241 92.5t-172.5 156t-112 229t-61.5 301t-18.5 381.5t18.5 381.5t61.5 301t112 229t172.5 156t241 92.5t317.5 29t317.5 -29t240.5 -92.5t172.5 -156t112 -229
t61 -301t18.5 -381.5zM614 1165q0 -317 23 -454q37 -227 164 -321q114 -84 322 -84q282 0 397 161q88 122 106 386q7 105 7 312q0 317 -23 455q-38 227 -165 321q-115 84 -322 84q-282 0 -397 -161q-87 -122 -105 -386q-7 -105 -7 -313zM909 2540h-303l317 426h426z
M1532 2540h-304l317 426h427z" />
    <glyph glyph-name="ohungarumlaut" unicode="&#x151;" horiz-adv-x="1945" 
d="M1765 891q0 -250 -41.5 -420.5t-136.5 -282.5t-244.5 -162t-370.5 -50t-370 48.5t-244.5 159.5t-137 282t-41.5 425t41.5 424.5t137 281.5t244.5 159.5t370 48.5t370.5 -50t244.5 -162t136.5 -282t41.5 -420zM562 891q0 -152 12 -253.5t39 -174t76 -112t116 -56.5
t167 -17q124 0 201 28.5t125.5 102t67 187t18.5 295.5t-18.5 295.5t-67 186.5t-126 101.5t-200.5 28.5q-83 0 -142.5 -11t-107 -39t-76.5 -71.5t-49 -114t-27.5 -160.5t-7.5 -216zM760 2035h-284l297 526h398zM1342 2035h-284l296 526h399z" />
    <glyph glyph-name="OE" unicode="&#x152;" horiz-adv-x="3242" 
d="M3044 2011h-625q-84 0 -141 -6t-101.5 -22.5t-69.5 -40.5t-41 -67t-21.5 -95t-5.5 -130v-306h960v-317h-960v-347q0 -78 5.5 -130t21.5 -95t41 -67t69.5 -40.5t101.5 -22.5t141 -6h625v-309q-340 -16 -615 -16q-96 0 -160 2t-147 11t-142 25t-118 47t-102 74
q-206 -177 -637 -177q-180 0 -317.5 29t-241 92.5t-172.5 156t-112 229t-61.5 301t-18.5 381.5t18.5 381.5t61.5 301t112 229t172.5 156t241 92.5t317.5 29q431 0 637 -177q53 53 125 87t167.5 48.5t175.5 19t201 4.5q275 0 615 -16v-309zM1123 2025q-282 0 -397 -161
q-87 -122 -105 -386q-7 -105 -7 -313q0 -317 23 -454q37 -227 164 -321q114 -84 322 -84q282 0 397 161q88 122 106 386q7 105 7 312q0 317 -23 455q-38 227 -165 321q-115 84 -322 84z" />
    <glyph glyph-name="oe" unicode="&#x153;" horiz-adv-x="3126" 
d="M972 1805q212 0 360 -48t242 -149q182 197 603 197q136 0 245 -20.5t189.5 -58t140.5 -96.5t98.5 -128.5t62 -161.5t33 -188.5t9.5 -215.5q0 -76 -5 -132q-150 -27 -418.5 -54t-456.5 -35l-314 -14q6 -101 31 -175.5t64.5 -121.5t99 -75.5t126.5 -39.5t154 -11
q273 0 639 46l32 -283q-405 -65 -769 -65q-374 0 -557 204q-94 -106 -243 -155t-366 -49q-221 0 -370 48.5t-244.5 159.5t-137 282t-41.5 425t41.5 424.5t137 281.5t244.5 159.5t370 48.5zM1384 891q0 182 -18.5 295.5t-67 186.5t-126 101.5t-200.5 28.5q-83 0 -142.5 -11
t-107 -39t-76.5 -71.5t-49 -114t-27.5 -160.5t-7.5 -216q0 -152 12 -253.5t39 -174t76 -112t116 -56.5t167 -17q124 0 201 28.5t125.5 102t67 187t18.5 295.5zM1751 960l358 17q255 12 460 40q4 31 4 83q0 212 -90.5 315.5t-305.5 103.5q-79 0 -141.5 -14.5t-107 -39.5
t-76.5 -65t-51.5 -84t-30.5 -104.5t-15 -118.5t-4 -133z" />
    <glyph glyph-name="Racute" unicode="&#x154;" horiz-adv-x="2126" 
d="M670 917v-917h-406v2293q336 61 744 61q117 0 211.5 -7t193 -27t173.5 -53.5t143 -88.5t111.5 -129t69 -178.5t25.5 -234.5q0 -156 -33.5 -275.5t-99 -201t-151.5 -132.5t-201 -80l545 -947h-473l-495 905q-151 0 -357 12zM670 2020v-784q120 -15 338 -15
q130 0 221.5 18.5t162.5 64t105.5 128.5t34.5 205q0 220 -115.5 313t-396.5 93q-177 0 -350 -23zM1127 2961h444l-463 -427h-315z" />
    <glyph glyph-name="racute" unicode="&#x155;" horiz-adv-x="1182" 
d="M618 1204v-1204h-379v1322q0 165 15 327q141 80 326 118t374 38q93 0 166 -7l-30 -302q-56 7 -136 7q-90 0 -180 -15.5t-145 -44.5q-11 -99 -11 -239zM717 2015h-294l312 527h415z" />
    <glyph glyph-name="Rcaron" unicode="&#x158;" horiz-adv-x="2126" 
d="M670 917v-917h-406v2293q336 61 744 61q117 0 211.5 -7t193 -27t173.5 -53.5t143 -88.5t111.5 -129t69 -178.5t25.5 -234.5q0 -156 -33.5 -275.5t-99 -201t-151.5 -132.5t-201 -80l545 -947h-473l-495 905q-151 0 -357 12zM670 2020v-784q120 -15 338 -15
q130 0 221.5 18.5t162.5 64t105.5 128.5t34.5 205q0 220 -115.5 313t-396.5 93q-177 0 -350 -23zM1042 2714l217 247h310l-393 -427h-258l-401 427h314z" />
    <glyph glyph-name="rcaron" unicode="&#x159;" horiz-adv-x="1182" 
d="M618 1204v-1204h-379v1322q0 165 15 327q141 80 326 118t374 38q93 0 166 -7l-30 -302q-56 7 -136 7q-90 0 -180 -15.5t-145 -44.5q-11 -99 -11 -239zM188 2532h294l197 -305l203 305h290l-368 -527h-241z" />
    <glyph glyph-name="Sacute" unicode="&#x15a;" horiz-adv-x="1826" 
d="M811 315q85 0 148 8t121 29.5t94.5 58t58 96t21.5 141.5q0 51 -11.5 94t-30 74t-49 58t-60.5 45t-73.5 35.5t-80 29l-85.5 26.5q-25 7 -37 11q-99 30 -169 55t-144 59t-123.5 70t-95.5 85.5t-72 108.5t-41.5 135t-15.5 169q0 146 35.5 256.5t101.5 185.5t168 121.5
t228 67t289 20.5q321 0 643 -66l-36 -313q-309 46 -497 46q-41 0 -70.5 -0.5t-75 -3.5t-79 -8t-75.5 -14.5t-72 -23.5t-61 -35t-50 -47.5t-31 -63t-12 -79.5q0 -168 101 -249q68 -54 234 -100q26 -8 84 -23q31 -9 47 -13q133 -36 229.5 -76t176.5 -97t129 -130t75 -172
t26 -226q0 -186 -56 -318.5t-167 -212.5t-266 -116.5t-364 -36.5q-332 0 -650 66l39 322q343 -49 601 -49zM1076 2968h444l-463 -427h-315z" />
    <glyph glyph-name="sacute" unicode="&#x15b;" horiz-adv-x="1628" 
d="M676 282q168 0 246 20q167 43 167 185q0 37 -9 68t-22 53t-36.5 41t-44 31t-54.5 24.5t-58 19l-63 17.5l-62 18q-199 61 -276 96q-174 81 -238 218q-44 96 -44 229q0 114 32 202t87 144.5t136 92t171.5 50t201.5 14.5q181 0 325.5 -16t307.5 -53l-36 -279
q-257 48 -445 48q-38 0 -59.5 -0.5t-63 -2.5t-68.5 -7t-63 -13t-59 -21.5t-45 -32t-32.5 -45.5t-10.5 -60q0 -39 11.5 -71t35.5 -56t48.5 -41.5t64 -33.5t67 -25l71.5 -22.5l66 -20.5q198 -67 247 -88q161 -69 230 -173q73 -110 73 -291q0 -120 -35.5 -212t-96 -150.5
t-150.5 -95.5t-189.5 -52t-222.5 -15q-333 0 -615 70l36 285q269 -49 474 -49zM965 2552h415l-433 -527h-294z" />
    <glyph glyph-name="Scedilla" unicode="&#x15e;" horiz-adv-x="1826" 
d="M1085 -6l-105 -166q105 -6 183 -70t78 -166q0 -75 -31.5 -132t-86 -89.5t-120.5 -48.5t-143 -16q-153 0 -271 70l60 159q108 -54 207 -54q55 0 93.5 23.5t38.5 73.5q0 38 -30.5 66.5t-77 42.5t-92 21t-86.5 7l155 262q-6 0 -18 -0.5t-18 -0.5q-332 0 -650 66l39 322
q343 -49 601 -49q85 0 148 8t121 29.5t94.5 58t58 96t21.5 141.5q0 51 -11.5 94t-30 74t-49 58t-60.5 45t-73.5 35.5t-80 29l-85.5 26.5q-25 7 -37 11q-99 30 -169 55t-144 59t-123.5 70t-95.5 85.5t-72 108.5t-41.5 135t-15.5 169q0 146 35.5 256.5t101.5 185.5t168 121.5
t228 67t289 20.5q321 0 643 -66l-36 -313q-309 46 -497 46q-41 0 -70.5 -0.5t-75 -3.5t-79 -8t-75.5 -14.5t-72 -23.5t-61 -35t-50 -47.5t-31 -63t-12 -79.5q0 -168 101 -249q68 -54 234 -100q26 -8 84 -23q31 -9 47 -13q133 -36 229.5 -76t176.5 -97t129 -130t75 -172
t26 -226q0 -303 -148.5 -463.5t-440.5 -202.5z" />
    <glyph glyph-name="scedilla" unicode="&#x15f;" horiz-adv-x="1628" 
d="M997 -10l-104 -163q105 -6 183 -70t78 -166q0 -75 -31.5 -132t-86 -89.5t-120.5 -48.5t-143 -16q-153 0 -271 70l60 159q108 -54 207 -54q55 0 93.5 23.5t38.5 73.5q0 38 -30.5 66.5t-77 42.5t-92 21t-86.5 7l156 262q-329 2 -605 70l36 285q269 -49 474 -49
q168 0 246 20q167 43 167 185q0 37 -9 68t-22 53t-36.5 41t-44 31t-54.5 24.5t-58 19l-63 17.5l-62 18q-199 61 -276 96q-174 81 -238 218q-44 96 -44 229q0 114 32 202t87 144.5t136 92t171.5 50t201.5 14.5q181 0 325.5 -16t307.5 -53l-36 -279q-257 48 -445 48
q-38 0 -59.5 -0.5t-63 -2.5t-68.5 -7t-63 -13t-59 -21.5t-45 -32t-32.5 -45.5t-10.5 -60q0 -39 11.5 -71t35.5 -56t48.5 -41.5t64 -33.5t67 -25l71.5 -22.5l66 -20.5q198 -67 247 -88q161 -69 230 -173q73 -110 73 -291q0 -441 -478 -511z" />
    <glyph glyph-name="Scaron" unicode="&#x160;" horiz-adv-x="1826" 
d="M811 315q85 0 148 8t121 29.5t94.5 58t58 96t21.5 141.5q0 51 -11.5 94t-30 74t-49 58t-60.5 45t-73.5 35.5t-80 29l-85.5 26.5q-25 7 -37 11q-99 30 -169 55t-144 59t-123.5 70t-95.5 85.5t-72 108.5t-41.5 135t-15.5 169q0 146 35.5 256.5t101.5 185.5t168 121.5
t228 67t289 20.5q321 0 643 -66l-36 -313q-309 46 -497 46q-41 0 -70.5 -0.5t-75 -3.5t-79 -8t-75.5 -14.5t-72 -23.5t-61 -35t-50 -47.5t-31 -63t-12 -79.5q0 -168 101 -249q68 -54 234 -100q26 -8 84 -23q31 -9 47 -13q133 -36 229.5 -76t176.5 -97t129 -130t75 -172
t26 -226q0 -186 -56 -318.5t-167 -212.5t-266 -116.5t-364 -36.5q-332 0 -650 66l39 322q343 -49 601 -49zM949 2721l217 247h310l-393 -427h-258l-401 427h314z" />
    <glyph glyph-name="scaron" unicode="&#x161;" horiz-adv-x="1628" 
d="M676 282q168 0 246 20q167 43 167 185q0 37 -9 68t-22 53t-36.5 41t-44 31t-54.5 24.5t-58 19l-63 17.5l-62 18q-199 61 -276 96q-174 81 -238 218q-44 96 -44 229q0 114 32 202t87 144.5t136 92t171.5 50t201.5 14.5q181 0 325.5 -16t307.5 -53l-36 -279
q-257 48 -445 48q-38 0 -59.5 -0.5t-63 -2.5t-68.5 -7t-63 -13t-59 -21.5t-45 -32t-32.5 -45.5t-10.5 -60q0 -39 11.5 -71t35.5 -56t48.5 -41.5t64 -33.5t67 -25l71.5 -22.5l66 -20.5q198 -67 247 -88q161 -69 230 -173q73 -110 73 -291q0 -120 -35.5 -212t-96 -150.5
t-150.5 -95.5t-189.5 -52t-222.5 -15q-333 0 -615 70l36 285q269 -49 474 -49zM820 2230l203 305h290l-368 -527h-241l-375 527h294z" />
    <glyph glyph-name="uni0162" unicode="&#x162;" horiz-adv-x="1715" 
d="M61 2330h1592v-323h-593v-2007h-408v2007h-591v323zM1021 -201l-229 -607h-232l147 607h314z" />
    <glyph glyph-name="uni0163" unicode="&#x163;" horiz-adv-x="1248" 
d="M1129 274l29 -272q-154 -26 -269 -26q-268 0 -391 118.5t-123 367.5v1037h-301v282h301v441l381 62v-503h370v-282h-370v-1005q0 -126 55.5 -175.5t182.5 -49.5q60 0 135 5zM925 -214l-229 -607h-232l147 607h314z" />
    <glyph glyph-name="Tcaron" unicode="&#x164;" horiz-adv-x="1715" 
d="M61 2330h1592v-323h-593v-2007h-408v2007h-591v323zM331 2925h314l211 -247l217 247h310l-393 -427h-258z" />
    <glyph glyph-name="tcaron" unicode="&#x165;" horiz-adv-x="1248" 
d="M1129 274l29 -272q-154 -26 -269 -26q-268 0 -391 118.5t-123 367.5v1037h-301v282h301v441l381 62v-503h370v-282h-370v-1005q0 -126 55.5 -175.5t182.5 -49.5q60 0 135 5zM1429 2645l-246 -653h-250l159 653h337z" />
    <glyph glyph-name="Uring" unicode="&#x16e;" horiz-adv-x="2224" 
d="M647 2330v-1582q0 -234 105 -335t358 -101t358 101t105 335v1582h401v-1556q0 -156 -27 -278.5t-81 -209.5t-127 -147.5t-173 -96t-210 -51t-246 -15.5t-246 15.5t-210 51t-173 96t-127 147.5t-81 209.5t-27 278.5v1556h401zM1455 2800q0 -142 -101 -243t-244 -101
t-244 101t-101 243q0 143 101 244t244 101t244 -101t101 -244zM929 2800q0 -75 53 -127.5t128 -52.5t128 52.5t53 127.5t-53 128t-128 53t-128 -53t-53 -128z" />
    <glyph glyph-name="uring" unicode="&#x16f;" horiz-adv-x="1975" 
d="M1355 575v1206h379v-1322q0 -165 -15 -327q-318 -156 -801 -156q-103 0 -188.5 11t-150.5 29.5t-117 49.5t-88 64.5t-62.5 80t-42 91.5t-24.5 104.5t-12 112t-3 120.5v1142h380v-1101q0 -77 5.5 -129t21 -101t43.5 -79t74 -53t111.5 -32.5t156.5 -9.5q89 0 178 15.5
t144 44.5q11 99 11 239zM1327 2285q0 -142 -101 -243t-244 -101t-244 101t-101 243q0 143 101 244t244 101t244 -101t101 -244zM801 2285q0 -75 53 -127.5t128 -52.5t128 52.5t53 127.5t-53 128t-128 53t-128 -53t-53 -128z" />
    <glyph glyph-name="Uhungarumlaut" unicode="&#x170;" horiz-adv-x="2224" 
d="M647 2330v-1582q0 -234 105 -335t358 -101t358 101t105 335v1582h401v-1556q0 -156 -27 -278.5t-81 -209.5t-127 -147.5t-173 -96t-210 -51t-246 -15.5t-246 15.5t-210 51t-173 96t-127 147.5t-81 209.5t-27 278.5v1556h401zM868 2544h-303l317 426h426zM1491 2544h-304
l317 426h427z" />
    <glyph glyph-name="uhungarumlaut" unicode="&#x171;" horiz-adv-x="1975" 
d="M1355 575v1206h379v-1322q0 -165 -15 -327q-318 -156 -801 -156q-103 0 -188.5 11t-150.5 29.5t-117 49.5t-88 64.5t-62.5 80t-42 91.5t-24.5 104.5t-12 112t-3 120.5v1142h380v-1101q0 -77 5.5 -129t21 -101t43.5 -79t74 -53t111.5 -32.5t156.5 -9.5q89 0 178 15.5
t144 44.5q11 99 11 239zM777 2061h-284l297 526h398zM1359 2061h-284l296 526h399z" />
    <glyph glyph-name="Ydieresis" unicode="&#x178;" horiz-adv-x="1980" 
d="M878 2718q0 -85 -55.5 -142t-139.5 -57q-85 0 -144.5 57.5t-59.5 141.5t59.5 142t144.5 58q84 0 139.5 -57.5t55.5 -142.5zM1539 2718q0 -85 -56 -142t-141 -57t-143 57t-58 142t58 142.5t143 57.5q84 0 140.5 -57.5t56.5 -142.5zM1191 900v-900h-407v900l-748 1430h436
l519 -1037l533 1037h419z" />
    <glyph glyph-name="Zacute" unicode="&#x179;" horiz-adv-x="1882" 
d="M661 331h1060v-331h-1356q-110 0 -169 39t-59 112q0 69 55 161l1019 1689h-1003v329h1296q111 0 168.5 -39.5t57.5 -111.5q0 -69 -55 -161zM720 2516l334 427h444l-463 -427h-315z" />
    <glyph glyph-name="zacute" unicode="&#x17a;" horiz-adv-x="1830" 
d="M703 305h895v-305h-1281q-71 0 -112 32.5t-41 87.5q0 63 53 136l901 1234h-882v291h1263q70 0 111.5 -32.5t41.5 -87.5q0 -62 -53 -134zM723 2031l312 527h415l-433 -527h-294z" />
    <glyph glyph-name="Zdotaccent" unicode="&#x17b;" horiz-adv-x="1882" 
d="M661 331h1060v-331h-1356q-110 0 -169 39t-59 112q0 69 55 161l1019 1689h-1003v329h1296q111 0 168.5 -39.5t57.5 -111.5q0 -69 -55 -161zM743 2737q0 88 60.5 148t148.5 60t146.5 -59.5t58.5 -148.5q0 -88 -58.5 -147.5t-146.5 -59.5t-148.5 59.5t-60.5 147.5z" />
    <glyph glyph-name="zdotaccent" unicode="&#x17c;" horiz-adv-x="1830" 
d="M703 305h895v-305h-1281q-71 0 -112 32.5t-41 87.5q0 63 53 136l901 1234h-882v291h1263q70 0 111.5 -32.5t41.5 -87.5q0 -62 -53 -134zM701 2238q0 88 60.5 148t148.5 60t146.5 -59.5t58.5 -148.5q0 -88 -58.5 -147.5t-146.5 -59.5t-148.5 59.5t-60.5 147.5z" />
    <glyph glyph-name="Zcaron" unicode="&#x17d;" horiz-adv-x="1882" 
d="M661 331h1060v-331h-1356q-110 0 -169 39t-59 112q0 69 55 161l1019 1689h-1003v329h1296q111 0 168.5 -39.5t57.5 -111.5q0 -69 -55 -161zM754 2943l211 -247l217 247h310l-393 -427h-258l-401 427h314z" />
    <glyph glyph-name="zcaron" unicode="&#x17e;" horiz-adv-x="1830" 
d="M703 305h895v-305h-1281q-71 0 -112 32.5t-41 87.5q0 63 53 136l901 1234h-882v291h1263q70 0 111.5 -32.5t41.5 -87.5q0 -62 -53 -134zM740 2558l197 -305l203 305h290l-368 -527h-241l-375 527h294z" />
    <glyph glyph-name="florin" unicode="&#x192;" horiz-adv-x="1567" 
d="M593 1428l46 337q23 169 111.5 287.5t221.5 175t301 56.5q113 0 236 -24l-40 -294q-90 15 -168 15q-66 0 -116.5 -22t-81 -54.5t-52.5 -85.5t-32.5 -99.5t-19.5 -111.5l-25 -180h423l-39 -292h-424l-125 -919q-45 -331 -229.5 -500.5t-483.5 -169.5q-65 0 -118 7l40 292
h45q158 0 248 75.5t113 242.5l130 972h-363l39 292h363z" />
    <glyph glyph-name="uni0218" unicode="&#x218;" horiz-adv-x="1826" 
d="M811 315q85 0 148 8t121 29.5t94.5 58t58 96t21.5 141.5q0 51 -11.5 94t-30 74t-49 58t-60.5 45t-73.5 35.5t-80 29l-85.5 26.5q-25 7 -37 11q-99 30 -169 55t-144 59t-123.5 70t-95.5 85.5t-72 108.5t-41.5 135t-15.5 169q0 146 35.5 256.5t101.5 185.5t168 121.5
t228 67t289 20.5q321 0 643 -66l-36 -313q-309 46 -497 46q-41 0 -70.5 -0.5t-75 -3.5t-79 -8t-75.5 -14.5t-72 -23.5t-61 -35t-50 -47.5t-31 -63t-12 -79.5q0 -168 101 -249q68 -54 234 -100q26 -8 84 -23q31 -9 47 -13q133 -36 229.5 -76t176.5 -97t129 -130t75 -172
t26 -226q0 -186 -56 -318.5t-167 -212.5t-266 -116.5t-364 -36.5q-332 0 -650 66l39 322q343 -49 601 -49zM689 -818l147 607h314l-229 -607h-232z" />
    <glyph glyph-name="uni0219" unicode="&#x219;" horiz-adv-x="1628" 
d="M676 282q168 0 246 20q167 43 167 185q0 37 -9 68t-22 53t-36.5 41t-44 31t-54.5 24.5t-58 19l-63 17.5l-62 18q-199 61 -276 96q-174 81 -238 218q-44 96 -44 229q0 114 32 202t87 144.5t136 92t171.5 50t201.5 14.5q181 0 325.5 -16t307.5 -53l-36 -279
q-257 48 -445 48q-38 0 -59.5 -0.5t-63 -2.5t-68.5 -7t-63 -13t-59 -21.5t-45 -32t-32.5 -45.5t-10.5 -60q0 -39 11.5 -71t35.5 -56t48.5 -41.5t64 -33.5t67 -25l71.5 -22.5l66 -20.5q198 -67 247 -88q161 -69 230 -173q73 -110 73 -291q0 -120 -35.5 -212t-96 -150.5
t-150.5 -95.5t-189.5 -52t-222.5 -15q-333 0 -615 70l36 285q269 -49 474 -49zM590 -811l147 607h314l-229 -607h-232z" />
    <glyph glyph-name="uni021A" unicode="&#x21a;" horiz-adv-x="1715" 
d="M61 2330h1592v-323h-593v-2007h-408v2007h-591v323zM1021 -201l-229 -607h-232l147 607h314z" />
    <glyph glyph-name="uni021B" unicode="&#x21b;" horiz-adv-x="1248" 
d="M1129 274l29 -272q-154 -26 -269 -26q-268 0 -391 118.5t-123 367.5v1037h-301v282h301v441l381 62v-503h370v-282h-370v-1005q0 -126 55.5 -175.5t182.5 -49.5q60 0 135 5zM925 -214l-229 -607h-232l147 607h314z" />
    <glyph glyph-name="circumflex" unicode="&#x2c6;" horiz-adv-x="1176" 
d="M386 1880h-290l368 527h241l375 -527h-294l-197 305z" />
    <glyph glyph-name="caron" unicode="&#x2c7;" horiz-adv-x="1113" 
d="M64 2407h294l197 -305l203 305h290l-368 -527h-241z" />
    <glyph glyph-name="uni02C9" unicode="&#x2c9;" horiz-adv-x="1443" 
d="M1218 1989h-994v249h994v-249z" />
    <glyph glyph-name="breve" unicode="&#x2d8;" horiz-adv-x="1108" 
d="M108 2370h220q12 -96 70 -160.5t156 -64.5t156 64.5t70 160.5h220q-7 -96 -37 -176.5t-83.5 -143.5t-136.5 -98t-189 -35t-189 35t-136.5 98t-83.5 143.5t-37 176.5z" />
    <glyph glyph-name="dotaccent" unicode="&#x2d9;" horiz-adv-x="691" 
d="M347 1931q-88 0 -148.5 59.5t-60.5 147.5t60.5 148t148.5 60t146.5 -59.5t58.5 -148.5q0 -88 -58.5 -147.5t-146.5 -59.5z" />
    <glyph glyph-name="ring" unicode="&#x2da;" horiz-adv-x="961" 
d="M825 2178q0 -142 -101 -243t-244 -101t-244 101t-101 243q0 143 101 244t244 101t244 -101t101 -244zM299 2178q0 -75 53 -127.5t128 -52.5t128 52.5t53 127.5t-53 128t-128 53t-128 -53t-53 -128z" />
    <glyph glyph-name="ogonek" unicode="&#x2db;" horiz-adv-x="730" 
d="M628 -448l61 -158q-58 -48 -139 -76t-156 -28q-142 0 -232.5 77t-90.5 209q0 115 74 228.5t170 195.5h218q-212 -203 -212 -352q0 -67 37.5 -107.5t102.5 -40.5q95 0 167 52z" />
    <glyph glyph-name="tilde" unicode="&#x2dc;" horiz-adv-x="1215" 
d="M855 2327h209q-7 -97 -33.5 -175t-65 -125.5t-84.5 -72.5t-95 -25q-56 0 -101.5 18.5t-74 44.5t-52 52t-47.5 44.5t-49 18.5q-78 0 -102 -170h-209q7 97 33.5 174.5t65 125.5t84.5 73t95 25q56 0 101.5 -18.5t74 -44.5t52 -52t47.5 -44.5t49 -18.5q39 0 64 40.5t38 129.5
z" />
    <glyph glyph-name="hungarumlaut" unicode="&#x2dd;" horiz-adv-x="1392" 
d="M373 1869h-284l297 526h398zM955 1869h-284l296 526h399z" />
    <glyph glyph-name="uni03A9" unicode="&#x3a9;" horiz-adv-x="2522" 
d="M1100 0h-943v316h419q-168 176 -269.5 410.5t-101.5 513.5q0 242 82.5 450.5t225 353.5t340 227.5t421.5 82.5q187 0 353 -59t291 -163t216.5 -242t138.5 -301.5t47 -336.5q0 -285 -104 -525t-270 -411h419v-316h-940v236q101 61 189 152.5t161.5 212.5t116 279t42.5 331
q0 97 -19 194.5t-55.5 190t-93.5 172.5t-128.5 140.5t-166 95t-200.5 34.5q-202 0 -358.5 -113t-238.5 -301.5t-82 -418.5q0 -163 43 -319t115 -278.5t161.5 -217t188.5 -154.5v-236z" />
    <glyph glyph-name="uni03BC" unicode="&#x3bc;" horiz-adv-x="2109" 
d="M284 -656v2437h352v-1085q0 -181 88 -291.5t251 -110.5q112 0 196 51.5t135 147t76 222.5t25 287v779h354v-1101q0 -57 0.5 -83t2 -74t5.5 -71t11.5 -58.5t19 -55t28.5 -42.5t40 -37t53 -24v-259q-370 0 -461 347q-164 -347 -486 -347q-201 0 -339 148v-780h-351z" />
    <glyph glyph-name="pi" unicode="&#x3c0;" horiz-adv-x="2275" 
d="M2155 1461h-420q-43 -255 -43 -626q0 -278 98.5 -418t308.5 -140l-27 -301q-129 0 -233 19.5t-180 53.5t-132.5 86.5t-92 113t-57.5 138t-30.5 156t-8.5 173.5q0 353 54 745h-490q-32 -502 -84.5 -885t-111.5 -576h-390q97 321 150 653.5t92 805.5h-82q-93 0 -161 -18
t-162 -64l-90 213q180 191 536 191h1592z" />
    <glyph glyph-name="uni200A" unicode="&#x200a;" horiz-adv-x="73" 
 />
    <glyph glyph-name="uni2010" unicode="&#x2010;" horiz-adv-x="1292" 
d="M1078 726h-864v319h864v-319z" />
    <glyph glyph-name="endash" unicode="&#x2013;" horiz-adv-x="2035" 
d="M1821 736h-1607v299h1607v-299z" />
    <glyph glyph-name="emdash" unicode="&#x2014;" horiz-adv-x="3588" 
d="M3374 736h-3160v299h3160v-299z" />
    <glyph glyph-name="quoteleft" unicode="&#x2018;" horiz-adv-x="808" 
d="M429 2469h304l-193 -794h-410z" />
    <glyph glyph-name="quoteright" unicode="&#x2019;" horiz-adv-x="808" 
d="M434 1675h-304l193 794h410z" />
    <glyph glyph-name="quotesinglbase" unicode="&#x201a;" horiz-adv-x="807" 
d="M388 -415h-304l193 794h410z" />
    <glyph glyph-name="quotedblleft" unicode="&#x201c;" horiz-adv-x="1420" 
d="M130 1675l299 794h304l-193 -794h-410zM741 1675l299 794h305l-193 -794h-411z" />
    <glyph glyph-name="quotedblright" unicode="&#x201d;" horiz-adv-x="1420" 
d="M733 2469l-299 -794h-304l193 794h410zM1345 2469l-299 -794h-304l193 794h410z" />
    <glyph glyph-name="quotedblbase" unicode="&#x201e;" horiz-adv-x="1419" 
d="M388 -415h-304l193 794h410zM1000 -415h-304l193 794h410z" />
    <glyph glyph-name="dagger" unicode="&#x2020;" horiz-adv-x="1830" 
d="M1098 1755h619v-316h-619v-1859h-376v1859h-609v316h609v621h376v-621z" />
    <glyph glyph-name="daggerdbl" unicode="&#x2021;" horiz-adv-x="1902" 
d="M1136 1830h613v-317h-613v-501h613v-313h-613v-1119h-374v1119h-610v313h610v501h-610v317h610v546h374v-546z" />
    <glyph glyph-name="bullet" unicode="&#x2022;" horiz-adv-x="1257" 
d="M1094 1119q0 -193 -136.5 -329.5t-329.5 -136.5q-95 0 -181.5 37t-148.5 99t-99 148.5t-37 181.5q0 193 136.5 329.5t329.5 136.5q126 0 233.5 -62.5t170 -170t62.5 -233.5z" />
    <glyph glyph-name="ellipsis" unicode="&#x2026;" horiz-adv-x="2978" 
d="M422 -24q-133 0 -181.5 49.5t-48.5 181.5q0 131 49.5 181t180.5 50q132 0 181.5 -50t49.5 -181q0 -132 -48.5 -181.5t-182.5 -49.5zM1489 -24q-133 0 -181.5 49.5t-48.5 181.5q0 131 49.5 181t180.5 50t180.5 -50t49.5 -181q0 -132 -48.5 -181.5t-181.5 -49.5zM2555 -24
q-133 0 -181.5 49.5t-48.5 181.5q0 131 49.5 181t180.5 50q132 0 181.5 -50t49.5 -181q0 -132 -48.5 -181.5t-182.5 -49.5z" />
    <glyph glyph-name="perthousand" unicode="&#x2030;" horiz-adv-x="4043" 
d="M139 1651q0 147 12.5 251t45.5 192t90 139.5t147 80t216 28.5q90 0 161.5 -14.5t125 -41t92 -70.5t64 -97.5t40.5 -128t21 -155t6 -184.5t-6 -184.5t-21 -154.5t-40.5 -127.5t-64 -97.5t-92 -70.5t-125 -41t-161.5 -14.5q-126 0 -216 28.5t-147 80t-90 139.5t-45.5 191.5
t-12.5 250.5zM883 1651q0 64 -1 103t-4 91.5t-9.5 83.5t-17.5 67.5t-28 57.5t-41 40t-57 27t-75 8q-143 0 -193 -111q-37 -81 -40 -285v-82q0 -57 0.5 -92t3 -83t6.5 -76.5t12.5 -64.5t20 -57t29 -43.5t40.5 -34t53.5 -19t67.5 -7.5q42 0 75 8t57 27t41 39.5t28 57.5
t17.5 68t9.5 83t4 91t1 103zM1679 679q0 122 8.5 212.5t29.5 171.5t58 135.5t93.5 94.5t136 58.5t184.5 18.5q126 0 215.5 -28.5t147 -80.5t90 -140t45 -191.5t12.5 -250.5q0 -104 -6 -184.5t-21 -155t-40.5 -128t-64 -97.5t-92 -70.5t-124.5 -41t-162 -14.5
q-90 0 -161.5 14.5t-125 41t-92 70.5t-64 97.5t-40.5 128t-21 155t-6 184.5zM2422 679q0 221 -20 306q-30 129 -127 160q-37 12 -86 12q-42 0 -75 -8t-57 -27t-41 -40t-28 -57.5t-17.5 -67.5t-9.5 -83.5t-4 -91.5t-1 -103t1 -103t4 -91t9.5 -83t17.5 -68t28 -57.5t41 -39.5
t57 -27t75 -8q37 0 67.5 7.5t53.5 19t40.5 34t29 43.5t20 57t12.5 64.5t6.5 76.5t3 83t0.5 92zM2879 679q0 147 12.5 250.5t45.5 191.5t90 140t147 80.5t216 28.5t215.5 -28.5t147 -80.5t90 -140t45 -191.5t12.5 -250.5q0 -104 -6 -184.5t-21 -155t-40.5 -128t-64 -97.5
t-92 -70.5t-124.5 -41t-162 -14.5q-126 0 -216 28.5t-147 80t-90 139.5t-45.5 192t-12.5 251zM3623 679q0 64 -1 103t-4 91.5t-9.5 83.5t-17.5 67.5t-28 57.5t-41 40t-57 27t-75 8q-143 0 -193 -111q-37 -81 -40 -285v-82q0 -57 0.5 -92t3 -83t6.5 -76.5t12.5 -64.5t20 -57
t29 -43.5t40.5 -34t53.5 -19t67.5 -7.5q42 0 75 8t57 27t41 39.5t28 57.5t17.5 68t9.5 83t4 91t1 103zM1965 2378h274l-1368 -2426h-273z" />
    <glyph glyph-name="guilsinglleft" unicode="&#x2039;" horiz-adv-x="1077" 
d="M941 1547l-439 -685l439 -684h-367l-485 684l485 685h367z" />
    <glyph glyph-name="guilsinglright" unicode="&#x203a;" horiz-adv-x="1077" 
d="M575 862l-439 685h367l485 -685l-485 -684h-367z" />
    <glyph glyph-name="fraction" unicode="&#x2044;" horiz-adv-x="548" 
d="M-274 -48h-273l1368 2426h274z" />
    <glyph glyph-name="uni2070" unicode="&#x2070;" horiz-adv-x="1269" 
d="M635 2729q90 0 161.5 -14.5t125 -41t92 -70.5t64 -97.5t40.5 -128t21 -155t6 -184.5t-6 -184.5t-21 -154.5t-40.5 -127.5t-64 -97.5t-92 -70.5t-125 -41t-161.5 -14.5q-126 0 -216 28.5t-147 80t-90 139.5t-45.5 191.5t-12.5 250.5t12.5 251t45.5 192t90 139.5t147 80
t216 28.5zM635 2516q-143 0 -193 -111q-37 -81 -40 -285v-82q0 -57 0.5 -92t3 -83t6.5 -76.5t12.5 -64t20 -56.5t29 -43.5t40.5 -34t53.5 -19t67.5 -7.5q34 0 61.5 5t49.5 17.5t39 26t29.5 37t21.5 44.5t15 55t9.5 61.5t5 70.5t2 75.5t0.5 83.5q0 64 -1 103t-4 91.5
t-9.5 83.5t-17.5 67.5t-28 57.5t-41 40t-57 27t-75 8z" />
    <glyph glyph-name="uni2074" unicode="&#x2074;" horiz-adv-x="1205" 
d="M1131 1872v-206h-168v-306h-272v306h-458q-100 0 -140.5 36t-40.5 103q0 81 94 201l465 599q53 68 101.5 95t108.5 27q63 0 102.5 -40t39.5 -116v-699h168zM692 1872v468l-352 -468h352z" />
    <glyph glyph-name="uni2075" unicode="&#x2075;" horiz-adv-x="1159" 
d="M1022 2717v-227h-601l-18 -276q48 2 67 2q79 0 140 -4t124.5 -15t109.5 -30t87.5 -51t67.5 -76t41 -106.5t15 -140.5q0 -233 -129.5 -337.5t-387.5 -104.5q-216 0 -437 47l28 206q225 -31 348 -31q87 0 136.5 8t88 33.5t53 74t14.5 129.5q0 50 -21.5 86t-53.5 55.5
t-81.5 31t-92 14.5t-99.5 3q-140 0 -289 -8l49 717h841z" />
    <glyph glyph-name="uni2076" unicode="&#x2076;" horiz-adv-x="1236" 
d="M645 2223q123 0 210 -19t155 -66t101.5 -133t33.5 -213q0 -106 -25 -185t-69 -129t-112 -80.5t-145 -42.5t-177 -12t-178 17.5t-132 52.5t-91.5 82t-58.5 112.5t-30 137t-9 162.5q0 162 12.5 277t46 210.5t87 155.5t139 100.5t198.5 57.5t270 17q8 0 168 -3l22 -210
q-32 -2 -92.5 -3.5t-103 -3t-101.5 -8t-101.5 -17.5t-89.5 -33t-78 -53t-54.5 -79t-30.5 -110q134 18 235 18zM392 1881q0 -56 4 -97.5t17.5 -86.5t36.5 -73.5t64 -47t98 -18.5q147 0 202.5 52t55.5 185q0 130 -63 177t-197 47q-87 0 -215 -18q-3 -37 -3 -120z" />
    <glyph glyph-name="uni2077" unicode="&#x2077;" horiz-adv-x="1060" 
d="M175 1363l552 1126h-666v226h804q76 0 118.5 -33t42.5 -89q0 -35 -22 -84l-518 -1146h-311z" />
    <glyph glyph-name="uni2078" unicode="&#x2078;" horiz-adv-x="1238" 
d="M1114 2388q0 -118 -36 -188.5t-146 -133.5q102 -60 151 -135.5t49 -191.5q0 -94 -27 -164t-71.5 -113t-112.5 -69t-139.5 -35.5t-161.5 -9.5q-118 0 -208 19.5t-160.5 63t-107.5 121t-37 187.5q0 115 48 187.5t154 135.5q-96 57 -139 132t-43 194q0 341 493 341
q77 0 143 -8.5t132.5 -31.5t113 -60t76 -98.5t29.5 -142.5zM862 1745q0 72 -22.5 111.5t-86 64t-187.5 37.5q-189 -38 -189 -213q0 -108 63 -148t180 -40q55 0 95 8t75.5 27.5t53.5 58t18 94.5zM620 2526q-53 0 -90 -6t-71.5 -23t-52 -52t-17.5 -89q0 -43 10.5 -72t40 -55
t88 -41t147.5 -20q96 24 138 64.5t42 123.5q0 53 -17.5 88t-52 52.5t-72.5 23.5t-93 6z" />
    <glyph glyph-name="uni2079" unicode="&#x2079;" horiz-adv-x="1236" 
d="M590 1854q-123 0 -210 19t-155 66t-101.5 133t-33.5 213q0 106 25 185t69 129t112 80.5t145 42.5t177 12t178 -17.5t132 -52.5t91.5 -82t58.5 -112.5t30 -137t9 -162.5q0 -162 -12.5 -277t-46 -210.5t-87 -155.5t-139 -100.5t-198.5 -57.5t-270 -17q-8 0 -168 3l-22 210
q32 2 92.5 3.5t103 3t101.5 8t101.5 17.5t89.5 33t78 53t54.5 79t30.5 110q-134 -18 -235 -18zM365 2282q0 -130 63 -177t197 -47q87 0 215 18q3 37 3 120q0 56 -4 97.5t-17.5 86.5t-36.5 73.5t-64 47t-98 18.5q-147 0 -202.5 -52t-55.5 -185z" />
    <glyph glyph-name="uni2080" unicode="&#x2080;" horiz-adv-x="1269" 
d="M635 981q90 0 161.5 -14.5t125 -41t92 -70.5t64 -97.5t40.5 -128t21 -155t6 -184.5t-6 -184.5t-21 -154.5t-40.5 -127.5t-64 -97.5t-92 -70.5t-125 -41t-161.5 -14.5q-126 0 -216 28.5t-147 80t-90 139.5t-45.5 191.5t-12.5 250.5t12.5 251t45.5 192t90 139.5t147 80
t216 28.5zM635 768q-143 0 -193 -111q-37 -81 -40 -285v-82q0 -57 0.5 -92t3 -83t6.5 -76.5t12.5 -64t20 -56.5t29 -43.5t40.5 -34t53.5 -19t67.5 -7.5q34 0 61.5 5t49.5 17.5t39 26t29.5 37t21.5 44.5t15 55t9.5 61.5t5 70.5t2 75.5t0.5 83.5q0 64 -1 103t-4 91.5
t-9.5 83.5t-17.5 67.5t-28 57.5t-41 40t-57 27t-75 8z" />
    <glyph glyph-name="uni2081" unicode="&#x2081;" horiz-adv-x="780" 
d="M616 -385h-273v1086q-132 -32 -302 -53l-12 211q204 30 374 108h213v-1352z" />
    <glyph glyph-name="uni2082" unicode="&#x2082;" horiz-adv-x="1163" 
d="M1053 -160v-228h-958q49 275 88 381q53 146 159 230q69 54 181 102q137 57 194.5 115t57.5 155q0 98 -66.5 130.5t-250.5 32.5q-113 0 -315 -30l-25 204q250 47 447 47q87 0 157.5 -9.5t133.5 -34t105.5 -63t67 -98.5t24.5 -139q0 -181 -100 -303t-299 -202
q-70 -28 -114.5 -56t-71 -64t-39.5 -74t-22 -96h646z" />
    <glyph glyph-name="uni2083" unicode="&#x2083;" horiz-adv-x="1149" 
d="M519 981q86 0 154 -7.5t136 -30.5t112.5 -60t72.5 -100.5t28 -148.5q0 -206 -175 -307q196 -90 196 -297q0 -121 -36 -206t-107 -133.5t-165 -69.5t-223 -21q-185 0 -422 46l29 206q240 -31 344 -31q160 0 226.5 39.5t66.5 159.5q0 162 -138 180q-104 13 -274 13h-45v198
q171 4 318 25q66 10 95 52.5t29 115.5q0 43 -12.5 73t-32 47t-53.5 26t-66 11.5t-81 2.5q-127 0 -366 -32l-27 204q238 45 416 45z" />
    <glyph glyph-name="uni2084" unicode="&#x2084;" horiz-adv-x="1205" 
d="M1131 124v-206h-168v-306h-272v306h-458q-100 0 -140.5 36t-40.5 103q0 81 94 201l465 599q53 68 101.5 95t108.5 27q63 0 102.5 -40t39.5 -116v-699h168zM692 124v468l-352 -468h352z" />
    <glyph glyph-name="uni2085" unicode="&#x2085;" horiz-adv-x="1159" 
d="M1022 969v-227h-601l-18 -276q48 2 67 2q79 0 140 -4t124.5 -15t109.5 -30t87.5 -51t67.5 -76t41 -106.5t15 -140.5q0 -233 -129.5 -337.5t-387.5 -104.5q-216 0 -437 47l28 206q225 -31 348 -31q87 0 136.5 8t88 33.5t53 74t14.5 129.5q0 50 -21.5 86t-53.5 55.5
t-81.5 31t-92 14.5t-99.5 3q-140 0 -289 -8l49 717h841z" />
    <glyph glyph-name="uni2086" unicode="&#x2086;" horiz-adv-x="1236" 
d="M645 475q123 0 210 -19t155 -66t101.5 -133t33.5 -213q0 -106 -25 -185t-69 -129t-112 -80.5t-145 -42.5t-177 -12t-178 17.5t-132 52.5t-91.5 82t-58.5 112.5t-30 137t-9 162.5q0 162 12.5 277t46 210.5t87 155.5t139 100.5t198.5 57.5t270 17q8 0 168 -3l22 -210
q-32 -2 -92.5 -3.5t-103 -3t-101.5 -8t-101.5 -17.5t-89.5 -33t-78 -53t-54.5 -79t-30.5 -110q134 18 235 18zM392 133q0 -56 4 -97.5t17.5 -86.5t36.5 -73.5t64 -47t98 -18.5q147 0 202.5 52t55.5 185q0 130 -63 177t-197 47q-87 0 -215 -18q-3 -37 -3 -120z" />
    <glyph glyph-name="uni2087" unicode="&#x2087;" horiz-adv-x="1060" 
d="M175 -385l552 1126h-666v226h804q76 0 118.5 -33t42.5 -89q0 -35 -22 -84l-518 -1146h-311z" />
    <glyph glyph-name="uni2088" unicode="&#x2088;" horiz-adv-x="1238" 
d="M1114 640q0 -118 -36 -188.5t-146 -133.5q102 -60 151 -135.5t49 -191.5q0 -94 -27 -164t-71.5 -113t-112.5 -69t-139.5 -35.5t-161.5 -9.5q-118 0 -208 19.5t-160.5 63t-107.5 121t-37 187.5q0 115 48 187.5t154 135.5q-96 57 -139 132t-43 194q0 341 493 341
q77 0 143 -8.5t132.5 -31.5t113 -60t76 -98.5t29.5 -142.5zM862 -3q0 72 -22.5 111.5t-86 64t-187.5 37.5q-189 -38 -189 -213q0 -108 63 -148t180 -40q55 0 95 8t75.5 27.5t53.5 58t18 94.5zM620 778q-53 0 -90 -6t-71.5 -23t-52 -52t-17.5 -89q0 -43 10.5 -72t40 -55
t88 -41t147.5 -20q96 24 138 64.5t42 123.5q0 53 -17.5 88t-52 52.5t-72.5 23.5t-93 6z" />
    <glyph glyph-name="uni2089" unicode="&#x2089;" horiz-adv-x="1236" 
d="M590 106q-123 0 -210 19t-155 66t-101.5 133t-33.5 213q0 106 25 185t69 129t112 80.5t145 42.5t177 12t178 -17.5t132 -52.5t91.5 -82t58.5 -112.5t30 -137t9 -162.5q0 -162 -12.5 -277t-46 -210.5t-87 -155.5t-139 -100.5t-198.5 -57.5t-270 -17q-8 0 -168 3l-22 210
q32 2 92.5 3.5t103 3t101.5 8t101.5 17.5t89.5 33t78 53t54.5 79t30.5 110q-134 -18 -235 -18zM365 534q0 -130 63 -177t197 -47q87 0 215 18q3 37 3 120q0 56 -4 97.5t-17.5 86.5t-36.5 73.5t-64 47t-98 18.5q-147 0 -202.5 -52t-55.5 -185z" />
    <glyph glyph-name="Euro" unicode="&#x20ac;" horiz-adv-x="1853" 
d="M140 1230l50 226h189q12 146 37 260.5t68 208.5t105 160t147 111.5t194.5 66.5t248.5 21q274 0 509 -69l-30 -300q-235 44 -404 44q-106 0 -185.5 -24t-131 -65t-85 -106.5t-50 -138t-23.5 -169.5h733l-50 -226h-690v-174h651l-49 -225h-596q6 -102 21 -178t48 -145.5
t84.5 -112.5t132.5 -68.5t190 -25.5q169 0 404 44l30 -300q-235 -69 -509 -69q-141 0 -252 22t-196.5 68.5t-147.5 114.5t-104.5 165.5t-66.5 215.5t-35 269h-257l49 225h199v74q0 67 1 100h-229z" />
    <glyph glyph-name="uni2113" unicode="&#x2113;" horiz-adv-x="1696" 
d="M377 930q1 549 43 827q64 420 255 578q132 111 337 111q104 0 185.5 -39.5t131.5 -108.5t76 -158t26 -193q0 -508 -692 -1071q10 -130 24.5 -224t40.5 -177.5t63.5 -134.5t93.5 -80t131 -29q90 0 170 51t194 164l137 -154q-235 -316 -579 -316q-117 0 -213 36.5
t-162.5 98.5t-116.5 151t-79 186t-46 212l-216 -131l-101 197zM1130 1957q0 253 -143 253q-171 0 -222 -345q-23 -156 -28 -505q-1 -97 -2 -141q197 197 296 372.5t99 365.5z" />
    <glyph glyph-name="trademark" unicode="&#x2122;" horiz-adv-x="3214" 
d="M2104 932l-405 1038h-2v-1038h-264v1398h380l383 -974l376 974h376v-1398h-263v1039h-2l-405 -1039h-174zM133 2330h1109v-225h-422v-1173h-264v1173h-423v225z" />
    <glyph glyph-name="Omega" unicode="&#x2126;" horiz-adv-x="2522" 
d="M1100 0h-943v316h419q-168 176 -269.5 410.5t-101.5 513.5q0 242 82.5 450.5t225 353.5t340 227.5t421.5 82.5q187 0 353 -59t291 -163t216.5 -242t138.5 -301.5t47 -336.5q0 -285 -104 -525t-270 -411h419v-316h-940v236q101 61 189 152.5t161.5 212.5t116 279t42.5 331
q0 97 -19 194.5t-55.5 190t-93.5 172.5t-128.5 140.5t-166 95t-200.5 34.5q-202 0 -358.5 -113t-238.5 -301.5t-82 -418.5q0 -163 43 -319t115 -278.5t161.5 -217t188.5 -154.5v-236z" />
    <glyph glyph-name="estimated" unicode="&#x212e;" horiz-adv-x="2714" 
d="M2215 496h206q-99 -120 -206 -212t-236 -163t-283.5 -108t-329.5 -37q-266 0 -493 84t-384 229.5t-246 348t-89 433.5q0 144 38.5 282t109.5 259.5t178.5 223.5t239.5 175t297.5 114t348.5 41q224 0 413 -54t328.5 -151.5t241 -234.5t159 -301.5t74.5 -353.5h-1898v-741
q280 -236 682 -236q534 0 849 402zM684 1809v-619h1368v619q-302 240 -686 240q-404 0 -682 -240z" />
    <glyph glyph-name="uni2190" unicode="&#x2190;" horiz-adv-x="2340" 
d="M764 807l506 -635h-384l-751 806l751 806h384l-506 -634h1441v-343h-1441z" />
    <glyph glyph-name="uni2191" unicode="&#x2191;" horiz-adv-x="1882" 
d="M1113 1385v-1442h-343v1442l-635 -506v384l806 751l806 -751v-384z" />
    <glyph glyph-name="uni2192" unicode="&#x2192;" horiz-adv-x="2340" 
d="M2205 978l-751 -806h-384l507 635h-1442v343h1442l-507 634h384z" />
    <glyph glyph-name="uni2193" unicode="&#x2193;" horiz-adv-x="1882" 
d="M1747 1079v-384l-806 -752l-806 752v384l635 -507v1442h343v-1442z" />
    <glyph glyph-name="uni21E8" unicode="&#x21e8;" horiz-adv-x="2665" 
d="M2595 979l-1043 -1010v556h-1363v908h1363v555zM1715 688v-326l649 617l-649 617v-326h-1365v-582h1365z" />
    <glyph glyph-name="partialdiff" unicode="&#x2202;" horiz-adv-x="1823" 
d="M764 -24q-125 0 -230 38.5t-179.5 106t-126.5 159.5t-77 197.5t-25 221.5q0 186 52.5 342t149 269t242 176t323.5 63q117 0 216.5 -48.5t164.5 -116.5q-19 804 -484 804q-114 0 -198 -28.5t-187 -91.5l-69 229q245 172 538 172q197 0 346 -83.5t242 -238.5t139.5 -364.5
t46.5 -470.5q0 -394 -103 -694.5t-304.5 -471t-476.5 -170.5zM913 1274q-126 0 -219.5 -83t-138.5 -211.5t-45 -279.5q0 -88 18 -168.5t52.5 -146.5t92 -105.5t129.5 -39.5q73 0 136.5 34t110 95t83.5 138.5t62 172t40.5 188t23.5 192.5q-67 103 -149 158.5t-196 55.5z" />
    <glyph glyph-name="Delta" unicode="&#x2206;" horiz-adv-x="2218" 
d="M106 224l806 2106h412l789 -2100v-230h-2007v224zM1691 305l-585 1566l-590 -1566h1175z" />
    <glyph glyph-name="product" unicode="&#x220f;" horiz-adv-x="2593" 
d="M2113 -443h-392v2509h-846v-2509h-392v2509h-378v334h2383v-334h-375v-2509z" />
    <glyph glyph-name="summation" unicode="&#x2211;" horiz-adv-x="2046" 
d="M647 2080l797 -1054l-868 -1120h1382v-349h-1874v238l913 1182l-874 1174v249h1781v-320h-1257z" />
    <glyph glyph-name="minus" unicode="&#x2212;" horiz-adv-x="1925" 
d="M1790 807h-1655v343h1655v-343z" />
    <glyph glyph-name="uni2215" unicode="&#x2215;" horiz-adv-x="548" 
d="M-274 -48h-273l1368 2426h274z" />
    <glyph glyph-name="uni2219" unicode="&#x2219;" horiz-adv-x="871" 
d="M435 724q-133 0 -181.5 49.5t-48.5 181.5q0 131 49.5 181t180.5 50q132 0 181.5 -50t49.5 -181q0 -132 -48.5 -181.5t-182.5 -49.5z" />
    <glyph glyph-name="radical" unicode="&#x221a;" horiz-adv-x="1903" 
d="M1847 2866l-703 -3076h-327l-471 1371l-229 -89l-80 255l555 218l377 -1170l560 2491h318z" />
    <glyph glyph-name="infinity" unicode="&#x221e;" horiz-adv-x="2768" 
d="M148 978q0 114 41 221t112 189t173.5 131.5t218.5 49.5q305 0 582 -325l78.5 94t80 88.5t88.5 86t92 71t103 60t110 36t123 14.5q149 0 272 -59t202.5 -158.5t123 -228t43.5 -270.5q0 -141 -43.5 -269.5t-123 -228.5t-202.5 -159t-272 -59q-62 0 -122.5 14.5t-110 35.5
t-103.5 59t-92 70.5t-88 85.5t-80.5 88.5l-78.5 93.5q-272 -318 -582 -318q-154 0 -280.5 83.5t-195.5 217.5t-69 286zM469 978q0 -122 63 -193t161 -71q86 0 177 59.5t209 204.5q-119 146 -210 207t-176 61q-98 0 -161 -72.5t-63 -195.5zM1476 978q267 -389 474 -389
q137 0 224 103t87 286q0 184 -87 287t-224 103q-207 0 -474 -390z" />
    <glyph glyph-name="integral" unicode="&#x222b;" horiz-adv-x="1240" 
d="M1259 2398q-94 69 -199 69q-53 0 -95.5 -20.5t-71.5 -54t-50 -83.5t-33 -100t-19 -113.5t-9 -114.5t-2 -111q0 -265 30 -800.5t30 -814.5q0 -80 -7.5 -158.5t-27 -165t-49 -162.5t-77 -146t-107.5 -120t-144 -79.5t-183 -29.5q-83 0 -182.5 30t-156.5 65l70 271
q45 -29 109.5 -49.5t130.5 -20.5q78 0 131.5 39t83.5 117.5t43 180.5t13 244q0 254 -28.5 814t-28.5 813q0 89 7 169.5t25 168t47.5 160.5t77.5 139.5t110.5 112.5t151.5 73.5t196 27.5q74 0 154.5 -27.5t133.5 -62.5z" />
    <glyph glyph-name="approxequal" unicode="&#x2248;" horiz-adv-x="2156" 
d="M702 1611q88 0 170 -22t147 -53l129 -62t142.5 -53t162.5 -22q130 0 259.5 46t215.5 136v-343q-86 -90 -215.5 -136t-259.5 -46q-88 0 -170 22t-147 53l-129 62.5t-142.5 53.5t-162.5 22q-130 0 -259.5 -46t-215.5 -136v342q86 90 215.5 136t259.5 46zM1928 870v-342
q-86 -90 -215.5 -136t-259.5 -46q-88 0 -170 22t-147 53l-129 62t-142.5 53t-162.5 22q-130 0 -259.5 -46t-215.5 -136v343q86 90 215.5 135.5t259.5 45.5q88 0 170 -22t147 -53l129 -62t142.5 -53t162.5 -22q130 0 259.5 46t215.5 136z" />
    <glyph glyph-name="notequal" unicode="&#x2260;" horiz-adv-x="2110" 
d="M688 451h-461v343h611l162 369h-773v343h923l220 502h270l-220 -502h462v-343h-612l-162 -369h774v-343h-924l-219 -502h-270z" />
    <glyph glyph-name="lessequal" unicode="&#x2264;" horiz-adv-x="2091" 
d="M1861 775v-358l-1683 656v301l1683 656v-357l-1205 -449zM1861 -73h-1683v343h1683v-343z" />
    <glyph glyph-name="greaterequal" unicode="&#x2265;" horiz-adv-x="2091" 
d="M1913 1073l-1683 -656v358l1205 449l-1205 449v357l1683 -656v-301zM230 270h1683v-343h-1683v343z" />
    <glyph glyph-name="lozenge" unicode="&#x25ca;" horiz-adv-x="1874" 
d="M126 1167l659 1256h306l658 -1256l-658 -1260h-306zM493 1167l445 -887l445 887l-445 889z" />
    <glyph glyph-name="zero.numerator" horiz-adv-x="1269" 
d="M635 2342q90 0 161.5 -14.5t125 -41t92 -70.5t64 -97.5t40.5 -128t21 -155t6 -184.5t-6 -184.5t-21 -154.5t-40.5 -127.5t-64 -97.5t-92 -70.5t-125 -41t-161.5 -14.5q-126 0 -216 28.5t-147 80t-90 139.5t-45.5 191.5t-12.5 250.5t12.5 251t45.5 192t90 139.5t147 80
t216 28.5zM635 2129q-143 0 -193 -111q-37 -81 -40 -285v-82q0 -57 0.5 -92t3 -83t6.5 -76.5t12.5 -64t20 -56.5t29 -43.5t40.5 -34t53.5 -19t67.5 -7.5q34 0 61.5 5t49.5 17.5t39 26t29.5 37t21.5 44.5t15 55t9.5 61.5t5 70.5t2 75.5t0.5 83.5q0 64 -1 103t-4 91.5
t-9.5 83.5t-17.5 67.5t-28 57.5t-41 40t-57 27t-75 8z" />
    <glyph glyph-name="one.numerator" horiz-adv-x="780" 
d="M616 976h-273v1086q-132 -32 -302 -53l-12 211q204 30 374 108h213v-1352z" />
    <glyph glyph-name="two.numerator" horiz-adv-x="1163" 
d="M1053 1201v-228h-958q49 275 88 381q53 146 159 230q69 54 181 102q137 57 194.5 114.5t57.5 155.5t-66.5 130.5t-250.5 32.5q-113 0 -315 -30l-25 204q250 47 447 47q87 0 157.5 -9.5t133.5 -34t105.5 -63t67 -98.5t24.5 -139q0 -181 -100 -303t-299 -202
q-70 -28 -114.5 -56t-71 -64t-39.5 -74t-22 -96h646z" />
    <glyph glyph-name="three.numerator" horiz-adv-x="1149" 
d="M519 2342q86 0 154 -7.5t136 -30.5t112.5 -60t72.5 -100.5t28 -148.5q0 -206 -175 -307q196 -90 196 -297q0 -121 -36 -206t-107 -133.5t-165 -69.5t-223 -21q-185 0 -422 46l29 206q240 -31 344 -31q160 0 226.5 39.5t66.5 159.5q0 162 -138 180q-104 13 -274 13h-45
v198q171 4 318 25q66 10 95 52.5t29 115.5q0 43 -12.5 73t-32 47t-53.5 26t-66 11.5t-81 2.5q-127 0 -366 -32l-27 204q238 45 416 45z" />
    <glyph glyph-name="four.numerator" horiz-adv-x="1205" 
d="M1131 1485v-206h-168v-306h-272v306h-458q-100 0 -140.5 36t-40.5 103q0 81 94 201l465 599q53 68 101.5 95t108.5 27q63 0 102.5 -40t39.5 -116v-699h168zM692 1485v468l-352 -468h352z" />
    <glyph glyph-name="five.numerator" horiz-adv-x="1159" 
d="M1022 2330v-227h-601l-18 -276q48 2 67 2q79 0 140 -4t124.5 -15t109.5 -30t87.5 -51t67.5 -76t41 -106.5t15 -140.5q0 -233 -129.5 -337.5t-387.5 -104.5q-216 0 -437 47l28 206q225 -31 348 -31q87 0 136.5 8t88 33.5t53 74t14.5 129.5q0 50 -21.5 86t-53.5 55.5
t-81.5 31t-92 14.5t-99.5 3q-140 0 -289 -8l49 717h841z" />
    <glyph glyph-name="six.numerator" horiz-adv-x="1236" 
d="M645 1836q123 0 210 -19t155 -66t101.5 -133t33.5 -213q0 -106 -25 -185t-69 -129t-112 -80.5t-145 -42.5t-177 -12t-178 17.5t-132 52.5t-91.5 82t-58.5 112.5t-30 137t-9 162.5q0 162 12.5 277t46 210.5t87 155.5t139 100.5t198.5 57.5t270 17q8 0 168 -3l22 -210
q-32 -2 -92.5 -3.5t-103 -3t-101.5 -8t-101.5 -17.5t-89.5 -33t-78 -53t-54.5 -79t-30.5 -110q134 18 235 18zM392 1494q0 -56 4 -97.5t17.5 -86.5t36.5 -73.5t64 -47t98 -18.5q147 0 202.5 52t55.5 185q0 130 -63 177t-197 47q-87 0 -215 -18q-3 -37 -3 -120z" />
    <glyph glyph-name="seven.numerator" horiz-adv-x="1060" 
d="M175 976l552 1126h-666v226h804q76 0 118.5 -33t42.5 -89q0 -35 -22 -84l-518 -1146h-311z" />
    <glyph glyph-name="eight.numerator" horiz-adv-x="1238" 
d="M1114 2001q0 -118 -36 -188.5t-146 -133.5q102 -60 151 -135.5t49 -191.5q0 -94 -27 -164t-71.5 -113t-112.5 -69t-139.5 -35.5t-161.5 -9.5q-118 0 -208 19.5t-160.5 63t-107.5 121t-37 187.5q0 115 48 187.5t154 135.5q-96 57 -139 132t-43 194q0 341 493 341
q77 0 143 -8.5t132.5 -31.5t113 -60t76 -98.5t29.5 -142.5zM862 1358q0 72 -22.5 111.5t-86 64t-187.5 37.5q-189 -38 -189 -213q0 -108 63 -148t180 -40q55 0 95 8t75.5 27.5t53.5 58t18 94.5zM620 2139q-53 0 -90 -6t-71.5 -23t-52 -52t-17.5 -89q0 -43 10.5 -72t40 -55
t88 -41t147.5 -20q96 24 138 64.5t42 123.5q0 53 -17.5 88t-52 52.5t-72.5 23.5t-93 6z" />
    <glyph glyph-name="nine.numerator" horiz-adv-x="1236" 
d="M590 1467q-123 0 -210 19t-155 66t-101.5 133t-33.5 213q0 106 25 185t69 129t112 80.5t145 42.5t177 12t178 -17.5t132 -52.5t91.5 -82t58.5 -112.5t30 -137t9 -162.5q0 -162 -12.5 -277t-46 -210.5t-87 -155.5t-139 -100.5t-198.5 -57.5t-270 -17q-8 0 -168 3l-22 210
q32 2 92.5 3.5t103 3t101.5 8t101.5 17.5t89.5 33t78 53t54.5 79t30.5 110q-134 -18 -235 -18zM365 1895q0 -130 63 -177t197 -47q87 0 215 18q3 37 3 120q0 56 -4 97.5t-17.5 86.5t-36.5 73.5t-64 47t-98 18.5q-147 0 -202.5 -52t-55.5 -185z" />
    <glyph glyph-name="zero.denominator" horiz-adv-x="1269" 
d="M635 1369q90 0 161.5 -14.5t125 -41t92 -70.5t64 -97.5t40.5 -128t21 -155t6 -184.5t-6 -184.5t-21 -154.5t-40.5 -127.5t-64 -97.5t-92 -70.5t-125 -41t-161.5 -14.5q-126 0 -216 28.5t-147 80t-90 139.5t-45.5 191.5t-12.5 250.5t12.5 251t45.5 192t90 139.5t147 80
t216 28.5zM635 1156q-143 0 -193 -111q-37 -81 -40 -285v-82q0 -57 0.5 -92t3 -83t6.5 -76.5t12.5 -64t20 -56.5t29 -43.5t40.5 -34t53.5 -19t67.5 -7.5q34 0 61.5 5t49.5 17.5t39 26t29.5 37t21.5 44.5t15 55t9.5 61.5t5 70.5t2 75.5t0.5 83.5q0 64 -1 103t-4 91.5
t-9.5 83.5t-17.5 67.5t-28 57.5t-41 40t-57 27t-75 8z" />
    <glyph glyph-name="one.denominator" horiz-adv-x="780" 
d="M616 3h-273v1086q-132 -32 -302 -53l-12 211q204 30 374 108h213v-1352z" />
    <glyph glyph-name="two.denominator" horiz-adv-x="1163" 
d="M1053 228v-228h-958q49 275 88 381q53 146 159 230q69 54 181 102q137 57 194.5 115t57.5 155q0 98 -66.5 130.5t-250.5 32.5q-113 0 -315 -30l-25 204q250 47 447 47q87 0 157.5 -9.5t133.5 -34t105.5 -63t67 -98.5t24.5 -139q0 -181 -100 -303t-299 -202
q-70 -28 -114.5 -56t-71 -64t-39.5 -74t-22 -96h646z" />
    <glyph glyph-name="three.denominator" horiz-adv-x="1149" 
d="M519 1369q86 0 154 -7.5t136 -30.5t112.5 -60t72.5 -100.5t28 -148.5q0 -206 -175 -307q196 -90 196 -297q0 -121 -36 -206t-107 -133.5t-165 -69.5t-223 -21q-185 0 -422 46l29 206q240 -31 344 -31q160 0 226.5 39.5t66.5 159.5q0 162 -138 180q-104 13 -274 13h-45
v198q171 4 318 25q66 10 95 52.5t29 115.5q0 43 -12.5 73t-32 47t-53.5 26t-66 11.5t-81 2.5q-127 0 -366 -32l-27 204q238 45 416 45z" />
    <glyph glyph-name="four.denominator" horiz-adv-x="1205" 
d="M1131 512v-206h-168v-306h-272v306h-458q-100 0 -140.5 36t-40.5 103q0 81 94 201l465 599q53 68 101.5 95t108.5 27q63 0 102.5 -40t39.5 -116v-699h168zM692 512v468l-352 -468h352z" />
    <glyph glyph-name="five.denominator" horiz-adv-x="1159" 
d="M1022 1357v-227h-601l-18 -276q48 2 67 2q79 0 140 -4t124.5 -15t109.5 -30t87.5 -51t67.5 -76t41 -106.5t15 -140.5q0 -233 -129.5 -337.5t-387.5 -104.5q-216 0 -437 47l28 206q225 -31 348 -31q87 0 136.5 8t88 33.5t53 74t14.5 129.5q0 50 -21.5 86t-53.5 55.5
t-81.5 31t-92 14.5t-99.5 3q-140 0 -289 -8l49 717h841z" />
    <glyph glyph-name="six.denominator" horiz-adv-x="1236" 
d="M645 863q123 0 210 -19t155 -66t101.5 -133t33.5 -213q0 -106 -25 -185t-69 -129t-112 -80.5t-145 -42.5t-177 -12t-178 17.5t-132 52.5t-91.5 82t-58.5 112.5t-30 137t-9 162.5q0 162 12.5 277t46 210.5t87 155.5t139 100.5t198.5 57.5t270 17q8 0 168 -3l22 -210
q-32 -2 -92.5 -3.5t-103 -3t-101.5 -8t-101.5 -17.5t-89.5 -33t-78 -53t-54.5 -79t-30.5 -110q134 18 235 18zM392 521q0 -56 4 -97.5t17.5 -86.5t36.5 -73.5t64 -47t98 -18.5q147 0 202.5 52t55.5 185q0 130 -63 177t-197 47q-87 0 -215 -18q-3 -37 -3 -120z" />
    <glyph glyph-name="seven.denominator" horiz-adv-x="1060" 
d="M175 3l552 1126h-666v226h804q76 0 118.5 -33t42.5 -89q0 -35 -22 -84l-518 -1146h-311z" />
    <glyph glyph-name="eight.denominator" horiz-adv-x="1238" 
d="M1114 1028q0 -118 -36 -188.5t-146 -133.5q102 -60 151 -135.5t49 -191.5q0 -94 -27 -164t-71.5 -113t-112.5 -69t-139.5 -35.5t-161.5 -9.5q-118 0 -208 19.5t-160.5 63t-107.5 121t-37 187.5q0 115 48 187.5t154 135.5q-96 57 -139 132t-43 194q0 341 493 341
q77 0 143 -8.5t132.5 -31.5t113 -60t76 -98.5t29.5 -142.5zM862 385q0 72 -22.5 111.5t-86 64t-187.5 37.5q-189 -38 -189 -213q0 -108 63 -148t180 -40q55 0 95 8t75.5 27.5t53.5 58t18 94.5zM620 1166q-53 0 -90 -6t-71.5 -23t-52 -52t-17.5 -89q0 -43 10.5 -72t40 -55
t88 -41t147.5 -20q96 24 138 64.5t42 123.5q0 53 -17.5 88t-52 52.5t-72.5 23.5t-93 6z" />
    <glyph glyph-name="nine.denominator" horiz-adv-x="1236" 
d="M590 494q-123 0 -210 19t-155 66t-101.5 133t-33.5 213q0 106 25 185t69 129t112 80.5t145 42.5t177 12t178 -17.5t132 -52.5t91.5 -82t58.5 -112.5t30 -137t9 -162.5q0 -162 -12.5 -277t-46 -210.5t-87 -155.5t-139 -100.5t-198.5 -57.5t-270 -17q-8 0 -168 3l-22 210
q32 2 92.5 3.5t103 3t101.5 8t101.5 17.5t89.5 33t78 53t54.5 79t30.5 110q-134 -18 -235 -18zM365 922q0 -130 63 -177t197 -47q87 0 215 18q3 37 3 120q0 56 -4 97.5t-17.5 86.5t-36.5 73.5t-64 47t-98 18.5q-147 0 -202.5 -52t-55.5 -185z" />
    <glyph glyph-name="zero.onum" horiz-adv-x="1907" 
d="M1721 948q0 -147 -9 -260t-31.5 -217.5t-60.5 -179.5t-96 -137t-138.5 -100t-187.5 -58t-243 -20t-243 20t-187.5 58t-139 100t-97 137t-61 179.5t-31.5 218t-9 259.5q0 147 9 260.5t31.5 218t61 180t96.5 137.5t138.5 100t188 58t243.5 20q119 0 216 -14.5t173 -46
t134 -75t99.5 -107t69.5 -135.5t44 -168t23 -198t7 -230zM568 948q0 -270 23 -383q35 -178 153 -242q81 -44 211 -44q222 0 308 134q65 102 75 332q3 71 3 203q0 270 -21 381q-34 179 -149 244q-82 47 -216 47q-222 0 -308 -135q-66 -102 -76 -333q-3 -71 -3 -204z" />
    <glyph glyph-name="one.onum" horiz-adv-x="1144" 
d="M903 0h-375v1522q-220 -56 -469 -86l-17 300q317 46 562 164h299v-1900z" />
    <glyph glyph-name="two.onum" horiz-adv-x="1720" 
d="M555 314h1002v-314h-1416q68 350 118 492q69 201 193 316q116 107 332 191q224 87 318 168.5t94 215.5q0 142 -110 188.5t-417 46.5q-186 0 -457 -39l-38 282q351 61 662 61q129 0 233.5 -13.5t197.5 -47t155.5 -87.5t99 -138.5t36.5 -195.5q0 -259 -149 -429t-449 -280
q-118 -43 -191 -83.5t-117 -91.5t-64 -104.5t-33 -137.5z" />
    <glyph glyph-name="three.onum" horiz-adv-x="1723" 
d="M777 1922q90 0 166 -5.5t155 -21t141.5 -40.5t118.5 -66t93 -95t58.5 -129.5t21.5 -168.5q0 -329 -282 -476q151 -63 233 -174t82 -287q0 -148 -36 -260.5t-102 -186.5t-166.5 -120.5t-220.5 -66t-274 -19.5q-271 0 -629 66l41 294q342 -45 512 -45q105 0 176.5 7.5
t133 27.5t97 56.5t55 93.5t19.5 138q0 134 -59 205.5t-178 87.5q-170 22 -429 22h-45v279q249 6 474 39q114 17 164 86.5t50 187.5q0 51 -10.5 90.5t-28 67t-47.5 47t-61 30.5t-76.5 17t-86 8t-97.5 2q-217 0 -546 -45l-37 288q339 66 620 66z" />
    <glyph glyph-name="four.onum" horiz-adv-x="1814" 
d="M1072 -172v475h-738q-141 0 -198.5 52t-57.5 149q0 122 142 305l722 930q79 102 149.5 142.5t156.5 40.5t140 -58t54 -168v-1102h261v-291h-261v-475h-370zM1073 1404l-610 -810h610v810z" />
    <glyph glyph-name="five.onum" horiz-adv-x="1738" 
d="M1531 1900v-325h-932l-31 -458q86 4 130 4q120 0 212 -6t188 -23t165.5 -46t132.5 -77.5t102 -115t61.5 -161t22.5 -213.5q0 -354 -195 -514t-582 -160q-323 0 -653 68l40 293q299 -45 517 -45q70 0 121.5 2.5t101 10t83.5 20.5t64.5 34t49 50t32.5 69.5t20 92t6 117.5
q0 59 -18 106t-47 79t-74.5 55t-91.5 36t-106.5 21t-111 10t-114.5 2q-226 0 -424 -11l75 1085h1256z" />
    <glyph glyph-name="six.onum" horiz-adv-x="1857" 
d="M971 1313q121 0 217 -12t183 -40t149.5 -77t108.5 -120.5t69 -172.5t23 -231q0 -135 -25 -241t-75 -180.5t-117 -126t-159 -81t-192.5 -42.5t-225.5 -13q-180 0 -312 40t-215.5 110t-134 181t-69.5 237.5t-19 294.5q0 185 10.5 328t37 270t68 218.5t106 167.5t149.5 125
t200.5 82.5t255.5 48t319 14.5q69 0 235 -4l32 -299q-47 -3 -121.5 -6t-131 -4.5t-132 -7.5t-133 -14.5t-124 -26t-116 -41.5t-98 -61.5t-79.5 -85t-52 -113.5t-24 -146q224 29 392 29zM916 1026q-147 0 -358 -31q-7 -74 -7 -198q0 -89 6.5 -156t29.5 -138.5t61.5 -117.5
t107.5 -75.5t163 -29.5q165 0 257 37.5t131 119.5t39 227q0 110 -28 182t-86.5 111t-132.5 54t-183 15z" />
    <glyph glyph-name="seven.onum" horiz-adv-x="1589" 
d="M91 1900h1224q106 0 164.5 -47t58.5 -128q0 -58 -30 -125l-802 -1773h-431l858 1749h-1042v324z" />
    <glyph glyph-name="eight.onum" horiz-adv-x="1863" 
d="M933 -24q-141 0 -254.5 17.5t-212 60t-164.5 110t-103.5 170t-37.5 237.5q0 125 37 216.5t103.5 155t181.5 129.5q-158 86 -224.5 200t-66.5 304q0 88 22.5 161.5t61 126t95 93t119 66t139 41.5t149.5 22.5t155 6.5q95 0 179 -9.5t170.5 -30.5t155 -60.5t123 -94.5
t84 -137.5t29.5 -184.5q0 -92 -11 -156t-42 -126t-88.5 -114t-149.5 -103q111 -62 178 -126.5t104.5 -159t37.5 -221.5q0 -142 -40.5 -248.5t-108 -171.5t-169 -105t-209 -54.5t-243.5 -14.5zM933 272q72 0 127.5 7.5t108.5 27.5t87.5 53.5t55.5 89t21 129.5q0 88 -18.5 143
t-72.5 97.5t-147 66t-246 38.5q-319 -66 -319 -345q0 -75 20.5 -130t55 -88.5t87.5 -53.5t109.5 -27.5t130.5 -7.5zM1021 1221q153 40 227 108.5t74 197.5q0 70 -20.5 121t-53.5 81t-85.5 47.5t-105.5 23t-124 5.5q-70 0 -121.5 -5.5t-104 -22.5t-85 -47t-53 -81t-20.5 -122
q0 -55 10 -95.5t40 -79t81.5 -64t136.5 -43.5t204 -24z" />
    <glyph glyph-name="nine.onum" horiz-adv-x="1858" 
d="M885 585q-121 0 -217 12t-183 40t-149.5 77t-108.5 120.5t-69 172.5t-23 231q0 135 25 241t75 180.5t117 126t159 81t192.5 42.5t225.5 13q180 0 312 -40t215.5 -110t134 -181t69.5 -237.5t19 -294.5q0 -185 -10.5 -328t-37 -270t-68 -218.5t-106 -167.5t-149.5 -125
t-200.5 -82.5t-255.5 -48t-319 -14.5q-69 0 -235 4l-32 299q47 3 121.5 6t131 4.5t132 7.5t133 14.5t124 26t116 41.5t98 61.5t79.5 85t52 113.5t24 146q-224 -29 -392 -29zM1305 1101q0 89 -6.5 156t-29.5 138.5t-61.5 117.5t-107.5 75.5t-163 29.5q-165 0 -257 -37.5
t-131 -119.5t-39 -227q0 -110 28 -182t86.5 -111t132.5 -54t183 -15q147 0 358 31q7 73 7 198z" />
    <glyph glyph-name="dollar.onum" horiz-adv-x="1558" 
d="M145 338q300 -44 539 -44q92 0 156 11.5t118 41.5t80.5 87.5t26.5 144.5q0 34 -6.5 63.5t-16 53t-29 45t-35 36t-46.5 31l-50 26t-59 23.5t-61 20.5l-67 20.5q-88 27 -150.5 49t-128.5 53t-110.5 63t-85 76.5t-64 97.5t-37.5 121t-14 151q0 276 136.5 411t411.5 164v284
h269v-277q258 -9 496 -59l-34 -294q-291 41 -447 41q-48 0 -80 -1t-84 -5.5t-87.5 -13t-77 -25.5t-67 -41t-42.5 -61t-17 -84q0 -37 6.5 -68.5t16 -56t28.5 -47t34.5 -37.5t44 -30l47 -24t54.5 -20.5t55 -16.5l59.5 -15.5l58.5 -15.5q118 -32 204.5 -68.5t158 -87.5
t115 -116.5t67 -154t23.5 -202.5q0 -277 -138 -420.5t-410 -178.5v-289h-269v277q-269 5 -529 60z" />
    <glyph glyph-name="cent.onum" horiz-adv-x="1334" 
d="M1215 550l32 -274q-178 -41 -357 -53v-277h-252v279q-91 11 -164.5 42t-125.5 75t-90.5 105.5t-62 127t-38 147.5t-19.5 159t-5 169q0 119 9 212.5t30 180t58.5 150t93 114.5t134 83.5t180.5 47.5v285h252v-273q177 -5 354 -56l-28 -266q-198 33 -280 33q-62 0 -111 -3
t-90.5 -12t-73 -19.5t-56.5 -30.5t-42.5 -40.5t-30.5 -53t-20 -65.5t-11.5 -81t-6 -94.5t-1.5 -111.5q0 -224 21 -311q29 -125 126 -175.5t298 -50.5q94 0 277 37z" />
    <glyph glyph-name="Euro.onum" horiz-adv-x="1711" 
d="M129 1115l51 225h171q17 201 62 338.5t131 232.5t219 138.5t323 43.5q256 0 473 -65l-29 -292q-231 42 -375 42q-93 0 -163 -21t-115.5 -57t-75.5 -92.5t-45 -120t-22 -147.5h668l-51 -225h-625v-138h595l-50 -224h-539q6 -89 20 -155.5t43.5 -127t75 -98t117 -59.5
t167.5 -22q144 0 375 42l29 -292q-217 -65 -473 -65q-194 0 -327.5 45t-220 143t-130.5 239.5t-59 349.5h-238l50 224h179v138h-211z" />
    <glyph glyph-name="sterling.onum" horiz-adv-x="1819" 
d="M426 904h-299v286h258q-20 173 -20 322q0 136 39 239t105 167.5t163 104.5t202.5 55.5t234.5 15.5q85 0 157 -13t124 -32t106.5 -55t91.5 -67.5t92 -83.5l-194 -229q-94 82 -177.5 122t-189.5 40q-108 0 -180 -19.5t-113.5 -62t-58.5 -102.5t-17 -149q0 -98 18 -253h456
v-286h-426q6 -104 6 -162q0 -85 -27.5 -201.5t-66.5 -218.5h399q276 0 511 38l33 -299q-108 -26 -304 -43.5t-399 -17.5h-488q-96 0 -143 41t-47 107q0 32 17.5 75.5t42 92.5t49 106.5t42 135.5t17.5 160q0 76 -14 186z" />
    <glyph glyph-name="yen.onum" horiz-adv-x="1712" 
d="M472 2073l385 -881l398 881h372l-439 -955h222v-243h-333l-34 -74v-100h367v-240h-367v-461h-379v461h-362v240h362v100l-34 74h-328v243h218l-435 955h387z" />
    <glyph glyph-name="zero.tnum" 
d="M1819 1130q0 -134 -6 -243.5t-19.5 -214t-36.5 -186t-57.5 -155.5t-81.5 -128.5t-108.5 -99t-139 -71.5t-173.5 -41.5t-211 -14.5q-129 0 -234.5 17.5t-188 54.5t-145.5 88.5t-108.5 126.5t-76 161t-48.5 199.5t-25.5 234t-7.5 272.5t7.5 272.5t25.5 234t48.5 199.5
t76 161t108.5 126.5t145.5 88.5t188 54.5t234.5 17.5q115 0 211 -14.5t173.5 -41.5t139 -71.5t108.5 -99t81.5 -128.5t57.5 -155.5t36.5 -186t19.5 -214t6 -243.5zM549 1130q0 -327 22 -466q36 -222 157 -308q95 -68 258 -68q241 0 340 155q77 121 92 392q5 100 5 295
q0 327 -22 465q-36 224 -157 310q-95 68 -258 68q-241 0 -340 -155q-77 -121 -92 -393q-5 -100 -5 -295z" />
    <glyph glyph-name="one.tnum" 
d="M1025 2260h316v-2260h-391v1869q-241 -63 -518 -97l-17 308q330 50 610 180z" />
    <glyph glyph-name="two.tnum" 
d="M1750 0h-1554q71 395 121 556q72 233 199 368q130 137 383 244q98 42 166.5 78t126 79t91.5 90.5t52 106.5t18 132q0 77 -19 129t-58 87.5t-110 54.5t-163 27t-230 8q-212 0 -505 -46l-36 297q391 73 723 73q143 0 257.5 -15.5t217.5 -55t172 -102t109 -161t40 -227.5
q0 -302 -164 -504.5t-494 -334.5q-107 -43 -180 -86t-120.5 -86.5t-77 -103t-45 -119.5t-27.5 -152h1107v-337z" />
    <glyph glyph-name="three.tnum" 
d="M891 2284q98 0 181 -6t169 -23t153.5 -44t128.5 -70.5t101 -102t63.5 -140.5t23.5 -182q0 -370 -327 -526q174 -67 268.5 -188t94.5 -318q0 -161 -39.5 -282.5t-110.5 -202t-180.5 -131t-240.5 -71.5t-298 -21q-303 0 -680 71l42 302q378 -48 555 -48q117 0 198 8.5
t150 31.5t108.5 64t61.5 105.5t22 156.5q0 153 -67.5 235t-203.5 99q-187 23 -463 23h-48v287q264 6 511 42q131 19 188 98t57 215q0 58 -12 103.5t-31.5 76.5t-53.5 53.5t-68.5 35t-86 19.5t-97 9t-109.5 2q-227 0 -591 -48l-39 296q370 71 670 71z" />
    <glyph glyph-name="four.tnum" 
d="M1177 0v523h-823q-150 0 -210.5 55t-60.5 156q0 131 154 329l795 1024q86 110 161 153.5t167 43.5q89 0 146 -61.5t57 -177.5v-1223h287v-299h-287v-523h-386zM1178 1757l-704 -935h704v935z" />
    <glyph glyph-name="five.tnum" 
d="M208 49l41 302q337 -49 560 -49q106 0 177 5.5t136.5 22.5t104 47.5t68 80.5t41 121t11.5 170q0 67 -20 120t-53 89.5t-84 63t-102.5 41.5t-119.5 23.5t-124.5 11t-128.5 2.5q-236 0 -455 -11l81 1171h1361v-335h-1024l-36 -527q87 5 155 5q100 0 181 -3.5t166 -13.5
t152 -27t132.5 -44.5t114.5 -65.5t91 -90t68.5 -117.5t41.5 -150t15 -185.5q0 -384 -211.5 -557t-633.5 -173q-360 0 -706 73z" />
    <glyph glyph-name="six.tnum" 
d="M1030 1426q160 0 280 -18.5t224 -66.5t170.5 -127t103.5 -203.5t37 -293.5q0 -175 -41 -305t-112.5 -213t-182.5 -133.5t-237 -70t-290 -19.5q-140 0 -253.5 22t-198 62.5t-147.5 103.5t-103.5 138.5t-66 174t-35.5 203.5t-10 234q0 202 11.5 358.5t40 295t73.5 238.5
t116 183t163 136.5t218.5 90.5t279 52.5t347.5 15.5q67 0 250 -4l32 -309q-48 -2 -129 -4t-143 -3t-145.5 -6.5t-148 -15t-139.5 -29t-130.5 -47t-109.5 -71.5t-88 -99.5t-55.5 -133t-22.5 -171.5q247 35 442 35zM558 869q0 -70 3.5 -125.5t14.5 -118t29 -109.5t49.5 -91.5
t74.5 -73t105 -45.5t139 -17q140 0 231 22t147.5 75t79.5 133t23 203q0 124 -31.5 206t-97 126t-149.5 61t-206 17q-165 0 -404 -36q-8 -82 -8 -227z" />
    <glyph glyph-name="seven.tnum" 
d="M1375 1926h-1154v334h1337q112 0 173.5 -49t61.5 -133q0 -60 -33 -133l-879 -1945h-451z" />
    <glyph glyph-name="eight.tnum" 
d="M182 1727q0 95 24.5 173.5t66 135.5t102.5 100.5t129.5 71t151 45t162 24.5t168.5 7q125 0 232.5 -14t216.5 -52t185 -98t124 -160.5t48 -232.5q0 -81 -7.5 -140t-28 -118t-57.5 -106t-96 -94t-144 -92q123 -68 199.5 -139t120.5 -176t44 -244q0 -154 -44 -269
t-117.5 -185.5t-184 -113.5t-227 -58.5t-264.5 -15.5q-153 0 -276 19t-230 65t-179 118.5t-112.5 184t-40.5 256.5q0 137 43 238t119 171t204 143q-177 94 -254.5 221.5t-77.5 334.5zM532 628q0 -84 23 -146.5t62 -100.5t98.5 -61t123.5 -31.5t147 -8.5q81 0 144 8.5
t123 31.5t99 61t62.5 100.5t23.5 146.5q0 80 -13.5 134.5t-47 99.5t-96.5 74t-156.5 49.5t-232.5 33.5q-176 -33 -268 -127.5t-92 -263.5zM553 1672q0 -63 11.5 -108.5t44.5 -89.5t91 -72.5t154 -49t230 -27.5q182 43 262 118.5t80 228.5q0 80 -23 138.5t-60.5 92.5
t-97 53.5t-119 26t-140.5 6.5q-65 0 -115 -4.5t-102 -16t-89 -34t-67 -56.5t-45 -86t-15 -120z" />
    <glyph glyph-name="nine.tnum" 
d="M938 834q-160 0 -280 18.5t-224 66.5t-170.5 127t-103.5 203.5t-37 293.5q0 175 41 305t112.5 213t182.5 133.5t237 70t290 19.5q140 0 253.5 -22t198 -62.5t147.5 -103.5t103.5 -138.5t66 -174t35.5 -203.5t10 -234q0 -202 -11.5 -358.5t-40 -295t-73.5 -238.5
t-116 -183t-163 -136.5t-218.5 -90.5t-279 -52.5t-347.5 -15.5q-67 0 -250 4l-32 309q48 2 129 4t143 3t145.5 6.5t148 15t139.5 29t130.5 47t109.5 71.5t88 99.5t55.5 133t22.5 171.5q-247 -35 -442 -35zM1410 1391q0 70 -3.5 125.5t-14.5 118t-29 109.5t-49.5 91.5
t-74.5 73t-105 45.5t-139 17q-140 0 -231 -22t-147.5 -75t-79.5 -133t-23 -203q0 -124 31.5 -206t97 -126t149.5 -61t206 -17q165 0 404 36q8 82 8 227z" />
    <glyph glyph-name="dollar.tnum" 
d="M297 352q340 -48 583 -48q82 0 143.5 7.5t118 29t91.5 57t56 93.5t21 137q0 50 -11 91.5t-30 72.5t-47.5 56.5t-60.5 44t-72 34.5t-78.5 28l-83.5 26l-31 9q-74 23 -129.5 42t-115 43t-102.5 48t-87 55t-74 65t-57 77t-42.5 92.5t-24.5 110t-9 130.5q0 301 150 446.5
t453 175.5v312h274v-305q282 -8 544 -62l-35 -303q-302 44 -482 44q-40 0 -68 -0.5t-73 -3t-77 -7.5t-73 -14.5t-70 -22.5t-59.5 -33.5t-48.5 -46t-30 -61t-12 -77.5q0 -165 101 -244q67 -52 231 -98q24 -7 76 -21l44 -12q129 -35 223 -74t171.5 -94.5t124.5 -126.5
t72.5 -167t25.5 -219q0 -302 -151.5 -457.5t-451.5 -192.5v-316h-274v304q-303 4 -581 63z" />
    <glyph glyph-name="cent.tnum" 
d="M1579 584l33 -280q-195 -45 -392 -57v-305h-256v307q-100 11 -180.5 44t-138 80.5t-100 115t-68.5 138.5t-42 161t-21.5 174t-5.5 185q0 131 9.5 233t33 196t65 163.5t102 125t147 90t199.5 50.5v313h256v-301q201 -5 389 -60l-29 -272q-203 36 -299 36q-87 0 -152 -5.5
t-117.5 -21.5t-88.5 -36t-62 -56.5t-41 -75t-24 -101t-11.5 -124.5t-2.5 -154q0 -243 22 -341q31 -138 132 -197q109 -63 347 -63q108 0 296 38z" />
    <glyph glyph-name="Euro.tnum" 
d="M199 1230l50 226h189q12 146 37 260.5t68 208.5t105 160t147 111.5t194.5 66.5t248.5 21q274 0 509 -69l-30 -300q-235 44 -404 44q-106 0 -185.5 -24t-131 -65t-85 -106.5t-50 -138t-23.5 -169.5h733l-50 -226h-690v-174h651l-49 -225h-596q6 -102 21 -178t48 -145.5
t84.5 -112.5t132.5 -68.5t190 -25.5q169 0 404 44l30 -300q-235 -69 -509 -69q-141 0 -252 22t-196.5 68.5t-147.5 114.5t-104.5 165.5t-66.5 215.5t-35 269h-257l49 225h199v74q0 67 1 100h-229z" />
    <glyph glyph-name="sterling.tnum" 
d="M466 995h-329v293h286q-24 183 -24 366q0 147 42.5 258.5t114 181t177 113.5t220 60.5t254.5 16.5q92 0 170 -13.5t133.5 -34t114 -59t97.5 -71.5t98 -89l-199 -235q-102 87 -193 130t-209 43q-123 0 -204.5 -22t-128.5 -70.5t-66.5 -116.5t-19.5 -169q0 -106 22 -289
h501v-293h-470q7 -105 7 -189q0 -96 -31.5 -229.5t-75.5 -243.5h454q301 0 552 39l35 -307q-114 -28 -326 -46.5t-436 -18.5h-537q-100 0 -149.5 42.5t-49.5 110.5q0 33 19 80t46.5 101.5t55 118t46.5 149.5t19 177q0 88 -16 216z" />
    <glyph glyph-name="yen.tnum" 
d="M153 2260h403l431 -986l444 986h387l-483 -1051h250v-246h-363l-41 -90v-123h404v-243h-404v-507h-395v507h-399v243h399v123l-41 90h-358v246h245z" />
    <glyph glyph-name="period.tnum" horiz-adv-x="985" 
d="M262 207q0 131 49.5 181t180.5 50q132 0 181.5 -50t49.5 -181q0 -132 -48.5 -181.5t-182.5 -49.5q-133 0 -181.5 49.5t-48.5 181.5z" />
    <glyph glyph-name="comma.tnum" horiz-adv-x="985" 
d="M359 399h432l-315 -836h-320z" />
    <glyph glyph-name="colon.tnum" horiz-adv-x="985" 
d="M263 207q0 131 49.5 181t180.5 50q132 0 181.5 -50t49.5 -181q0 -132 -48.5 -181.5t-182.5 -49.5q-133 0 -181.5 49.5t-48.5 181.5zM263 1411q0 131 49.5 181t180.5 50q132 0 181.5 -50t49.5 -181q0 -132 -48.5 -181.5t-182.5 -49.5q-133 0 -181.5 49.5t-48.5 181.5z" />
    <glyph glyph-name="semicolon.tnum" horiz-adv-x="985" 
d="M810 1411q0 -132 -48.5 -181.5t-182.5 -49.5q-133 0 -181.5 49.5t-48.5 181.5q0 131 49.5 181t180.5 50q132 0 181.5 -50t49.5 -181zM473 -437h-320l203 836h432z" />
    <glyph glyph-name="zero.onum_tnum" horiz-adv-x="1810" 
d="M1672 948q0 -147 -9 -260t-31.5 -217.5t-60.5 -179.5t-96 -137t-138.5 -100t-187.5 -58t-243 -20t-243 20t-187.5 58t-139 100t-97 137t-61 179.5t-31.5 218t-9 259.5q0 147 9 260.5t31.5 218t61 180t96.5 137.5t138.5 100t188 58t243.5 20q119 0 216 -14.5t173 -46
t134 -75t99.5 -107t69.5 -135.5t44 -168t23 -198t7 -230zM519 948q0 -270 23 -383q35 -178 153 -242q81 -44 211 -44q222 0 308 134q65 102 75 332q3 71 3 203q0 270 -21 381q-34 179 -149 244q-82 47 -216 47q-222 0 -308 -135q-66 -102 -76 -333q-3 -71 -3 -204z" />
    <glyph glyph-name="one.onum_tnum" horiz-adv-x="1810" 
d="M1236 0h-375v1522q-220 -56 -469 -86l-17 300q317 46 562 164h299v-1900z" />
    <glyph glyph-name="two.onum_tnum" horiz-adv-x="1810" 
d="M600 314h1002v-314h-1416q68 350 118 492q69 201 193 316q116 107 332 191q224 87 318 168.5t94 215.5q0 142 -110 188.5t-417 46.5q-186 0 -457 -39l-38 282q351 61 662 61q129 0 233.5 -13.5t197.5 -47t155.5 -87.5t99 -138.5t36.5 -195.5q0 -259 -149 -429t-449 -280
q-118 -43 -191 -83.5t-117 -91.5t-64 -104.5t-33 -137.5z" />
    <glyph glyph-name="three.onum_tnum" horiz-adv-x="1810" 
d="M821 1922q90 0 166 -5.5t155 -21t141.5 -40.5t118.5 -66t93 -95t58.5 -129.5t21.5 -168.5q0 -329 -282 -476q151 -63 233 -174t82 -287q0 -148 -36 -260.5t-102 -186.5t-166.5 -120.5t-220.5 -66t-274 -19.5q-271 0 -629 66l41 294q342 -45 512 -45q105 0 176.5 7.5
t133 27.5t97 56.5t55 93.5t19.5 138q0 134 -59 205.5t-178 87.5q-170 22 -429 22h-45v279q249 6 474 39q114 17 164 86.5t50 187.5q0 51 -10.5 90.5t-28 67t-47.5 47t-61 30.5t-76.5 17t-86 8t-97.5 2q-217 0 -546 -45l-37 288q339 66 620 66z" />
    <glyph glyph-name="four.onum_tnum" horiz-adv-x="1810" 
d="M1070 -172v475h-738q-141 0 -198.5 52t-57.5 149q0 122 142 305l722 930q79 102 149.5 142.5t156.5 40.5t140 -58t54 -168v-1102h261v-291h-261v-475h-370zM1071 1404l-610 -810h610v810z" />
    <glyph glyph-name="five.onum_tnum" horiz-adv-x="1810" 
d="M1567 1900v-325h-932l-31 -458q86 4 130 4q120 0 212 -6t188 -23t165.5 -46t132.5 -77.5t102 -115t61.5 -161t22.5 -213.5q0 -354 -195 -514t-582 -160q-323 0 -653 68l40 293q299 -45 517 -45q70 0 121.5 2.5t101 10t83.5 20.5t64.5 34t49 50t32.5 69.5t20 92t6 117.5
q0 59 -18 106t-47 79t-74.5 55t-91.5 36t-106.5 21t-111 10t-114.5 2q-226 0 -424 -11l75 1085h1256z" />
    <glyph glyph-name="six.onum_tnum" horiz-adv-x="1810" 
d="M947 1313q121 0 217 -12t183 -40t149.5 -77t108.5 -120.5t69 -172.5t23 -231q0 -135 -25 -241t-75 -180.5t-117 -126t-159 -81t-192.5 -42.5t-225.5 -13q-180 0 -312 40t-215.5 110t-134 181t-69.5 237.5t-19 294.5q0 185 10.5 328t37 270t68 218.5t106 167.5t149.5 125
t200.5 82.5t255.5 48t319 14.5q69 0 235 -4l32 -299q-47 -3 -121.5 -6t-131 -4.5t-132 -7.5t-133 -14.5t-124 -26t-116 -41.5t-98 -61.5t-79.5 -85t-52 -113.5t-24 -146q224 29 392 29zM892 1026q-147 0 -358 -31q-7 -74 -7 -198q0 -89 6.5 -156t29.5 -138.5t61.5 -117.5
t107.5 -75.5t163 -29.5q165 0 257 37.5t131 119.5t39 227q0 110 -28 182t-86.5 111t-132.5 54t-183 15z" />
    <glyph glyph-name="seven.onum_tnum" horiz-adv-x="1810" 
d="M202 1900h1224q106 0 164.5 -47t58.5 -128q0 -58 -30 -125l-802 -1773h-431l858 1749h-1042v324z" />
    <glyph glyph-name="eight.onum_tnum" horiz-adv-x="1810" 
d="M906 -24q-141 0 -254.5 17.5t-212 60t-164.5 110t-103.5 170t-37.5 237.5q0 125 37 216.5t103.5 155t181.5 129.5q-158 86 -224.5 200t-66.5 304q0 88 22.5 161.5t61 126t95 93t119 66t139 41.5t149.5 22.5t155 6.5q95 0 179 -9.5t170.5 -30.5t155 -60.5t123 -94.5
t84 -137.5t29.5 -184.5q0 -92 -11 -156t-42 -126t-88.5 -114t-149.5 -103q111 -62 178 -126.5t104.5 -159t37.5 -221.5q0 -142 -40.5 -248.5t-108 -171.5t-169 -105t-209 -54.5t-243.5 -14.5zM906 272q72 0 127.5 7.5t108.5 27.5t87.5 53.5t55.5 89t21 129.5q0 88 -18.5 143
t-72.5 97.5t-147 66t-246 38.5q-319 -66 -319 -345q0 -75 20.5 -130t55 -88.5t87.5 -53.5t109.5 -27.5t130.5 -7.5zM994 1221q153 40 227 108.5t74 197.5q0 70 -20.5 121t-53.5 81t-85.5 47.5t-105.5 23t-124 5.5q-70 0 -121.5 -5.5t-104 -22.5t-85 -47t-53 -81t-20.5 -122
q0 -55 10 -95.5t40 -79t81.5 -64t136.5 -43.5t204 -24z" />
    <glyph glyph-name="nine.onum_tnum" horiz-adv-x="1810" 
d="M861 585q-121 0 -217 12t-183 40t-149.5 77t-108.5 120.5t-69 172.5t-23 231q0 135 25 241t75 180.5t117 126t159 81t192.5 42.5t225.5 13q180 0 312 -40t215.5 -110t134 -181t69.5 -237.5t19 -294.5q0 -185 -10.5 -328t-37 -270t-68 -218.5t-106 -167.5t-149.5 -125
t-200.5 -82.5t-255.5 -48t-319 -14.5q-69 0 -235 4l-32 299q47 3 121.5 6t131 4.5t132 7.5t133 14.5t124 26t116 41.5t98 61.5t79.5 85t52 113.5t24 146q-224 -29 -392 -29zM1281 1101q0 89 -6.5 156t-29.5 138.5t-61.5 117.5t-107.5 75.5t-163 29.5q-165 0 -257 -37.5
t-131 -119.5t-39 -227q0 -110 28 -182t86.5 -111t132.5 -54t183 -15q147 0 358 31q7 73 7 198z" />
    <glyph glyph-name="dollar.onum_tnum" horiz-adv-x="1810" 
d="M271 338q300 -44 539 -44q92 0 156 11.5t118 41.5t80.5 87.5t26.5 144.5q0 34 -6.5 63.5t-16 53t-29 45t-35 36t-46.5 31l-50 26t-59 23.5t-61 20.5l-67 20.5q-88 27 -150.5 49t-128.5 53t-110.5 63t-85 76.5t-64 97.5t-37.5 121t-14 151q0 276 136.5 411t411.5 164v284
h269v-277q258 -9 496 -59l-34 -294q-291 41 -447 41q-48 0 -80 -1t-84 -5.5t-87.5 -13t-77 -25.5t-67 -41t-42.5 -61t-17 -84q0 -37 6.5 -68.5t16 -56t28.5 -47t34.5 -37.5t44 -30l47 -24t54.5 -20.5t55 -16.5l59.5 -15.5l58.5 -15.5q118 -32 204.5 -68.5t158 -87.5
t115 -116.5t67 -154t23.5 -202.5q0 -277 -138 -420.5t-410 -178.5v-289h-269v277q-269 5 -529 60z" />
    <glyph glyph-name="cent.onum_tnum" horiz-adv-x="1810" 
d="M1453 550l32 -274q-178 -41 -357 -53v-277h-252v279q-91 11 -164.5 42t-125.5 75t-90.5 105.5t-62 127t-38 147.5t-19.5 159t-5 169q0 119 9 212.5t30 180t58.5 150t93 114.5t134 83.5t180.5 47.5v285h252v-273q177 -5 354 -56l-28 -266q-198 33 -280 33q-62 0 -111 -3
t-90.5 -12t-73 -19.5t-56.5 -30.5t-42.5 -40.5t-30.5 -53t-20 -65.5t-11.5 -81t-6 -94.5t-1.5 -111.5q0 -224 21 -311q29 -125 126 -175.5t298 -50.5q94 0 277 37z" />
    <glyph glyph-name="Euro.onum_tnum" horiz-adv-x="1810" 
d="M179 1115l51 225h171q17 201 62 338.5t131 232.5t219 138.5t323 43.5q256 0 473 -65l-29 -292q-231 42 -375 42q-93 0 -163 -21t-115.5 -57t-75.5 -92.5t-45 -120t-22 -147.5h668l-51 -225h-625v-138h595l-50 -224h-539q6 -89 20 -155.5t43.5 -127t75 -98t117 -59.5
t167.5 -22q144 0 375 42l29 -292q-217 -65 -473 -65q-194 0 -327.5 45t-220 143t-130.5 239.5t-59 349.5h-238l50 224h179v138h-211z" />
    <glyph glyph-name="sterling.onum_tnum" horiz-adv-x="1810" 
d="M421 904h-299v286h258q-20 173 -20 322q0 136 39 239t105 167.5t163 104.5t202.5 55.5t234.5 15.5q85 0 157 -13t124 -32t106.5 -55t91.5 -67.5t92 -83.5l-194 -229q-94 82 -177.5 122t-189.5 40q-108 0 -180 -19.5t-113.5 -62t-58.5 -102.5t-17 -149q0 -98 18 -253h456
v-286h-426q6 -104 6 -162q0 -85 -27.5 -201.5t-66.5 -218.5h399q276 0 511 38l33 -299q-108 -26 -304 -43.5t-399 -17.5h-488q-96 0 -143 41t-47 107q0 38 26.5 98.5t57.5 119.5t57.5 155t26.5 197q0 76 -14 186z" />
    <glyph glyph-name="yen.onum_tnum" horiz-adv-x="1810" 
d="M521 2073l385 -881l398 881h372l-439 -955h222v-243h-333l-34 -74v-100h367v-240h-367v-461h-379v461h-362v240h362v100l-34 74h-328v243h218l-435 955h387z" />
    <glyph glyph-name="parenleft.case" horiz-adv-x="1034" 
d="M924 -167l-212 -175q-128 110 -225 248t-158.5 282t-100.5 310.5t-54 325.5t-15 336t15 336t54 326t100.5 311t158.5 282t225 248l212 -176q-379 -379 -379 -1327t379 -1327z" />
    <glyph glyph-name="parenright.case" horiz-adv-x="1034" 
d="M322 -342l-212 175q379 379 379 1327t-379 1327l212 176q128 -110 225 -248t158.5 -282t100.5 -311t54 -326t15 -336t-15 -336t-54 -325.5t-100.5 -310.5t-158.5 -282t-225 -248z" />
    <glyph glyph-name="bracketleft.case" horiz-adv-x="1049" 
d="M947 2357h-335v-2380h333v-288h-685v2952h687v-284z" />
    <glyph glyph-name="bracketright.case" horiz-adv-x="1049" 
d="M104 -23h333v2380h-335v284h687v-2952h-685v288z" />
    <glyph glyph-name="braceleft.case" horiz-adv-x="1052" 
d="M107 1038v257q51 5 89.5 24t66 57.5t45.5 90.5t28.5 130.5t14.5 168.5t4 214q0 144 25.5 250.5t71.5 177t121 116t162.5 67.5t207.5 32l30 -254q-54 -7 -96 -23t-71 -37t-49.5 -54t-32 -65t-18 -78.5t-8 -85.5t-1.5 -95v-171v-73.5t-2 -74.5t-5.5 -79.5t-11 -75
t-18.5 -75t-27.5 -66.5t-38 -62t-51 -49t-65.5 -39q49 -25 86.5 -64.5t60.5 -90.5t38.5 -102.5t22 -115t9 -112t2.5 -109.5v-171q0 -66 2.5 -110.5t11.5 -96.5t27.5 -86.5t48.5 -66.5t76.5 -50.5t109.5 -26.5l-30 -255q-120 10 -207.5 32t-162.5 67.5t-121 116t-71.5 177.5
t-25.5 251q0 124 -4 214t-14.5 168.5t-28.5 130t-45.5 90t-66 58t-89.5 24.5z" />
    <glyph glyph-name="braceright.case" horiz-adv-x="1052" 
d="M355 1760v171q0 56 -1.5 95t-8 85.5t-18 78.5t-32 65t-49.5 54t-71 37t-96 23l30 254q120 -10 207.5 -32t162.5 -67.5t121 -116t71.5 -177t25.5 -250.5q0 -124 4 -214t14.5 -168.5t28.5 -130.5t45.5 -90.5t66 -57.5t89.5 -24v-257q-51 -5 -89.5 -24.5t-66 -58t-45.5 -90
t-28.5 -130t-14.5 -168.5t-4 -214q0 -144 -25.5 -251t-71.5 -177.5t-121 -116t-162.5 -67.5t-207.5 -32l-30 255q63 8 109.5 26.5t76.5 50.5t48.5 66.5t27.5 86.5t11.5 96.5t2.5 110.5v171q0 61 2.5 109.5t9 112t22 115t38.5 102.5t60.5 90.5t86.5 64.5q-36 15 -65.5 39
t-51 49t-38 62t-27.5 66.5t-18.5 75t-11 75t-5.5 79.5t-2 74.5v73.5z" />
    <glyph glyph-name="questiondown.case" horiz-adv-x="1736" 
d="M1188 1639l8 -215q3 -57 3 -82q0 -90 -23 -153t-61.5 -96t-89 -52.5t-106 -29l-111 -19t-106 -29.5t-89 -54t-61.5 -98.5t-23 -156.5q0 -107 21.5 -173t80 -108t151.5 -57.5t245 -15.5q289 0 542 49l67 -312q-324 -73 -666 -73q-119 0 -210 6.5t-184 25t-160 50
t-127.5 83.5t-97.5 124t-58.5 172.5t-21.5 227.5q0 362 208 502q87 59 254 99q135 32 171 46q92 36 105 110q3 11 3 24l8 205h328zM1254 2111q0 -131 -49.5 -181t-180.5 -50q-132 0 -181.5 50t-49.5 181q0 132 48.5 181.5t182.5 49.5q133 0 181.5 -49.5t48.5 -181.5z" />
    <glyph glyph-name="exclamdown.case" horiz-adv-x="911" 
d="M686 2111q0 -131 -49.5 -181t-180.5 -50q-132 0 -181.5 50t-49.5 181q0 132 48.5 181.5t182.5 49.5q133 0 181.5 -49.5t48.5 -181.5zM683 -12h-454l65 1651h324z" />
    <glyph glyph-name="at.case" horiz-adv-x="2994" 
d="M2783 1617q58 -200 58 -452q0 -313 -87 -541t-259.5 -370.5t-417 -210t-572.5 -67.5q-329 0 -574 67.5t-417 210t-258.5 370t-86.5 541.5q0 258 59 456.5t170.5 336.5t280.5 227t380.5 129t479.5 40q111 0 204 -17t177 -57.5t142.5 -103.5t92.5 -160.5t34 -222.5v-700
q0 -165 -15 -327q-113 -71 -300 -113.5t-396 -42.5q-354 0 -512.5 137t-158.5 418q0 238 114 375t365 183q143 26 531 47q0 161 -63.5 221.5t-231.5 60.5q-190 0 -336.5 -26.5t-268.5 -89t-201 -163.5t-122 -253t-43 -355q0 -200 42 -351t119.5 -252.5t196.5 -165t264 -91
t332 -27.5t332 27.5t264.5 91t196.5 165t119 252.5t42 351q0 195 -40 346zM1817 1194v328q-258 -7 -384 -43q-75 -21 -118 -41t-75.5 -54.5t-45 -84.5t-12.5 -128q0 -82 22 -137t69 -85.5t109 -42.5t152 -12q55 0 142 18t130 43q11 99 11 239z" />
    <glyph glyph-name="guilsinglleft.case" horiz-adv-x="1077" 
d="M941 1849l-439 -685l439 -684h-367l-485 684l485 685h367z" />
    <glyph glyph-name="guilsinglright.case" horiz-adv-x="1077" 
d="M575 1164l-439 685h367l485 -685l-485 -684h-367z" />
    <glyph glyph-name="guillemotleft.case" horiz-adv-x="1808" 
d="M89 1164l485 685h368l-441 -685l441 -684h-368zM820 1164l485 685h367l-439 -685l439 -684h-367z" />
    <glyph glyph-name="guillemotright.case" horiz-adv-x="1808" 
d="M575 1164l-439 685h367l485 -685l-485 -684h-367zM1307 1164l-441 685h368l485 -685l-485 -684h-368z" />
    <glyph glyph-name="hyphen.case" horiz-adv-x="1292" 
d="M1078 1005h-864v319h864v-319z" />
    <glyph glyph-name="endash.case" horiz-adv-x="2035" 
d="M1821 1015h-1607v299h1607v-299z" />
    <glyph glyph-name="emdash.case" horiz-adv-x="3588" 
d="M3374 1015h-3160v299h3160v-299z" />
    <glyph glyph-name="periodcentered.case" horiz-adv-x="871" 
d="M435 934q-133 0 -181.5 49.5t-48.5 181.5q0 131 49.5 181t180.5 50q132 0 181.5 -50t49.5 -181q0 -132 -48.5 -181.5t-182.5 -49.5z" />
    </font>
</defs>
</svg>
